<?xml version="1.0" encoding="utf-8"?>
<!-- Generator: Adobe Illustrator 19.2.1, SVG Export Plug-In . SVG Version: 6.00 Build 0)  -->
<svg version="1.1" id="Layer_1" xmlns="http://www.w3.org/2000/svg" xmlns:xlink="http://www.w3.org/1999/xlink" x="0px" y="0px"
	 viewBox="0 0 300 300" style="enable-background:new 0 0 300 300;" xml:space="preserve">
<style type="text/css">
	.st0{fill-rule:evenodd;clip-rule:evenodd;fill:#0094D9;}
	.st1{fill-rule:evenodd;clip-rule:evenodd;fill:#FFFFFF;}
	.st2{fill-rule:evenodd;clip-rule:evenodd;fill:#000002;}
</style>
<rect class="st0" width="300" height="300"/>
<path class="st1" d="M148.9,40c56.8,0,103.2,32.6,103.2,72.5c0,39.9-46.3,72.5-103.2,72.5c-56.8,0-103.2-32.6-103.2-72.5
	C45.8,72.6,92.1,40,148.9,40"/>
<path class="st2" d="M232.1,137.5c0-0.1,0-0.2,0-0.2c0,0,0-0.1,0-0.1c-25.7,0.3-49.2,7.3-67,18.5c-1.9-1.7-4.2-3.2-6.6-4.2
	c16.4-16.1,44-26.6,75.3-26.6c1.4,0,2.8,0,4.2,0.1c0,0,0,0.1,0,0.1c0.1-0.1,0.3-0.2,0.4-0.4C237,129.1,234.9,133.4,232.1,137.5
	 M172.9,170.9c-0.2-1.8-0.6-3.6-1.2-5.3c13.2-8.3,30.2-13.9,49-15.7C208.7,159.9,192.1,167.4,172.9,170.9z M136.7,172.4
	c0.5-6.2,5.8-11.1,12.2-11.1c6.4,0,11.6,4.9,12.2,11.1c-4,0.4-8,0.5-12.2,0.5C144.8,173,140.7,172.8,136.7,172.4z M77.1,149.8
	c18.8,1.8,35.7,7.5,49,15.7c-0.6,1.7-1,3.5-1.2,5.3C105.7,167.4,89,159.9,77.1,149.8z M59.4,124.6l0.5,0.1l0.1,0.1
	c1.3,0,2.7-0.1,4-0.1c31.3,0,58.9,10.6,75.3,26.6c-2.4,1.1-4.7,2.5-6.6,4.2c-17.9-11.3-41.3-18.2-67-18.5l0,0.2
	C62.8,133.3,60.7,129,59.4,124.6z M122.5,62.4l-11.6,15.4l25.3,0L116,102.9h14.3L105,118.7c14.7,4.5,27.6,11.4,37.8,19.9l6.1,5.1
	l6.1-5.1c15.5-13,37.3-22.1,62-24.9V93h-14.5v12.3h-4.3V92.5l-24.7,12.2l0-11.7h-23l0-4.3h23l0-10.8l24.6,11.2V76.5l4.3,0v12.3H217
	V85c0-12.4-10.1-22.6-22.5-22.6H122.5z M110.5,102.9l17.3-21.4l-25.1,0l14.4-19.1h-13.4c-12.4,0-22.5,10.1-22.5,22.6v28.7
	c5.9,0.7,11.7,1.8,17.3,3.2l0.1-14H110.5z M148.9,40.1c56.8,0,103.1,32.6,103.1,72.5c0,39.9-46.3,72.5-103.1,72.5
	S45.8,152.5,45.8,112.6C45.8,72.7,92.1,40.1,148.9,40.1z"/>
<path class="st2" d="M230,254.7l-0.6,3.8c0.9,0.9,2.2,1.3,3.8,1.3c1.6,0,2.9-0.4,4.2-1.3c1.2-0.9,2.2-2,2.8-3.4c0.6-1.4,1-2.9,1-4.4
	c0-1.2-0.3-2.4-0.8-3.4c-0.5-1-1.3-2.2-2.3-3.5c-1-1.3-1.7-2.3-2.1-3c-0.4-0.7-0.6-1.5-0.6-2.3c0.2-1.3,0.7-2.2,1.5-2.9
	c0.7-0.7,1.6-1,2.5-1c1.2,0,2.2,0.4,3,1.2l0.6-3.8c-1.2-0.6-2.5-1-3.8-1c-1.4,0-2.6,0.4-3.8,1.1c-1.2,0.7-2.1,1.8-2.8,3.1
	c-0.7,1.3-1,2.9-1,4.6c0,1.3,0.3,2.4,0.7,3.3c0.5,0.9,1.2,1.9,2.2,3c1,1.1,1.7,2.1,2.2,2.9c0.5,0.8,0.7,1.8,0.7,2.9
	c0,1.2-0.4,2.3-1.2,3.1c-0.7,0.9-1.7,1.3-2.8,1.3C232.2,256.2,231,255.6,230,254.7 M244.2,225l-1.7-1.5l-3.2,3.1l-2.4-3.1l-2,1.5
	l3.8,5.2L244.2,225z M243.9,251.4c0,0.2,0,0.6,0,1c0,1.3,0.2,2.5,0.6,3.7c0.4,1.1,1,2,1.8,2.7c0.9,0.7,1.9,1,3.2,1
	c1.8,0,3.3-0.6,4.6-1.6c1.3-1.1,2.3-2.6,3.1-4.5c0.8-1.9,1.4-4.1,1.8-6.5c0.4-2.5,0.7-5.2,0.9-8.1c0-0.1,0-0.2,0-0.4
	c0-0.2,0-0.3,0-0.4c0-2-0.4-3.7-1.3-5.1c-0.9-1.4-2.3-2-4.3-2c-0.8,0-1.5,0-1.9,0.1c-2,0.4-3.7,1.8-4.9,4.1c-1.2,2.3-2,4.7-2.5,7.3
	C244.6,245.2,244.2,248.1,243.9,251.4z M247.9,251.4c0.1-1.7,0.3-3.4,0.5-5.1c0.2-1.8,0.5-3.5,0.9-5.3c0.4-1.8,1-3.4,1.7-4.6
	c0.7-1.2,1.5-1.9,2.5-1.9c0.9,0,1.6,0.3,1.9,0.9c0.3,0.6,0.5,1.7,0.5,3.1c0,0.2,0,0.6,0,1c0,0.5,0,0.8,0,1c-0.1,1.9-0.4,4.1-0.8,6.5
	c-0.4,2.4-1,4.6-1.8,6.4c-0.8,1.9-1.7,2.8-2.8,2.8c-1.6,0-2.5-1.2-2.6-3.7C247.9,252.2,247.9,251.8,247.9,251.4z M265.3,231.3
	l-4.4,28.1h10l0.5-3.3h-6.3l3.8-24.8H265.3z M281.6,231.3L271,259.4h3.7l1.9-5.4h5.6l0.2,5.4h3.8l-1.6-28.1H281.6z M277.7,251.1
	l4.4-14.3h0.1l-0.1,14.3H277.7z"/>
<path class="st2" d="M19.3,231.5h-3.7l-4.4,28.1h3.7L19.3,231.5 M19.5,259.6h3.7c0.4-2.5,0.8-5,1.2-7.4c0.4-2.4,0.7-4.8,0.9-7.2
	c0.3-2.4,0.4-4.7,0.6-7l0.1-0.1l3.1,21.7h3.5l4.4-28.1h-3.8c-0.4,2.5-0.8,4.7-1,6.5c-0.3,1.9-0.4,3.5-0.6,4.8
	c-0.1,1.4-0.3,2.8-0.4,4.2c-0.1,1.5-0.2,3.4-0.4,5.6l-0.1,0.1l-3.3-21.3h-3.5L19.5,259.6z M44.7,259.6h3.7l2.2-13.8h0.1l2.9,13.8
	h3.9l-3.1-13.7c1.2-0.1,2.2-0.8,3-1.8c0.8-1.1,1.3-2.2,1.6-3.6c0.3-1.4,0.4-2.7,0.4-4c0-1.8-0.4-3-1.2-3.8c-0.9-0.8-2.2-1.2-4-1.2
	h-5.1L44.7,259.6z M51,243.9l1.5-9.3c1.1,0,1.9,0.1,2.3,0.4c0.5,0.3,0.8,1,0.8,2.2c0,1.8-0.3,3.4-1,4.7
	C53.9,243.2,52.7,243.9,51,243.9z M68.7,231.5l-10.5,28.1h3.7l1.9-5.4h5.6l0.2,5.4h3.8l-1.6-28.1H68.7z M64.7,251.2l4.4-14.3h0.1
	l-0.1,14.3H64.7z M90.9,231.9c-1-0.6-2.1-0.8-3.4-0.8c-1.1,0-2.2,0.3-3.2,0.7c-1,0.5-1.9,1-2.6,1.8c-1,0.9-1.8,2.4-2.6,4.3
	c-0.8,1.9-1.4,4.1-1.9,6.4c-0.4,2.3-0.7,4.6-0.7,6.7c0.1,2.8,0.4,4.8,1.1,6c0.5,0.9,1.3,1.6,2.3,2.1c1,0.6,2.1,0.8,3.3,0.8
	c1.3,0,2.4-0.3,3.2-0.8l0.5-3.3c-0.6,0.4-1.4,0.6-2.3,0.7c-1.7-0.1-2.8-0.7-3.2-1.8c-0.5-1.2-0.8-2.7-0.9-4.7c0-1.6,0.2-3.2,0.5-5
	c0.3-1.7,0.7-3.2,1.1-4.6c0.4-1.4,0.8-2.3,1.1-2.8c0.6-1,1.3-1.8,2.1-2.3c0.9-0.6,1.7-0.8,2.5-0.8c0.9,0,1.6,0.3,2.4,0.8L90.9,231.9
	z M92.4,225.1l-1.7-1.5l-3.2,3.1l-2.4-3.1l-2,1.5l3.8,5.2L92.4,225.1z M93.9,231.5l-3.1,20.1c-0.1,0.6-0.2,1.7-0.3,3.2
	c0,1.2,0.2,2.2,0.6,3c0.4,0.7,1,1.3,1.8,1.7c0.8,0.3,1.8,0.5,3,0.5c1.3,0,2.4-0.2,3.3-0.6c0.9-0.3,1.6-0.8,2.2-1.5
	c0.6-0.7,1-1.5,1.4-2.6c0.3-1,0.6-2.3,0.9-3.8l3.2-20.1H103l-3.2,20.3c-0.2,1.2-0.4,2.2-0.6,2.8c-0.3,0.6-0.6,1.1-1,1.4
	c-0.5,0.3-1.1,0.4-2,0.4c-0.7,0-1.2-0.2-1.5-0.6c-0.3-0.4-0.4-1-0.5-1.7c0-0.6,0.1-1.6,0.3-3l3.1-19.6H93.9z M106.8,259.6h3.7
	c0.4-2.5,0.8-5,1.2-7.4c0.4-2.4,0.7-4.8,0.9-7.2c0.3-2.4,0.4-4.7,0.6-7l0.1-0.1l3.1,21.7h3.5l4.4-28.1h-3.8c-0.4,2.5-0.8,4.7-1,6.5
	c-0.3,1.9-0.4,3.5-0.6,4.8c-0.1,1.4-0.3,2.8-0.4,4.2c-0.1,1.5-0.2,3.4-0.4,5.6l-0.1,0.1l-3.3-21.3h-3.5L106.8,259.6z M132.9,231.5
	l-10.5,28.1h3.7l1.9-5.4h5.6l0.2,5.4h3.8l-1.6-28.1H132.9z M129,251.2l4.4-14.3h0.1l-0.1,14.3H129z M144.3,231.5l-4.4,28.1h10
	l0.5-3.3h-6.3l3.8-24.8H144.3z M152.2,259.6h3.7c0.4-2.5,0.8-5,1.2-7.4c0.4-2.4,0.7-4.8,0.9-7.2c0.3-2.4,0.4-4.7,0.6-7l0.1-0.1
	l3.1,21.7h3.5l4.4-28.1h-3.8c-0.4,2.5-0.8,4.7-1,6.5c-0.3,1.9-0.4,3.5-0.6,4.8c-0.1,1.4-0.3,2.8-0.4,4.2c-0.1,1.5-0.2,3.4-0.4,5.6
	l-0.1,0.1l-3.3-21.3h-3.5L152.2,259.6z M177.9,231.5h-3.7l-4.4,28.1h3.7L177.9,231.5z M178.2,254.8l-0.6,3.8
	c0.9,0.9,2.2,1.3,3.8,1.3c1.6,0,2.9-0.4,4.2-1.3c1.2-0.9,2.2-2,2.8-3.4c0.6-1.4,1-2.9,1-4.4c0-1.2-0.3-2.4-0.8-3.4
	c-0.5-1-1.3-2.2-2.3-3.5c-1-1.3-1.7-2.3-2.1-3c-0.4-0.7-0.6-1.5-0.6-2.3c0.2-1.3,0.7-2.2,1.5-2.9c0.7-0.7,1.6-1,2.5-1
	c1.2,0,2.2,0.4,3,1.2l0.6-3.8c-1.2-0.6-2.5-1-3.8-1c-1.4,0-2.6,0.4-3.8,1.1c-1.2,0.7-2.1,1.8-2.8,3.1c-0.7,1.3-1,2.9-1,4.6
	c0,1.3,0.3,2.4,0.7,3.3c0.5,0.9,1.2,1.9,2.2,3c1,1.1,1.7,2.1,2.2,2.9c0.5,0.8,0.7,1.8,0.7,2.9c0,1.2-0.4,2.3-1.2,3.1
	c-0.7,0.9-1.7,1.3-2.8,1.3C180.4,256.3,179.3,255.8,178.2,254.8z M192.4,225.1l-1.7-1.5l-3.2,3.1l-2.4-3.1l-2,1.5l3.8,5.2
	L192.4,225.1z M197.4,245.1l3,14.4h4.3l-3.7-14.5l7.7-13.6h-3.8L197.4,245.1z M197.4,245.1l2.1-13.7h-3.7l-4.4,28.1h3.7L197.4,245.1
	z M215.6,231.5L205,259.6h3.7l1.9-5.4h5.6l0.2,5.4h3.8l-1.6-28.1H215.6z M211.6,251.2l4.4-14.3h0.1l-0.1,14.3H211.6z"/>
<path class="st2" d="M103.9,193.4l-4.4,28.1h10l0.5-3.3h-6.3l1.5-9.5h5.7l0.5-3.2h-5.7l1.5-8.9h6.3l0.5-3.2H103.9 M116.9,193.4
	l-4.4,28.1h10l0.5-3.3h-6.3l3.8-24.8H116.9z M129.2,193.4l-4.4,28.1h10l0.5-3.3H129l1.5-9.5h5.7l0.5-3.2H131l1.5-8.9h6.3l0.5-3.2
	H129.2z M143.8,207.1l3,14.4h4.3l-3.7-14.5l7.7-13.6h-3.8L143.8,207.1z M143.7,207.1l2.1-13.7h-3.7l-4.4,28.1h3.7L143.7,207.1z
	 M155.5,193.4l-0.5,3.2h4.4l-4,24.9h3.8l3.9-24.9h4.2l0.5-3.2H155.5z M165.5,221.5h3.7l2.2-13.8h0.1l2.9,13.8h3.9l-3.1-13.7
	c1.2-0.1,2.2-0.8,3-1.8c0.8-1.1,1.3-2.2,1.6-3.6c0.3-1.4,0.5-2.7,0.5-4c0-1.8-0.4-3-1.2-3.8c-0.9-0.8-2.2-1.2-4-1.2h-5.1
	L165.5,221.5z M171.8,205.8l1.5-9.3c1.1,0,1.9,0.1,2.3,0.4c0.5,0.3,0.8,1,0.8,2.2c0,1.8-0.3,3.4-1,4.7
	C174.6,205.2,173.4,205.8,171.8,205.8z M181.8,213.5c0,0.2,0,0.6,0,1c0,1.3,0.2,2.5,0.6,3.7c0.4,1.1,1,2,1.8,2.7
	c0.9,0.7,1.9,1,3.2,1c1.8,0,3.3-0.6,4.6-1.6c1.3-1.1,2.3-2.6,3.1-4.5c0.8-1.9,1.4-4.1,1.8-6.5c0.4-2.5,0.7-5.2,0.9-8.1
	c0-0.1,0-0.2,0-0.4c0-0.2,0-0.3,0-0.4c0-2-0.4-3.7-1.3-5.1c-0.9-1.4-2.3-2.1-4.3-2.1c-0.8,0-1.5,0-1.9,0.2c-2.1,0.4-3.7,1.8-4.9,4.1
	c-1.2,2.3-2,4.7-2.5,7.3C182.5,207.2,182.1,210.2,181.8,213.5z M185.9,213.4c0.1-1.7,0.3-3.4,0.5-5.1c0.2-1.8,0.5-3.5,0.9-5.3
	c0.4-1.8,1-3.4,1.7-4.6c0.7-1.2,1.5-1.9,2.5-1.9s1.6,0.3,1.9,0.9c0.3,0.6,0.5,1.7,0.5,3.1c0,0.2,0,0.6,0,1c0,0.5,0,0.8,0,1
	c-0.1,1.9-0.4,4.1-0.8,6.5c-0.4,2.4-1,4.5-1.8,6.4c-0.8,1.9-1.7,2.8-2.8,2.8c-1.6,0-2.5-1.2-2.6-3.7
	C185.8,214.3,185.9,213.9,185.9,213.4z"/>
</svg>
