<?xml version="1.0" encoding="utf-8"?>
<!-- Generator: Adobe Illustrator 19.2.1, SVG Export Plug-In . SVG Version: 6.00 Build 0)  -->
<svg version="1.1" id="Layer_1" xmlns="http://www.w3.org/2000/svg" xmlns:xlink="http://www.w3.org/1999/xlink" x="0px" y="0px"
	 viewBox="0 0 300 300" style="enable-background:new 0 0 300 300;" xml:space="preserve">
<style type="text/css">
	.st0{fill-rule:evenodd;clip-rule:evenodd;fill:#FFCA05;}
	.st1{fill-rule:evenodd;clip-rule:evenodd;fill:#FFFFFF;}
	.st2{fill-rule:evenodd;clip-rule:evenodd;fill:#000002;}
	.st3{fill:#000002;}
</style>
<rect class="st0" width="300" height="300"/>
<path class="st1" d="M149.2,185.2c56.8,0,103.2-32.6,103.2-72.6c0-40-46.3-72.6-103.2-72.6C92.4,40,46.1,72.6,46.1,112.6
	C46.1,152.6,92.4,185.2,149.2,185.2"/>
<path class="st2" d="M155.4,173.6c2.8-0.1,5.5-0.3,8.3-0.6c0.8-0.1,1.5-0.2,2.3-0.3c0.8-0.1,1.6-0.2,2.4-0.3
	c3.2-0.5,6.2-1.1,9.3-1.8c2.8-0.6,5.6-1.3,8.5-2.1c0.7-0.2,1.4-0.5,2.2-0.7c0.7-0.2,1.3-0.4,2-0.6c1.4-0.5,2.7-1,4.1-1.5
	c1.3-0.5,2.6-1,3.9-1.5c0.6-0.3,1.2-0.5,1.8-0.8c0.7-0.3,1.3-0.6,2-0.9c2.5-1.3,4.9-2.5,7.2-3.9c0,0,0,0,0,0c0,0,0,0,0,0
	c2.1-1.2,4.2-2.5,6.4-4c0.5-0.4,1-0.8,1.5-1.2c0.5-0.3,1-0.7,1.5-1.1c1-0.8,1.9-1.6,2.9-2.4c0.9-0.7,1.7-1.5,2.6-2.3
	c0.4-0.4,0.8-0.8,1.2-1.2c0.4-0.4,0.9-0.8,1.3-1.3c1.7-1.8,3.2-3.6,4.6-5.5c1.2-1.5,2.3-3.1,3.4-4.8c0.3-0.5,0.5-0.9,0.7-1.3
	c0.3-0.4,0.5-0.9,0.8-1.3c0.5-1,0.9-1.9,1.3-2.8c0.4-0.9,0.8-1.7,1.1-2.6c0.1-0.4,0.3-0.9,0.4-1.3c0.2-0.5,0.3-1,0.5-1.5
	c0.5-2,0.9-3.8,1.1-5.7c0,0,0,0,0-0.1c0.3-1.8,0.4-3.7,0.5-5.7c0-1.1-0.1-2.1-0.2-3.1c-0.1-0.9-0.1-1.8-0.2-2.7l-0.2-0.9
	c-0.1-0.6-0.2-1.3-0.3-1.9c-0.2-0.6-0.3-1.3-0.5-1.9l-0.2-0.9c-0.7-2-1.4-3.8-2.2-5.6c-0.8-1.8-1.7-3.5-2.7-5.3
	c-0.3-0.4-0.6-0.9-0.9-1.3c-0.2-0.3-0.4-0.6-0.5-0.9h0c-1.3-1.9-2.7-3.8-4.2-5.6c-0.2-0.2-0.4-0.4-0.5-0.6h-16.9
	c2.4,1.8,4.6,3.8,6.9,6l0.2,0.2h-0.1c0.4,0.4,0.8,0.9,1.2,1.3l0.7,0.8c2.7,3.2,5,6.6,6.7,10.6c1.3,3,2.1,6.2,2.4,9.8
	c0.2,3.4-0.1,6.4-0.9,9.4c0,0,0,0,0,0c0,0,0,0,0,0c-1.1,3.9-2.7,7.3-5,10.7l-0.6,0.9c-0.6,0.9-1.3,1.7-1.9,2.6
	c-3,3.5-6.1,6.5-9.6,9.1c-4,3.1-8.2,5.6-12.7,7.9c-2.4,1.2-4.8,2.3-7.3,3.3l-4.8,1.8c-0.4,0.1-0.8,0.2-1.1,0.4c0,0-0.1,0-0.1,0
	c-5.8,1.8-11.5,3.1-17.5,4.1V52h-12.4l0,110.1c0,0,0,0-0.1,0v0c0,0,0,0,0,0L155.4,173.6 M130.7,160.9l0-66.6l-23.4,0V81.9h35.8v80.2
	c0,0,0,0,0,0l0,11.4c-2.8-0.1-5.5-0.3-8.3-0.6c-0.8-0.1-1.5-0.2-2.3-0.3c-0.8-0.1-1.6-0.2-2.4-0.3c-3.2-0.5-6.2-1.1-9.3-1.8
	c-2.8-0.6-5.6-1.3-8.5-2.1c-0.7-0.2-1.4-0.5-2.2-0.7c-0.7-0.2-1.3-0.4-2-0.6c-1.4-0.5-2.7-1-4.1-1.5c-1.3-0.5-2.6-1-3.9-1.5
	c-0.6-0.3-1.2-0.5-1.8-0.8c-0.7-0.3-1.3-0.6-2-0.9c-2.5-1.3-4.9-2.5-7.2-3.9c0,0,0,0,0,0c0,0,0,0,0,0c-2.1-1.2-4.2-2.5-6.3-4
	c-0.5-0.4-1-0.8-1.5-1.2c-0.5-0.3-1-0.7-1.5-1.1c-1-0.8-1.9-1.6-2.9-2.4c-0.9-0.7-1.7-1.5-2.6-2.3c-0.4-0.4-0.8-0.8-1.2-1.2
	c-0.4-0.4-0.9-0.8-1.3-1.3c-1.7-1.8-3.2-3.6-4.6-5.5c-1.2-1.5-2.3-3.1-3.4-4.8c-0.3-0.5-0.5-0.9-0.7-1.3c-0.3-0.4-0.5-0.9-0.8-1.3
	c-0.5-1-0.9-1.9-1.3-2.8c-0.4-0.9-0.8-1.7-1.1-2.6c-0.1-0.4-0.3-0.9-0.4-1.3c-0.2-0.5-0.3-1-0.5-1.5c-0.5-2-0.9-3.8-1.1-5.7
	c0,0,0,0,0-0.1c-0.3-1.8-0.4-3.7-0.5-5.7c0-1.1,0.1-2.1,0.2-3.1c0.1-0.9,0.1-1.8,0.2-2.7l0.2-0.9c0.1-0.6,0.2-1.3,0.3-1.9
	c0.2-0.6,0.3-1.3,0.5-1.9l0.2-0.9c0.7-2,1.4-3.8,2.2-5.6c0.8-1.8,1.7-3.5,2.7-5.3c0.3-0.4,0.6-0.9,0.9-1.3c0.2-0.3,0.4-0.6,0.5-0.9
	h0c1.3-1.9,2.7-3.8,4.2-5.6c4.1-4.5,8.3-8.2,13.2-11.8c3.3-2.2,6.5-4.2,10-6.1c6.4-3.2,12.7-5.7,19.5-7.9c5.9-1.6,11.7-2.9,17.7-3.9
	c4.3-0.5,8.6-0.9,12.9-1.2l0,11.5c-0.9,0-1.8,0.1-2.7,0.1c-11.2,1-21.4,3.1-32,7l-6.9,2.9c-8.1,4-14.8,8.5-21.2,14.8L80,88.1h0.1
	c-0.4,0.4-0.8,0.9-1.2,1.3l-0.7,0.8c-2.7,3.2-5,6.6-6.7,10.6c-1.3,3-2.1,6.2-2.4,9.8c-0.2,3.4,0.1,6.4,0.9,9.4c0,0,0,0,0,0
	c0,0,0,0,0,0c1.1,3.9,2.7,7.3,5,10.7l0.6,0.9c0.6,0.9,1.3,1.7,1.9,2.6c3,3.5,6.1,6.5,9.6,9.1c4,3.1,8.2,5.6,12.7,7.9
	c2.4,1.2,4.8,2.3,7.3,3.3l4.8,1.8c0.4,0.1,0.8,0.2,1.1,0.4c0,0,0.1,0,0.1,0C119,158.6,124.8,159.9,130.7,160.9z M149.2,185.2
	c56.8,0,103.2-32.6,103.2-72.6c0-40-46.3-72.6-103.2-72.6C92.4,40,46.1,72.6,46.1,112.6C46.1,152.6,92.4,185.2,149.2,185.2z"/>
<path class="st3" d="M205.7,213.1l4.4-14.2h0.1l-0.1,14.2H205.7 M209.6,193.5l-10.5,27.9h3.6l1.9-5.4h5.6l0.2,5.4h3.7l-1.6-27.9
	H209.6z M197.4,193.5l-3.3,20c-0.1,1.1-0.3,2-0.5,2.7c-0.2,0.7-0.5,1.1-1,1.5c-0.4,0.3-0.9,0.4-1.6,0.5c-0.9-0.1-1.7-0.4-2.4-0.9
	l-0.6,3.7c0.7,0.5,1.7,0.7,3.1,0.7c1.8,0,3.2-0.5,4.2-1.5c1.2-1.1,2-3.1,2.4-5.9l3.3-21H197.4z M189.8,193.5h-3.7l-4.4,27.9h3.7
	L189.8,193.5z M170.8,193.5l-0.4,3.2h7.5l-12.4,24.7h12.9l0.5-3.3h-8l12.3-24.7H170.8z M156.3,213.1l4.4-14.2h0.1l-0.1,14.2H156.3z
	 M160.2,193.5l-10.5,27.9h3.6l1.9-5.4h5.6l0.2,5.4h3.7l-1.6-27.9H160.2z M134.3,221.4h3.7c0.4-2.5,0.8-5,1.2-7.4
	c0.3-2.4,0.7-4.8,0.9-7.2c0.3-2.4,0.4-4.7,0.6-7l0.1-0.1l3.1,21.6h3.5l4.4-27.9h-3.7c-0.4,2.5-0.8,4.7-1,6.5
	c-0.3,1.9-0.4,3.4-0.6,4.8c-0.1,1.4-0.3,2.8-0.4,4.2c-0.1,1.4-0.2,3.3-0.4,5.6l-0.1,0.1l-3.3-21.2h-3.5L134.3,221.4z M118.8,193.5
	l-6.7,27.9h3.6l4.1-19.3h0.1c0,0.3,0,1.4,0.1,3.5c0.1,2,0.1,4.1,0.2,6.2c0,2.1,0.1,3.7,0.1,4.7c0,1.1,0.1,2.7,0.1,4.9h2.5
	c0.6-1.6,1.1-3.1,1.6-4.6c0.5-1.4,1.1-3.1,1.8-5.3c0.7-2.1,1.4-3.9,1.9-5.3c0.5-1.4,0.9-2.9,1.3-4.1h0.1c-0.2,1.3-0.4,2.7-0.6,4.3
	c-0.2,1.6-0.3,2.9-0.4,4.1c-0.1,1.2-0.4,3.2-0.6,6.1c-0.3,2.9-0.4,4.4-0.5,4.7h3.6l1.8-27.9h-3.3c-3.1,8.8-5.4,15.5-6.8,20.1h0
	l-0.8-20.1H118.8z M113.3,193.5h-3.7l-4.4,27.9h3.7L113.3,193.5z M97,206.7l-0.5,3.2h3.1c-0.1,0.5-0.2,1.2-0.3,2.2
	c-0.2,1-0.4,2-0.7,2.9c-0.3,0.9-0.7,1.7-1.3,2.3c-0.6,0.7-1.2,1-2,1c-0.5,0-0.9-0.1-1.2-0.3c-0.3-0.1-0.6-0.4-0.7-0.9
	c-0.2-0.5-0.3-1.1-0.4-2.1c0-1.1,0.1-2.4,0.2-3.9c0.1-1.6,0.4-3.2,0.6-4.9c0.3-1.7,0.6-3.2,0.9-4.4c0.3-1.3,0.6-2.2,0.9-2.9
	c0.3-0.8,0.8-1.4,1.4-1.8c0.6-0.4,1.2-0.7,1.7-0.7c0.8,0,1.4,0.3,1.9,0.9c0.4,0.6,0.7,1.6,0.7,2.8l3.9-1.4c-0.2-2-0.8-3.4-1.7-4.4
	c-0.9-0.9-2.3-1.4-3.9-1.4c-1.4,0-2.5,0.2-3.5,0.7c-1,0.4-1.9,1.1-2.6,2.1c-0.7,1-1.4,2.4-1.9,4c-0.6,1.7-1.1,3.8-1.5,6.3
	c-0.6,3-0.9,5.7-0.9,8.2c0,1.7,0.2,3,0.6,4.1c0.4,1.1,1,1.9,1.9,2.4c0.9,0.6,2,0.8,3.4,0.8c1.3,0,2.4-0.3,3.3-0.8
	c1-0.5,1.8-1.2,2.4-2.2c0.6-0.9,1.2-2.1,1.6-3.4c0.4-1.3,0.8-2.9,1.1-4.6l0.6-4.1H97z"/>
</svg>
