<?xml version="1.0" encoding="utf-8"?>
<!-- Generator: Adobe Illustrator 19.2.1, SVG Export Plug-In . SVG Version: 6.00 Build 0)  -->
<svg version="1.1" id="Layer_1" xmlns="http://www.w3.org/2000/svg" xmlns:xlink="http://www.w3.org/1999/xlink" x="0px" y="0px"
	 viewBox="0 0 300 300" style="enable-background:new 0 0 300 300;" xml:space="preserve">
<style type="text/css">
	.st0{fill-rule:evenodd;clip-rule:evenodd;fill:#EC1164;}
	.st1{fill-rule:evenodd;clip-rule:evenodd;fill:#FFFFFF;}
	.st2{fill-rule:evenodd;clip-rule:evenodd;fill:#000002;}
</style>
<rect class="st0" width="300" height="300"/>
<path class="st1" d="M149.8,40.8c56.5,0,102.5,32.3,102.5,71.9c0,39.6-46.1,71.9-102.5,71.9c-56.5,0-102.5-32.3-102.5-71.9
	C47.2,73.1,93.3,40.8,149.8,40.8"/>
<path class="st2" d="M278.3,243.3l1.5-9.3c1.1,0,1.9,0.2,2.4,0.5c0.5,0.3,0.8,1,0.8,2.2c0,1.8-0.3,3.4-1,4.7
	C281.1,242.7,279.9,243.3,278.3,243.3 M272,259h3.7l2.2-13.8h0.1l2.9,13.8h3.9l-3.1-13.7c1.2-0.1,2.2-0.7,3-1.8
	c0.8-1,1.3-2.2,1.6-3.6c0.3-1.4,0.5-2.7,0.5-4c0-1.8-0.4-3-1.2-3.8c-0.9-0.8-2.2-1.2-4-1.2h-5.2L272,259z M263.4,230.9L259,259h10
	l0.5-3.3h-6.3l1.5-9.6h5.7l0.5-3.2h-5.7l1.5-8.9h6.3l0.5-3.2H263.4z M249,230.9l-0.5,3.2h4.4l-4,25h3.8l3.9-25h4.3l0.5-3.2H249z
	 M229.3,259h3.7c0.4-2.5,0.8-5,1.2-7.4c0.3-2.4,0.7-4.8,0.9-7.2c0.3-2.4,0.5-4.7,0.6-7l0.1-0.1l3.1,21.7h3.5l4.4-28.2h-3.8
	c-0.4,2.5-0.8,4.7-1,6.5c-0.3,1.9-0.5,3.5-0.6,4.9c-0.1,1.4-0.3,2.8-0.4,4.3c-0.1,1.5-0.2,3.4-0.4,5.6l-0.1,0.1l-3.3-21.4h-3.5
	L229.3,259z M220.7,230.9l-4.4,28.2h10l0.5-3.3h-6.3l1.5-9.6h5.7l0.5-3.2h-5.7l1.5-8.9h6.3l0.5-3.2H220.7z M217.8,231.3
	c-1-0.6-2.1-0.8-3.4-0.8c-1.1,0-2.2,0.3-3.2,0.7c-1,0.5-1.9,1-2.6,1.8c-1,0.9-1.8,2.4-2.6,4.3c-0.8,1.9-1.4,4.1-1.9,6.4
	c-0.4,2.4-0.7,4.6-0.7,6.7c0.1,2.8,0.5,4.8,1.1,6.1c0.5,0.9,1.3,1.6,2.3,2.1c1,0.6,2.1,0.8,3.3,0.8c1.3,0,2.4-0.3,3.2-0.8l0.5-3.3
	c-0.6,0.4-1.4,0.6-2.3,0.7c-1.7-0.1-2.8-0.7-3.3-1.8c-0.5-1.2-0.8-2.7-0.9-4.7c0-1.6,0.2-3.2,0.5-5c0.3-1.7,0.7-3.2,1.1-4.6
	c0.4-1.4,0.8-2.3,1.1-2.8c0.6-1,1.3-1.8,2.1-2.3c0.9-0.6,1.7-0.8,2.5-0.8c0.9,0,1.6,0.3,2.4,0.8L217.8,231.3z M194.7,230.9H191
	l-4.4,28.2h3.7L194.7,230.9z M168.8,259h3.7c0.4-2.5,0.8-5,1.2-7.4c0.3-2.4,0.7-4.8,0.9-7.2c0.3-2.4,0.5-4.7,0.6-7l0.1-0.1l3.1,21.7
	h3.5l4.4-28.2h-3.8c-0.4,2.5-0.8,4.7-1,6.5c-0.3,1.9-0.5,3.5-0.6,4.9c-0.1,1.4-0.3,2.8-0.4,4.3c-0.1,1.5-0.2,3.4-0.4,5.6l-0.1,0.1
	l-3.3-21.4h-3.5L168.8,259z M161,230.9l-4.4,28.2h10.1l0.5-3.3h-6.3l3.8-24.9H161z M145.6,250.6l4.4-14.3h0.1l-0.1,14.3H145.6z
	 M149.5,230.9L138.9,259h3.7l1.9-5.5h5.6l0.2,5.5h3.8l-1.6-28.2H149.5z M131.4,259h3l10-28.2h-3.5c-0.3,0.8-0.7,2.4-1.5,4.6
	c-0.8,2.3-1.5,4.4-2.1,6.3c-0.6,1.9-1.2,3.7-1.8,5.4c-0.5,1.7-1,3.3-1.4,4.8H134l0.1-21.1h-3.7L131.4,259z M119.4,230.9L115,259h10
	l0.5-3.3h-6.3l1.5-9.6h5.7l0.5-3.2h-5.7l1.5-8.9h6.3l0.5-3.2H119.4z M115.7,224.5L114,223l-3.2,3.1l-2.4-3.1l-2,1.5l3.8,5.2
	L115.7,224.5z M104,230.9l-0.5,3.2h7.5l-12.5,25h13l0.5-3.3h-8l12.4-24.9H104z M89.4,250.6l4.4-14.3h0.1l-0.1,14.3H89.4z
	 M93.3,230.9L82.7,259h3.7l1.9-5.5h5.6l0.2,5.5h3.8l-1.6-28.2H93.3z M75.6,243.3L77,234c1.1,0,1.9,0.2,2.4,0.5
	c0.5,0.3,0.8,1,0.8,2.2c0,1.8-0.3,3.4-1,4.7C78.4,242.7,77.2,243.3,75.6,243.3z M69.3,259H73l2.2-13.8h0.1l2.9,13.8h3.9L79,245.3
	c1.2-0.1,2.2-0.7,3-1.8c0.8-1,1.3-2.2,1.6-3.6c0.3-1.4,0.4-2.7,0.4-4c0-1.8-0.4-3-1.2-3.8c-0.9-0.8-2.2-1.2-4-1.2h-5.2L69.3,259z
	 M59.3,246.2h0.4c2.1,0,3.1,1.1,3.1,3.2c0,0.7-0.1,1.6-0.4,2.7c-0.3,1.3-0.8,2.2-1.4,2.8c-0.7,0.6-1.7,0.9-3.2,0.9L59.3,246.2z
	 M61.2,234H62c0.7,0,1.4,0.3,1.9,0.7c0.5,0.5,0.7,1.2,0.7,2.2c0,1.7-0.4,3.2-1.2,4.4c-0.8,1.2-2,1.9-3.7,1.9L61.2,234z M58.1,230.9
	L53.7,259h4.6c1.8,0,3.4-0.4,4.9-1.2c1.5-0.9,2.5-2.5,3-5c0,0,0.1-0.5,0.2-1.3c0.1-0.9,0.2-1.6,0.2-2.2c0-2.4-1-3.9-3.1-4.5v-0.1
	c3.1-0.9,4.7-3.8,4.7-9c0-1.5-0.4-2.7-1.1-3.5c-0.7-0.9-2.2-1.3-4.4-1.3H58.1z M40.7,250.9c0.1-1.7,0.3-3.4,0.5-5.1
	c0.2-1.8,0.5-3.5,0.9-5.3c0.4-1.8,1-3.4,1.7-4.6c0.7-1.2,1.5-1.9,2.5-1.9c0.9,0,1.6,0.3,1.9,0.9c0.3,0.6,0.5,1.7,0.5,3.1
	c0,0.2,0,0.6,0,1c0,0.5,0,0.8,0,1c-0.1,1.9-0.4,4.1-0.8,6.5c-0.4,2.4-1,4.6-1.8,6.4c-0.8,1.9-1.7,2.8-2.8,2.8
	c-1.6,0-2.5-1.2-2.6-3.7C40.7,251.8,40.7,251.4,40.7,250.9z M36.6,251c0,0.2,0,0.6,0,1c0,1.3,0.2,2.5,0.6,3.7c0.4,1.1,1,2,1.8,2.7
	c0.9,0.7,1.9,1,3.2,1c1.8,0,3.3-0.6,4.6-1.6c1.3-1.1,2.3-2.6,3.1-4.5c0.8-1.9,1.4-4.1,1.8-6.5c0.4-2.5,0.7-5.2,0.9-8.1
	c0-0.1,0-0.2,0-0.4c0-0.2,0-0.3,0-0.4c0-2-0.4-3.7-1.3-5.1c-0.9-1.4-2.3-2.1-4.3-2.1c-0.8,0-1.5,0-1.9,0.2c-2.1,0.4-3.7,1.8-4.9,4.1
	c-1.2,2.3-2,4.7-2.5,7.4C37.4,244.7,36.9,247.7,36.6,251z M24.9,230.9l-0.5,3.2H32l-12.5,25h13l0.5-3.3h-8l12.4-24.9H24.9z
	 M21,230.9h-3.7L12.8,259h3.7L21,230.9z M250.5,193.3h-3.7l-4.4,28.2h3.7L250.5,193.3z M232.5,207l2.1-13.7h-3.7l-4.4,28.2h3.7
	L232.5,207z M232.6,207l3,14.5h4.3l-3.7-14.5l7.7-13.6H240L232.6,207z M227.6,186.9l-1.7-1.5l-3.2,3.1l-2.4-3.1l-2,1.5l3.8,5.2
	L227.6,186.9z M213.3,216.7l-0.6,3.8c0.9,0.9,2.2,1.3,3.8,1.3c1.6,0,3-0.4,4.2-1.3c1.2-0.9,2.2-2,2.8-3.4c0.6-1.4,1-2.9,1-4.4
	c0-1.2-0.3-2.4-0.8-3.4c-0.5-1-1.3-2.2-2.3-3.5c-1-1.3-1.7-2.3-2.1-3c-0.4-0.7-0.6-1.5-0.6-2.3c0.2-1.3,0.7-2.2,1.5-3
	c0.7-0.7,1.6-1,2.5-1c1.2,0,2.2,0.4,3,1.2l0.6-3.8c-1.2-0.6-2.5-1-3.8-1c-1.4,0-2.7,0.4-3.8,1.1c-1.2,0.7-2.1,1.8-2.8,3.1
	c-0.7,1.3-1,2.9-1,4.6c0,1.3,0.3,2.4,0.7,3.3c0.5,0.9,1.2,1.9,2.2,3c1,1.1,1.7,2.1,2.2,2.9c0.5,0.8,0.7,1.8,0.7,2.9
	c0,1.2-0.4,2.3-1.2,3.1c-0.7,0.9-1.7,1.3-2.8,1.3C215.6,218.1,214.4,217.6,213.3,216.7z M213.1,193.3h-3.7l-4.4,28.2h3.7
	L213.1,193.3z M187.3,221.4h3.7c0.4-2.5,0.8-5,1.2-7.4c0.3-2.4,0.7-4.8,0.9-7.2c0.3-2.4,0.5-4.7,0.6-7l0.1-0.1l3.1,21.7h3.5
	l4.4-28.2H201c-0.4,2.5-0.8,4.7-1,6.5c-0.3,1.9-0.5,3.5-0.6,4.9c-0.1,1.4-0.3,2.8-0.4,4.3c-0.1,1.5-0.2,3.4-0.4,5.6l-0.1,0.1
	l-3.3-21.4h-3.5L187.3,221.4z M177.3,193.3l-0.5,3.2h4.4l-4,25h3.8l3.9-25h4.3l0.5-3.2H177.3z M166.7,193.3l-4.4,28.2h10l0.5-3.3
	h-6.3l1.5-9.6h5.7l0.5-3.2h-5.7l1.5-8.9h6.3l0.5-3.2H166.7z M158.4,193.3l-3.3,20.2c-0.2,1.2-0.3,2.1-0.5,2.7
	c-0.2,0.7-0.5,1.2-1,1.5c-0.4,0.3-0.9,0.4-1.6,0.5c-0.9-0.1-1.7-0.4-2.4-0.9L149,221c0.7,0.5,1.8,0.8,3.1,0.8c1.8,0,3.2-0.5,4.2-1.5
	c1.2-1.2,2-3.1,2.4-5.9l3.4-21.1H158.4z M141.2,196.4c1.6,0,2.8,0.5,3.5,1.5c0.8,1,1.2,2.2,1.2,3.7c0,1.1-0.1,2.5-0.3,4.1
	c-0.2,1.6-0.5,3.2-0.7,4.6c-0.3,1.5-0.6,2.6-0.8,3.2c-1,3.2-3.1,4.7-6.4,4.7L141.2,196.4z M137.9,193.3l-4.4,28.2h3.1
	c1.8,0,3.5-0.2,5.1-0.6c1.5-0.3,2.8-1.2,3.8-2.4c1-1.3,1.8-2.9,2.4-4.9c0.6-2,1.1-4.1,1.4-6.3c0.3-2.1,0.5-4.1,0.5-6v-0.9
	c-0.3-4.7-2.3-7.1-6-7.1H137.9z M120.5,213.3c0.1-1.7,0.3-3.4,0.5-5.1c0.2-1.8,0.5-3.5,0.9-5.3c0.4-1.8,1-3.4,1.7-4.6
	c0.7-1.2,1.5-1.9,2.5-1.9c0.9,0,1.6,0.3,1.9,0.9c0.3,0.6,0.5,1.7,0.5,3.1c0,0.2,0,0.6,0,1c0,0.5,0,0.8,0,1c-0.2,1.9-0.4,4.1-0.8,6.5
	c-0.4,2.4-1,4.6-1.8,6.4c-0.8,1.9-1.7,2.8-2.8,2.8c-1.6,0-2.5-1.2-2.6-3.7C120.5,214.2,120.5,213.8,120.5,213.3z M116.4,213.4
	c0,0.2,0,0.6,0,1c0,1.3,0.2,2.5,0.6,3.7c0.4,1.1,1,2,1.8,2.7c0.9,0.7,1.9,1.1,3.2,1.1c1.8,0,3.3-0.6,4.6-1.6
	c1.3-1.1,2.3-2.6,3.1-4.5c0.8-1.9,1.4-4.1,1.8-6.5c0.4-2.5,0.7-5.2,0.9-8.1c0-0.1,0-0.2,0-0.4c0-0.2,0-0.3,0-0.4
	c0-2-0.4-3.7-1.3-5.1c-0.9-1.4-2.3-2.1-4.3-2.1c-0.8,0-1.5,0-1.9,0.2c-2.1,0.4-3.7,1.8-4.9,4.1c-1.2,2.3-2,4.7-2.5,7.4
	C117.1,207.2,116.7,210.1,116.4,213.4z M107.3,205.7l1.5-9.3c1.2,0,2.1,0.3,2.7,0.7c0.6,0.5,0.8,1.3,0.8,2.5c0,0.3,0,0.9-0.2,1.7
	c-0.3,1.6-0.7,2.7-1.5,3.4C109.9,205.4,108.8,205.7,107.3,205.7z M101.1,221.4h3.7l2-12.5c1.7,0,3.2-0.2,4.5-0.7
	c1.3-0.5,2.3-1.3,3.2-2.5c0.9-1.2,1.4-3,1.8-5.2c0.1-0.9,0.1-1.6,0.1-2.1c0-1.2-0.2-2.2-0.6-3c-0.4-0.7-1-1.3-1.9-1.6
	c-0.9-0.3-2-0.5-3.3-0.5h-5L101.1,221.4z M91.4,196.4c1.6,0,2.8,0.5,3.5,1.5c0.8,1,1.2,2.2,1.2,3.7c0,1.1-0.1,2.5-0.3,4.1
	c-0.2,1.6-0.5,3.2-0.7,4.6c-0.3,1.5-0.6,2.6-0.8,3.2c-1,3.2-3.1,4.7-6.4,4.7L91.4,196.4z M88.1,193.3l-4.4,28.2h3.1
	c1.8,0,3.5-0.2,5.1-0.6c1.5-0.3,2.8-1.2,3.8-2.4c1-1.3,1.8-2.9,2.4-4.9c0.6-2,1.1-4.1,1.4-6.3c0.3-2.1,0.4-4.1,0.4-6v-0.9
	c-0.3-4.7-2.3-7.1-6-7.1H88.1z M75.1,193.3l-4.4,28.2h10.1l0.5-3.3H75l1.5-9.6h5.7l0.5-3.2h-5.7l1.5-8.9h6.3l0.5-3.2H75.1z
	 M55.1,193.3l-6.8,28.2h3.6L56,202h0.1c0,0.3,0,1.5,0.1,3.5c0.1,2.1,0.1,4.1,0.2,6.2c0,2.1,0.1,3.7,0.2,4.8c0,1.1,0.1,2.8,0.1,4.9
	h2.5c0.6-1.6,1.1-3.2,1.6-4.6c0.5-1.4,1.1-3.2,1.8-5.3c0.7-2.1,1.4-3.9,1.9-5.3c0.5-1.5,0.9-2.9,1.3-4.2H66
	c-0.2,1.3-0.4,2.8-0.6,4.3c-0.2,1.6-0.3,3-0.5,4.2c-0.2,1.2-0.4,3.3-0.6,6.1c-0.3,2.9-0.4,4.4-0.5,4.8h3.7l1.8-28.2H66
	c-3.2,8.9-5.5,15.6-6.9,20.3h0l-0.8-20.3H55.1z"/>
<path class="st2" d="M94.9,174c-6.7-3-12.9-6.4-18.5-10.4V96.2c0-5.1,4.2-9.2,9.2-9.2c5.1,0,9.2,4.2,9.2,9.2h0V174"/>
<path class="st2" d="M125.8,183c-6.4-1.1-12.6-2.5-18.5-4.4V96.2c0-5.1,4.2-9.2,9.2-9.2c5.1,0,9.2,4.2,9.2,9.2h0V183"/>
<path class="st2" d="M162.2,54c7.8,0,14.1,6.3,14.1,14.1c0,7.8-6.3,14.1-14.1,14.1c-7.8,0-14.1-6.3-14.1-14.1
	C148.1,60.3,154.4,54,162.2,54 M149.4,40c56.7,0,103,32.6,103,72.5c0,21.8-13.8,41.4-35.6,54.7c-9.4-5.2-16.9-14-20.3-25.1
	c-6.8-22.6,6.1-46.6,28.7-53.4l-3.6-11.8c-29.1,8.7-45.7,39.6-37,68.8c3.5,11.6,10.5,21.3,19.6,28.1c-11,4.9-23.3,8.4-36.5,10V96.3
	h-12.3v88.6c-2,0.1-4,0.1-6,0.1c-3.8,0-7.5-0.2-11.2-0.4V96.2c0-11.9-9.7-21.6-21.6-21.6c-6,0-11.5,2.5-15.4,6.5
	c-3.9-4-9.4-6.5-15.4-6.5c-11.9,0-21.6,9.7-21.6,21.6h0V153c-11.2-11.6-17.7-25.5-17.7-40.5C46.4,72.6,92.7,40,149.4,40z"/>
</svg>
