<?xml version="1.0" encoding="UTF-8" standalone="no"?>
<svg
   xmlns:dc="http://purl.org/dc/elements/1.1/"
   xmlns:cc="http://creativecommons.org/ns#"
   xmlns:rdf="http://www.w3.org/1999/02/22-rdf-syntax-ns#"
   xmlns:svg="http://www.w3.org/2000/svg"
   xmlns="http://www.w3.org/2000/svg"
   viewBox="0 0 755.90546 755.90546"
   height="755.90546"
   width="755.90546"
   xml:space="preserve"
   id="svg2"
   version="1.1"><metadata
     id="metadata8"><rdf:RDF><cc:Work
         rdf:about=""><dc:format>image/svg+xml</dc:format><dc:type
           rdf:resource="http://purl.org/dc/dcmitype/StillImage" /></cc:Work></rdf:RDF></metadata><defs
     id="defs6" /><g
     transform="matrix(1.3333333,0,0,-1.3333333,0,755.90547)"
     id="g10"><path
       id="path12"
       style="fill:#ee3338;fill-opacity:1;fill-rule:evenodd;stroke:#f58735;stroke-width:0.56690001;stroke-linecap:butt;stroke-linejoin:miter;stroke-miterlimit:22.92558479;stroke-dasharray:none;stroke-opacity:1"
       d="m 282.4245,320.5043 c 38.3843,0 69.6924,31.3081 69.6924,69.6926 0,38.3845 -31.3081,69.6926 -69.6924,69.6926 -38.3845,0 -69.6928,-31.3081 -69.6928,-69.6926 0,-38.3845 31.3083,-69.6926 69.6928,-69.6926 z" /><path
       id="path14"
       style="fill:#a9d046;fill-opacity:1;fill-rule:evenodd;stroke:none"
       d="M 0,0 H 566.9291 V 566.9291 H 0 Z" /><path
       id="path16"
       style="fill:#ffffff;fill-opacity:1;fill-rule:evenodd;stroke:none"
       d="m 126.8161,307.9471 c -0.001,-0.0326 -0.003,-0.0691 -0.004,-0.1032 8.2058,-8.1224 17.0499,-14.9703 26.5397,-20.5398 l 0.0811,0.2792 c 0.2607,-0.1638 0.5272,-0.3248 0.7894,-0.4876 0.7483,-0.464 1.4995,-0.9226 2.2572,-1.377 0.2654,-0.1605 0.5315,-0.3172 0.7985,-0.4771 0.8989,-0.5346 1.806,-1.0653 2.7188,-1.5894 0.0538,-0.0306 0.1074,-0.0604 0.1604,-0.0907 1.6075,-0.917 3.2326,-1.817 4.8798,-2.6994 0.0287,-0.0156 0.0562,-0.0298 0.0854,-0.0462 1.0219,-0.546 2.052,-1.0874 3.0897,-1.6192 0.159,-0.0816 0.3172,-0.1641 0.4754,-0.2455 1.099,-0.5601 2.2059,-1.112 3.3225,-1.6574 0.0643,-0.0312 0.1292,-0.0629 0.1947,-0.0955 1.101,-0.5349 2.2096,-1.0627 3.3259,-1.5843 0.2242,-0.1049 0.451,-0.2083 0.6764,-0.3135 0.9518,-0.4402 1.9068,-0.8753 2.8715,-1.3022 0.7086,-0.3161 1.4167,-0.6288 2.1313,-0.9383 0.5862,-0.2529 1.179,-0.5023 1.7694,-0.7526 0.6747,-0.284 1.3538,-0.5672 2.035,-0.8464 0.7943,-0.3263 1.5939,-0.6469 2.3961,-0.9658 0.5134,-0.2027 1.0245,-0.4079 1.5392,-0.6063 0.9108,-0.3552 1.8281,-0.7016 2.7465,-1.0457 0.4303,-0.1616 0.8626,-0.3226 1.2955,-0.4813 0.7577,-0.279 1.5196,-0.5542 2.2836,-0.8258 0.7112,-0.2514 1.4244,-0.5031 2.1412,-0.7503 0.6996,-0.2409 1.4018,-0.4796 2.1085,-0.7143 0.6944,-0.233 1.3926,-0.4629 2.0931,-0.6897 0.6689,-0.2169 1.3399,-0.4329 2.0134,-0.6446 0.8365,-0.2631 1.6753,-0.5227 2.5175,-0.7787 0.5935,-0.1777 1.1871,-0.3557 1.7835,-0.5318 0.9474,-0.2792 1.8978,-0.5524 2.85,-0.8203 0.3773,-0.106 0.754,-0.2106 1.1327,-0.3158 1.1163,-0.3073 2.2391,-0.6077 3.3647,-0.9028 0.3294,-0.0851 0.6579,-0.1712 0.9885,-0.2554 1.201,-0.3093 2.408,-0.6095 3.6218,-0.9 0.2256,-0.0564 0.4496,-0.1114 0.6749,-0.1653 1.2385,-0.2945 2.4834,-0.5794 3.7318,-0.8555 0.4198,-0.0932 0.8374,-0.1854 1.2583,-0.2766 1.2459,-0.2699 2.4965,-0.5332 3.7528,-0.7861 0.2021,-0.0425 0.4048,-0.0799 0.6083,-0.1196 1.2373,-0.2463 2.4781,-0.4847 3.7265,-0.7129 0.392,-0.0717 0.7849,-0.1429 1.1783,-0.2118 1.1625,-0.21 2.3284,-0.4107 3.4974,-0.6029 0.3342,-0.055 0.6684,-0.1086 1.0026,-0.1638 1.2149,-0.1956 2.4336,-0.383 3.6561,-0.5624 0.3198,-0.0488 0.6407,-0.0953 0.9616,-0.1415 1.3155,-0.1871 2.6353,-0.3645 3.9617,-0.5346 0.2202,-0.0275 0.4413,-0.0578 0.6618,-0.0856 1.3638,-0.1704 2.7329,-0.33 4.1052,-0.4805 0.2942,-0.0331 0.587,-0.064 0.8804,-0.0961 1.3657,-0.1448 2.7366,-0.2798 4.11,-0.4048 0.2619,-0.0235 0.5238,-0.0459 0.7852,-0.0694 1.3433,-0.1179 2.6883,-0.2282 4.0393,-0.3277 0.262,-0.0184 0.5256,-0.0374 0.7875,-0.0558 1.3555,-0.0961 2.7142,-0.1795 4.0771,-0.2546 0.2622,-0.0147 0.523,-0.0286 0.7852,-0.0414 1.3938,-0.0748 2.7924,-0.1377 4.1947,-0.1896 0.2106,-0.009 0.4189,-0.017 0.6304,-0.0247 1.4879,-0.0521 2.9806,-0.0918 4.4773,-0.1193 0.1228,-0.002 0.2452,-0.005 0.3682,-0.008 1.6223,-0.0286 3.2485,-0.0445 4.8816,-0.0445 0,0 6e-4,0 6e-4,0 10e-4,0 10e-4,0 0.003,0 1.6299,0 3.2547,0.0159 4.8758,0.0445 0.1299,0.003 0.26,0.006 0.3878,0.008 1.4902,0.0275 2.9727,0.0672 4.453,0.1193 0.2205,0.009 0.4393,0.0159 0.659,0.0247 1.389,0.053 2.7754,0.1162 4.1568,0.1879 0.2789,0.0145 0.5567,0.0284 0.8353,0.0448 1.3417,0.074 2.679,0.1568 4.0144,0.2514 0.2807,0.0199 0.5624,0.0389 0.8417,0.0587 1.3274,0.0975 2.6464,0.205 3.9651,0.3215 0.2939,0.0263 0.587,0.0507 0.8781,0.0771 1.3315,0.1221 2.6589,0.2542 3.981,0.3943 0.3603,0.0397 0.722,0.0759 1.0826,0.1162 1.3169,0.1457 2.6282,0.2976 3.9353,0.4615 0.2798,0.0343 0.559,0.0723 0.8396,0.1077 1.275,0.165 2.545,0.3342 3.8123,0.515 0.3456,0.0502 0.6931,0.101 1.0401,0.1517 1.182,0.1746 2.3612,0.3555 3.537,0.5454 0.3892,0.0618 0.7779,0.1261 1.1656,0.1902 1.1211,0.1859 2.2388,0.3773 3.3529,0.5768 0.4283,0.0766 0.8557,0.1531 1.2838,0.2316 1.1165,0.2041 2.2306,0.4196 3.3392,0.6381 0.3759,0.0748 0.7512,0.1483 1.1256,0.2231 1.0874,0.2197 2.1728,0.4479 3.2522,0.6823 0.6472,0.1389 1.2952,0.2823 1.9398,0.4263 0.9578,0.2135 1.9131,0.4323 2.8644,0.6562 0.5519,0.1296 1.0992,0.2625 1.6475,0.396 0.9833,0.2393 1.9664,0.4819 2.9429,0.7311 0.5071,0.1293 1.0117,0.2622 1.5177,0.3943 0.9133,0.2395 1.8215,0.4825 2.7277,0.7328 0.593,0.1624 1.1824,0.3271 1.7723,0.4938 0.7716,0.2177 1.5397,0.4373 2.3034,0.6627 0.9017,0.2647 1.8017,0.5349 2.6972,0.809 0.4977,0.1534 0.9958,0.3053 1.4913,0.4615 1.0281,0.322 2.0506,0.6508 3.0685,0.9833 0.3132,0.1041 0.6253,0.2067 0.9368,0.3096 1.0395,0.3449 2.073,0.6973 3.1037,1.0536 0.3183,0.1114 0.6364,0.2234 0.955,0.3356 1.1256,0.3972 2.2461,0.8005 3.3596,1.2124 0.0241,0.009 0.0462,0.017 0.07,0.0264 14.1171,5.2228 27.2146,11.6282 39.0331,19.0281 l 0.0827,-0.2778 c 2.3415,1.3742 4.6466,2.8278 6.9095,4.3583 -0.0156,0.161 -0.0283,0.3234 -0.0445,0.4855 36.0487,24.8658 58.4716,59.4718 58.4716,97.6445 0,75.3985 -87.4485,136.8938 -194.6675,136.8938 -107.2168,0 -194.6637,-61.4953 -194.6637,-136.8938 0,-30.6445 14.4477,-58.989 38.795,-81.8453" /><path
       id="path18"
       style="fill:#231929;fill-opacity:1;fill-rule:evenodd;stroke:none"
       d="m 126.8161,307.9471 c -0.001,-0.0329 -0.003,-0.0694 -0.004,-0.1034 8.206,-8.1219 17.0499,-14.9701 26.54,-20.5396 l 0.081,0.2792 c 0.2608,-0.1638 0.527,-0.3248 0.7889,-0.4876 0.7484,-0.4637 1.4995,-0.9223 2.2578,-1.3773 0.2651,-0.1599 0.5309,-0.3172 0.7982,-0.4768 0.8992,-0.5346 1.8057,-1.0653 2.719,-1.5897 0.0539,-0.03 0.1075,-0.0603 0.1599,-0.0904 1.6081,-0.9173 3.2329,-1.8176 4.8801,-2.6994 0.029,-0.0156 0.0567,-0.0301 0.0851,-0.0459 1.0224,-0.5463 2.0523,-1.0874 3.09,-1.6195 0.1588,-0.0813 0.3172,-0.1638 0.4757,-0.2452 1.0981,-0.5607 2.2056,-1.1123 3.3222,-1.6574 0.064,-0.0317 0.1295,-0.0632 0.195,-0.0958 1.1007,-0.5349 2.2093,-1.063 3.3259,-1.5843 0.2242,-0.1049 0.4507,-0.2083 0.6761,-0.3135 0.9516,-0.4399 1.9065,-0.8751 2.8712,-1.3022 0.7089,-0.3161 1.4164,-0.629 2.1319,-0.9386 0.5859,-0.2526 1.1784,-0.5017 1.7691,-0.752 0.6749,-0.2846 1.3538,-0.5672 2.0353,-0.8467 0.7943,-0.326 1.5936,-0.6472 2.3955,-0.9658 0.5134,-0.2027 1.0248,-0.407 1.5395,-0.6066 0.9108,-0.3549 1.8281,-0.701 2.7465,-1.0457 0.43,-0.161 0.8623,-0.3223 1.2949,-0.481 0.7585,-0.279 1.5202,-0.5539 2.2842,-0.8252 0.7117,-0.2517 1.4244,-0.5034 2.141,-0.7512 0.6998,-0.2409 1.4023,-0.4793 2.1087,-0.714 0.6944,-0.2333 1.3929,-0.4626 2.0925,-0.6894 0.6698,-0.2174 1.3405,-0.4334 2.0143,-0.6449 0.8359,-0.2631 1.6747,-0.5227 2.5174,-0.7781 0.5933,-0.1783 1.1872,-0.3566 1.7833,-0.5324 0.9474,-0.2789 1.8978,-0.5527 2.85,-0.82 0.3775,-0.1063 0.7537,-0.2109 1.1324,-0.3158 1.1166,-0.3078 2.2397,-0.608 3.365,-0.9028 0.3291,-0.0854 0.6579,-0.1718 0.9882,-0.2557 1.2016,-0.309 2.4086,-0.6092 3.6221,-0.9003 0.2256,-0.0561 0.4496,-0.1111 0.6749,-0.165 1.2382,-0.2951 2.4832,-0.5794 3.7318,-0.8558 0.4193,-0.0929 0.8374,-0.1845 1.258,-0.2763 1.2464,-0.2702 2.4965,-0.5332 3.7534,-0.7864 0.2015,-0.0419 0.4048,-0.0799 0.608,-0.1193 1.2371,-0.2461 2.4778,-0.4847 3.7267,-0.7129 0.3918,-0.0717 0.7849,-0.1429 1.1778,-0.2121 1.1625,-0.2097 2.329,-0.4101 3.4977,-0.6029 0.3342,-0.055 0.6681,-0.1088 1.0023,-0.1638 1.2147,-0.1953 2.4336,-0.3824 3.6564,-0.5621 0.3195,-0.0485 0.6407,-0.0956 0.9616,-0.1415 1.3158,-0.1874 2.6353,-0.3642 3.9617,-0.5346 0.2199,-0.0275 0.4413,-0.0578 0.6616,-0.085 1.3643,-0.1704 2.7334,-0.3306 4.1057,-0.4811 0.2936,-0.0329 0.5867,-0.064 0.8804,-0.0958 1.3654,-0.1454 2.736,-0.2803 4.1094,-0.4048 0.2622,-0.0238 0.5244,-0.0459 0.7852,-0.0697 1.3428,-0.1176 2.6889,-0.2279 4.0399,-0.3274 0.2619,-0.0184 0.5253,-0.038 0.7878,-0.0564 1.3549,-0.0955 2.7136,-0.1795 4.0765,-0.2543 0.2619,-0.0144 0.5227,-0.0286 0.7846,-0.0417 1.3944,-0.0751 2.793,-0.1377 4.195,-0.189 0.2109,-0.009 0.4192,-0.017 0.6301,-0.0247 1.4888,-0.0524 2.9812,-0.0915 4.4779,-0.1193 0.123,-0.002 0.2449,-0.005 0.3682,-0.008 1.6223,-0.0289 3.2483,-0.0442 4.881,-0.0442 0,0 0.002,0 0.002,0 10e-4,0 10e-4,0 0.003,0 1.6302,0 3.255,0.0153 4.8761,0.0442 0.1296,0.003 0.2594,0.006 0.3878,0.008 1.4899,0.0278 2.9721,0.0669 4.453,0.1193 0.2202,0.009 0.4388,0.0159 0.659,0.0247 1.389,0.0524 2.7754,0.1156 4.1565,0.1873 0.2792,0.0148 0.557,0.029 0.835,0.0448 1.3417,0.0746 2.6796,0.1574 4.0147,0.2515 0.2807,0.0198 0.5622,0.0394 0.8417,0.0592 1.3274,0.097 2.6467,0.2044 3.9653,0.3209 0.2934,0.0261 0.5868,0.051 0.8776,0.0774 1.3318,0.1219 2.6592,0.2542 3.9813,0.3946 0.3603,0.0394 0.722,0.0756 1.0826,0.1165 1.3169,0.1454 2.6285,0.2976 3.9347,0.4614 0.2807,0.0338 0.5599,0.0718 0.8402,0.1072 1.275,0.165 2.545,0.3342 3.812,0.515 0.3459,0.0499 0.6931,0.101 1.0406,0.152 1.1818,0.1743 2.3613,0.3552 3.5368,0.5451 0.3892,0.0618 0.7781,0.1258 1.1662,0.1902 1.1205,0.1859 2.2382,0.3773 3.352,0.5763 0.4286,0.0776 0.8558,0.1533 1.2844,0.2321 1.1165,0.2044 2.2303,0.4193 3.3389,0.6381 0.3761,0.0748 0.7509,0.1483 1.1256,0.2228 1.0874,0.22 2.1725,0.4482 3.2525,0.6826 0.6471,0.1392 1.2946,0.282 1.9395,0.426 0.9578,0.2138 1.9131,0.4323 2.8647,0.6565 0.5516,0.1299 1.0992,0.2623 1.6469,0.396 0.9839,0.2396 1.9669,0.4822 2.9432,0.7308 0.5071,0.1298 1.0117,0.2625 1.5174,0.3946 0.9133,0.2398 1.8215,0.4822 2.7283,0.7325 0.5922,0.1627 1.1824,0.3277 1.7717,0.4941 0.7719,0.2177 1.54,0.4379 2.3037,0.663 0.9017,0.2647 1.802,0.5346 2.6972,0.8087 0.4977,0.1534 0.9955,0.305 1.4913,0.4612 1.0284,0.3223 2.0506,0.6514 3.0685,0.9839 0.3135,0.1038 0.6253,0.2061 0.9374,0.3095 1.0389,0.3447 2.0727,0.6971 3.1031,1.0537 0.3183,0.1111 0.6366,0.2228 0.955,0.3353 1.1256,0.3972 2.2461,0.8008 3.3599,1.2121 0.0235,0.009 0.0459,0.017 0.0694,0.0264 14.1174,5.2234 27.2149,11.6285 39.0334,19.0284 l 0.0827,-0.2778 c 2.3417,1.3745 4.6469,2.8278 6.9101,4.3585 -0.0159,0.1613 -0.0289,0.3238 -0.0448,0.4851 36.0482,24.866 58.4711,59.472 58.4711,97.6444 0,75.3988 -87.4483,136.8941 -194.6668,136.8941 -107.2173,0 -194.6642,-61.4953 -194.6642,-136.8941 0,-30.6442 14.4477,-58.9887 38.795,-81.845" /><path
       id="path20"
       style="fill:#231929;fill-opacity:1;fill-rule:nonzero;stroke:none"
       d="m 29.2581,192.7848 -1.1702,-7.4605 c 0.9142,-0.8413 2.0112,-1.4751 3.2792,-1.9139 1.2554,-0.4267 2.6818,-0.6461 4.2545,-0.6461 1.5358,0 2.9866,0.2073 4.3398,0.6095 1.3652,0.4144 2.6453,1.0361 3.852,1.8774 1.207,0.841 2.2675,1.8286 3.1819,2.9378 0.9142,1.1217 1.6824,2.365 2.304,3.7182 0.6216,1.3896 1.097,2.8159 1.4139,4.2667 0.3294,1.4627 0.4879,2.9378 0.4879,4.4371 0,1.207 -0.1219,2.3774 -0.3782,3.4988 -0.2559,1.1339 -0.646,2.2065 -1.1579,3.2304 -0.4754,0.9875 -1.0973,2.0602 -1.8408,3.2306 -0.7558,1.158 -1.6336,2.4015 -2.621,3.7179 -1.9749,2.5603 -3.3644,4.5349 -4.1692,5.9247 -0.4022,0.6948 -0.7069,1.4142 -0.9263,2.1456 -0.2072,0.7435 -0.3169,1.5117 -0.3169,2.3161 0.2194,1.2436 0.5607,2.3406 1.0482,3.3035 0.4754,0.9633 1.0729,1.7799 1.8043,2.475 0.7313,0.6947 1.5117,1.2067 2.3527,1.548 0.8289,0.3413 1.7068,0.4997 2.6209,0.4997 2.2675,0 4.2424,-0.8044 5.9247,-2.4137 l 1.2433,7.5339 c -1.1701,0.6217 -2.3771,1.0971 -3.6082,1.414 -1.2436,0.3291 -2.499,0.4878 -3.7792,0.4878 -1.3532,0 -2.6574,-0.1831 -3.901,-0.5366 -1.2555,-0.3657 -2.4625,-0.8898 -3.6326,-1.5846 -1.1339,-0.7316 -2.1577,-1.6092 -3.0722,-2.6212 -0.9142,-1.0116 -1.7186,-2.1699 -2.4137,-3.4497 -0.6948,-1.3167 -1.2067,-2.7184 -1.548,-4.218 -0.3294,-1.4995 -0.5,-3.0963 -0.5,-4.7786 0,-1.2801 0.1219,-2.4503 0.3781,-3.5232 0.2438,-1.0848 0.6095,-2.0721 1.0848,-2.9866 0.4754,-0.9142 1.0727,-1.8652 1.8043,-2.8525 0.7191,-0.9876 1.5602,-2.0114 2.5112,-3.0719 0.9507,-1.0973 1.7921,-2.1212 2.5112,-3.0722 0.7314,-0.9507 1.3289,-1.8286 1.8043,-2.6331 0.4753,-0.8045 0.8288,-1.6823 1.0482,-2.6331 0.2316,-0.951 0.3413,-1.9749 0.3413,-3.0719 -0.0365,-1.207 -0.256,-2.3284 -0.6338,-3.3525 -0.3901,-1.0239 -0.9386,-1.9505 -1.6336,-2.7916 -0.7314,-0.841 -1.548,-1.4629 -2.4625,-1.8896 -0.9141,-0.4144 -1.9261,-0.6338 -3.0231,-0.6704 -1.207,0.0732 -2.3772,0.3657 -3.511,0.8655 -1.1336,0.5119 -2.2309,1.2191 -3.2913,2.1333 z m 27.8674,58.3682 -3.2913,2.8525 -6.2904,-6.1441 -4.7543,6.1441 -3.9498,-2.8525 7.3874,-10.167 z" /><path
       id="path22"
       style="fill:#231929;fill-opacity:1;fill-rule:nonzero;stroke:none"
       d="m 56.5404,199.2214 c -0.0366,-0.2194 -0.0487,-0.4997 -0.0609,-0.8288 -0.0122,-0.3294 -0.0122,-0.7072 -0.0122,-1.146 0,-1.2802 0.0975,-2.5235 0.2803,-3.7183 0.195,-1.2067 0.4876,-2.3527 0.8898,-3.4497 0.3657,-1.0973 0.8411,-2.0846 1.4386,-2.9622 0.5973,-0.8779 1.3042,-1.6458 2.1455,-2.304 0.8411,-0.6951 1.7796,-1.207 2.816,-1.5483 1.036,-0.3291 2.1943,-0.4998 3.4741,-0.4998 1.7555,0 3.3891,0.2682 4.8887,0.8167 1.5114,0.5363 2.9012,1.3411 4.1811,2.4015 1.2435,1.0607 2.3771,2.3162 3.3891,3.7792 1.0238,1.4626 1.9139,3.1328 2.6818,4.998 0.7679,1.8652 1.4508,3.8645 2.0359,5.9857 0.5972,2.133 1.1092,4.4005 1.5482,6.8144 0.4023,2.4137 0.7558,4.9493 1.0483,7.619 0.2925,2.6575 0.5241,5.4369 0.707,8.3262 0,0.1097 0,0.2194 0,0.3535 0,0.1219 0,0.2681 0,0.451 0.0365,0.1828 0.0609,0.3535 0.0609,0.4997 0.0122,0.1463 0.0122,0.2682 0.0122,0.3779 0,1.9749 -0.2194,3.8035 -0.646,5.4737 -0.4388,1.6821 -1.0727,3.1938 -1.914,4.547 -0.8776,1.353 -2.0114,2.365 -3.4132,3.0232 -1.3898,0.6704 -3.06,0.9995 -4.998,0.9995 -0.8048,0 -1.5117,-0.0244 -2.1334,-0.061 -0.6097,-0.0487 -1.1216,-0.1218 -1.5239,-0.2315 -2.0114,-0.4389 -3.8157,-1.3165 -5.4246,-2.6453 -1.6093,-1.3164 -3.0235,-3.0963 -4.2302,-5.3272 -1.1704,-2.2309 -2.1577,-4.5349 -2.9747,-6.9242 -0.8044,-2.4015 -1.4505,-4.8883 -1.9258,-7.4851 -0.4757,-2.56 -0.9145,-5.2784 -1.3045,-8.1675 -0.3901,-2.8891 -0.7436,-5.9491 -1.0361,-9.1673 z m 7.9725,0.1463 c 0.1097,1.6458 0.2559,3.3035 0.4266,4.9859 0.1584,1.6701 0.3413,3.3525 0.5244,5.0346 0.2194,1.7189 0.4753,3.4378 0.7801,5.1812 0.3047,1.7308 0.646,3.4863 1.0482,5.2783 0.8048,3.5839 1.9018,6.5829 3.2916,8.9966 0.6948,1.2068 1.4505,2.1212 2.2553,2.7307 0.8044,0.6216 1.6577,0.9263 2.5721,0.9263 0.9142,0 1.6824,-0.1462 2.3162,-0.451 0.6338,-0.2925 1.1214,-0.7557 1.4873,-1.3773 0.3291,-0.6219 0.5851,-1.4386 0.7558,-2.4625 0.1828,-1.0241 0.2681,-2.2552 0.2681,-3.6816 0,-0.2194 0,-0.4876 -0.0122,-0.8167 0,-0.3294 -0.0244,-0.7194 -0.0609,-1.1582 -0.0366,-0.4754 -0.0488,-0.8776 -0.061,-1.2189 -0.0122,-0.3294 -0.0122,-0.6097 -0.0122,-0.8291 -0.1462,-1.9018 -0.3412,-3.9133 -0.6094,-6.0342 -0.2682,-2.1211 -0.5975,-4.352 -0.9998,-6.6926 -0.4022,-2.3771 -0.8898,-4.608 -1.4748,-6.7047 -0.5854,-2.0846 -1.268,-4.0474 -2.0359,-5.876 -0.7682,-1.8286 -1.6092,-3.206 -2.5356,-4.1204 -0.9144,-0.9264 -1.9261,-1.4018 -3.0234,-1.4383 -1.609,0 -2.8281,0.6094 -3.6692,1.8161 -0.8413,1.2192 -1.3045,3.0478 -1.3776,5.4981 0.0365,0.3291 0.0731,0.6948 0.0975,1.097 0.0366,0.4025 0.0488,0.8413 0.0488,1.3167" /><path
       id="path24"
       style="fill:#231929;fill-opacity:1;fill-rule:nonzero;stroke:none"
       d="m 98.5975,238.6454 -8.7041,-55.1497 h 19.6756 l 1.0239,6.4366 h -12.288 l 7.5337,48.7131 z" /><path
       id="path26"
       style="fill:#231929;fill-opacity:1;fill-rule:nonzero;stroke:none"
       d="m 130.5609,238.6454 -20.6994,-55.1497 h 7.168 l 3.6572,10.6789 h 11.0447 l 0.4388,-10.6789 h 7.3873 l -3.145,55.1497 z m -7.6799,-38.6926 8.7041,28.0868 h 0.1463 l -0.1463,-28.0868 z" /><path
       id="path28"
       style="fill:#231929;fill-opacity:1;fill-rule:nonzero;stroke:none"
       d="m 166.5473,238.6454 -0.8776,-6.2903 h 14.7748 l -24.4296,-48.8594 h 25.3806 l 1.0239,6.4366 h -15.7258 l 24.2836,48.7131 z" /><path
       id="path30"
       style="fill:#231929;fill-opacity:1;fill-rule:nonzero;stroke:none"
       d="m 204.5818,238.6454 -20.6995,-55.1497 h 7.168 l 3.6573,10.6789 h 11.0446 l 0.4388,-10.6789 h 7.3874 l -3.1451,55.1497 z m -7.6799,-38.6926 8.704,28.0868 h 0.1463 l -0.1463,-28.0868 z" /><path
       id="path32"
       style="fill:#231929;fill-opacity:1;fill-rule:nonzero;stroke:none"
       d="m 233.4733,192.7848 -1.1701,-7.4605 c 0.9142,-0.8413 2.0112,-1.4751 3.2791,-1.9139 1.2555,-0.4267 2.6819,-0.6461 4.2545,-0.6461 1.5358,0 2.9866,0.2073 4.3399,0.6095 1.3651,0.4144 2.6453,1.0361 3.852,1.8774 1.207,0.841 2.2674,1.8286 3.1819,2.9378 0.9141,1.1217 1.6823,2.365 2.304,3.7182 0.6216,1.3896 1.097,2.8159 1.4139,4.2667 0.3294,1.4627 0.4878,2.9378 0.4878,4.4371 0,1.207 -0.1219,2.3774 -0.3781,3.4988 -0.256,1.1339 -0.646,2.2065 -1.158,3.2304 -0.4753,0.9875 -1.0973,2.0602 -1.8408,3.2306 -0.7557,1.158 -1.6336,2.4015 -2.6209,3.7179 -1.9749,2.5603 -3.3645,4.5349 -4.1692,5.9247 -0.4022,0.6948 -0.707,1.4142 -0.9264,2.1456 -0.2072,0.7435 -0.3169,1.5117 -0.3169,2.3161 0.2194,1.2436 0.5729,2.3406 1.0483,3.3035 0.4753,0.9633 1.0729,1.7799 1.8042,2.475 0.7314,0.6947 1.5117,1.2067 2.3528,1.548 0.8288,0.3413 1.7067,0.4997 2.6209,0.4997 2.2674,0 4.2423,-0.8044 5.9247,-2.4137 l 1.2433,7.5339 c -1.1702,0.6217 -2.3772,1.0971 -3.6083,1.414 -1.2435,0.3291 -2.499,0.4878 -3.7791,0.4878 -1.3533,0 -2.6575,-0.1831 -3.9011,-0.5366 -1.2554,-0.3657 -2.4624,-0.8898 -3.6326,-1.5846 -1.1338,-0.7316 -2.1577,-1.6092 -3.0721,-2.6212 -0.9142,-1.0116 -1.7187,-2.1699 -2.4137,-3.4497 -0.6948,-1.3167 -1.2067,-2.7184 -1.548,-4.218 -0.3294,-1.4995 -0.5001,-3.0963 -0.5001,-4.7786 0,-1.2801 0.1219,-2.4503 0.3782,-3.5232 0.2437,-1.0848 0.6094,-2.0721 1.0848,-2.9866 0.4754,-0.9142 1.0726,-1.8652 1.8042,-2.8525 0.7192,-0.9876 1.5602,-2.0114 2.5113,-3.0719 0.9507,-1.0973 1.792,-2.1212 2.5112,-3.0722 0.7313,-0.9507 1.3288,-1.8286 1.8042,-2.6331 0.4754,-0.8045 0.8289,-1.6823 1.0483,-2.6331 0.2316,-0.951 0.3413,-1.9749 0.3413,-3.0719 -0.0366,-1.207 -0.256,-2.3284 -0.6339,-3.3525 -0.39,-1.0239 -0.9385,-1.9505 -1.6336,-2.7916 -0.7313,-0.841 -1.548,-1.4629 -2.4624,-1.8896 -0.9142,-0.4144 -1.9262,-0.6338 -3.0232,-0.6704 -1.207,0.0732 -2.3771,0.3657 -3.511,0.8655 -1.1335,0.5119 -2.2308,1.2191 -3.2913,2.1333" /><path
       id="path34"
       style="fill:#231929;fill-opacity:1;fill-rule:nonzero;stroke:none"
       d="m 263.1694,238.6454 -0.9511,-6.2903 h 8.7041 l -7.8993,-48.8594 h 7.4605 l 7.6799,48.8594 h 8.3384 l 0.9507,6.2903 z" /><path
       id="path36"
       style="fill:#231929;fill-opacity:1;fill-rule:nonzero;stroke:none"
       d="m 282.7715,183.4957 h 7.2411 l 4.3155,26.9898 h 0.1462 l 5.7053,-26.9898 h 7.6799 l -5.9978,26.8435 c 1.207,0.1463 2.304,0.5119 3.2916,1.1092 0.9873,0.5851 1.8652,1.4142 2.6331,2.4747 0.7679,1.0241 1.4142,2.1211 1.9383,3.3037 0.5242,1.1702 0.9508,2.4381 1.2799,3.7911 0.5853,2.7065 0.8779,5.3396 0.8779,7.8996 0,3.4376 -0.8048,5.9244 -2.4137,7.4605 -0.8414,0.7679 -1.914,1.3411 -3.2307,1.7067 -1.3164,0.3779 -2.8769,0.5607 -4.6689,0.5607 h -10.0936 z m 12.2879,30.7199 2.8528,18.2857 c 2.1212,0 3.657,-0.2925 4.608,-0.8776 1.0239,-0.5851 1.5358,-2.048 1.5358,-4.3886 0,-1.792 -0.1585,-3.4376 -0.4876,-4.9493 -0.3291,-1.5239 -0.8288,-2.9134 -1.4873,-4.1935 -0.6948,-1.2799 -1.6211,-2.2431 -2.7916,-2.9013 -1.1701,-0.646 -2.5843,-0.9754 -4.2301,-0.9754" /><path
       id="path38"
       style="fill:#231929;fill-opacity:1;fill-rule:nonzero;stroke:none"
       d="m 314.735,199.2214 c -0.0366,-0.2194 -0.0488,-0.4997 -0.061,-0.8288 -0.0122,-0.3294 -0.0122,-0.7072 -0.0122,-1.146 0,-1.2802 0.0975,-2.5235 0.2804,-3.7183 0.195,-1.2067 0.4875,-2.3527 0.8898,-3.4497 0.3656,-1.0973 0.841,-2.0846 1.4386,-2.9622 0.5972,-0.8779 1.3042,-1.6458 2.1455,-2.304 0.841,-0.6951 1.7796,-1.207 2.8159,-1.5483 1.0361,-0.3291 2.1943,-0.4998 3.4742,-0.4998 1.7555,0 3.3891,0.2682 4.8886,0.8167 1.5114,0.5363 2.9013,1.3411 4.1811,2.4015 1.2436,1.0607 2.3771,2.3162 3.3891,3.7792 1.0239,1.4626 1.914,3.1328 2.6819,4.998 0.7679,1.8652 1.4507,3.8645 2.0358,5.9857 0.5973,2.133 1.1092,4.4005 1.5483,6.8144 0.4022,2.4137 0.7557,4.9493 1.0482,7.619 0.2926,2.6575 0.5242,5.4369 0.707,8.3262 0,0.1097 0,0.2194 0,0.3535 0,0.1219 0,0.2681 0,0.451 0.0366,0.1828 0.0609,0.3535 0.0609,0.4997 0.0122,0.1463 0.0122,0.2682 0.0122,0.3779 0,1.9749 -0.2194,3.8035 -0.646,5.4737 -0.4388,1.6821 -1.0726,3.1938 -1.9139,4.547 -0.8776,1.353 -2.0115,2.365 -3.4132,3.0232 -1.3899,0.6704 -3.06,0.9995 -4.9981,0.9995 -0.8047,0 -1.5117,-0.0244 -2.1333,-0.061 -0.6098,-0.0487 -1.1217,-0.1218 -1.5239,-0.2315 -2.0115,-0.4389 -3.8158,-1.3165 -5.4247,-2.6453 -1.6092,-1.3164 -3.0234,-3.0963 -4.2301,-5.3272 -1.1705,-2.2309 -2.1578,-4.5349 -2.9747,-6.9242 -0.8045,-2.4015 -1.4505,-4.8883 -1.9259,-7.4851 -0.4756,-2.56 -0.9144,-5.2784 -1.3045,-8.1675 -0.39,-2.8891 -0.7435,-5.9491 -1.036,-9.1673 z m 7.9724,0.1463 c 0.1097,1.6458 0.256,3.3035 0.4266,4.9859 0.1585,1.6701 0.3413,3.3525 0.5244,5.0346 0.2194,1.7189 0.4754,3.4378 0.7801,5.1812 0.3047,1.7308 0.646,3.4863 1.0483,5.2783 0.8047,3.5839 1.9017,6.5829 3.2916,8.9966 0.6947,1.2068 1.4505,2.1212 2.2552,2.7307 0.8045,0.6216 1.6577,0.9263 2.5722,0.9263 0.9141,0 1.6823,-0.1462 2.3162,-0.451 0.6338,-0.2925 1.1213,-0.7557 1.4873,-1.3773 0.3291,-0.6219 0.5851,-1.4386 0.7557,-2.4625 0.1828,-1.0241 0.2682,-2.2552 0.2682,-3.6816 0,-0.2194 0,-0.4876 -0.0122,-0.8167 0,-0.3294 -0.0244,-0.7194 -0.061,-1.1582 -0.0365,-0.4754 -0.0487,-0.8776 -0.0609,-1.2189 -0.0122,-0.3294 -0.0122,-0.6097 -0.0122,-0.8291 -0.1463,-1.9018 -0.3413,-3.9133 -0.6095,-6.0342 -0.2681,-2.1211 -0.5975,-4.352 -0.9997,-6.6926 -0.4023,-2.3771 -0.8898,-4.608 -1.4749,-6.7047 -0.5854,-2.0846 -1.2679,-4.0474 -2.0358,-5.876 -0.7682,-1.8286 -1.6093,-3.206 -2.5356,-4.1204 -0.9145,-0.9264 -1.9262,-1.4018 -3.0235,-1.4383 -1.6089,0 -2.8281,0.6094 -3.6691,1.8161 -0.8414,1.2192 -1.3045,3.0478 -1.3777,5.4981 0.0366,0.3291 0.0732,0.6948 0.0975,1.097 0.0366,0.4025 0.0488,0.8413 0.0488,1.3167" /><path
       id="path40"
       style="fill:#231929;fill-opacity:1;fill-rule:nonzero;stroke:none"
       d="m 362.7896,238.6454 -6.4364,-39.5702 c -0.1462,-1.1339 -0.305,-2.1456 -0.4878,-3.0235 -0.1707,-0.8897 -0.3535,-1.6577 -0.5363,-2.3161 -0.1829,-0.6582 -0.4388,-1.2311 -0.7679,-1.7065 -0.3291,-0.4876 -0.7317,-0.8901 -1.207,-1.2192 -0.4023,-0.2559 -0.8654,-0.4632 -1.3774,-0.6216 -0.5244,-0.1585 -1.1095,-0.2926 -1.7677,-0.4023 -0.841,0.0732 -1.658,0.256 -2.4624,0.5607 -0.7926,0.2926 -1.5605,0.7192 -2.2918,1.268 l -1.0973,-7.3877 c 0.695,-0.4753 1.5604,-0.841 2.5843,-1.0848 1.0242,-0.256 2.2065,-0.3779 3.5598,-0.3779 1.792,0 3.3766,0.2438 4.7664,0.7192 1.3777,0.4632 2.5478,1.1826 3.4988,2.1334 1.2067,1.1335 2.1943,2.6696 2.9744,4.608 0.7679,1.9383 1.3411,4.2788 1.7068,7.0217 l 6.5829,41.3988 z" /><path
       id="path42"
       style="fill:#231929;fill-opacity:1;fill-rule:nonzero;stroke:none"
       d="m 370.2504,183.4957 h 7.2411 c 0.4022,2.4868 0.8044,4.9371 1.1948,7.363 0.4022,2.4137 0.7801,4.8152 1.1457,7.1923 0.3291,2.3772 0.6582,4.7421 0.9754,7.0827 0.3048,2.3527 0.5973,4.6936 0.8533,7.0341 0.2559,2.3772 0.4753,4.7056 0.6582,6.9852 0.1828,2.2796 0.3291,4.5348 0.4388,6.7657 l 0.1462,0.1463 6.1441,-42.5693 h 6.8755 l 8.704,55.1497 h -7.3873 c -0.4023,-2.4503 -0.7804,-4.7543 -1.1339,-6.8876 -0.3535,-2.1455 -0.6582,-4.1204 -0.9142,-5.9122 -0.2559,-1.8287 -0.4753,-3.5232 -0.6704,-5.1081 -0.1831,-1.5845 -0.3537,-3.0475 -0.5,-4.4007 -0.1097,-1.353 -0.2316,-2.7185 -0.3657,-4.108 -0.134,-1.3898 -0.2559,-2.804 -0.3656,-4.2302 -0.1097,-1.4263 -0.2194,-3.0721 -0.3413,-4.9127 -0.1341,-1.853 -0.2804,-3.901 -0.4632,-6.1319 l -0.1463,-0.1463 -6.4366,41.8377 h -6.9486 z" /><path
       id="path44"
       style="fill:#231929;fill-opacity:1;fill-rule:nonzero;stroke:none"
       d="m 420.7921,238.6454 h -7.2411 l -8.7041,-55.1497 h 7.2411 z" /><path
       id="path46"
       style="fill:#231929;fill-opacity:1;fill-rule:nonzero;stroke:none"
       d="m 421.304,192.7848 -1.1701,-7.4605 c 0.9142,-0.8413 2.0112,-1.4751 3.2791,-1.9139 1.2555,-0.4267 2.6819,-0.6461 4.2545,-0.6461 1.5358,0 2.9866,0.2073 4.3399,0.6095 1.3651,0.4144 2.6453,1.0361 3.852,1.8774 1.207,0.841 2.2674,1.8286 3.1819,2.9378 0.9141,1.1217 1.6823,2.365 2.304,3.7182 0.6216,1.3896 1.097,2.8159 1.4139,4.2667 0.3294,1.4627 0.4878,2.9378 0.4878,4.4371 0,1.207 -0.1219,2.3774 -0.3781,3.4988 -0.256,1.1339 -0.646,2.2065 -1.158,3.2304 -0.4753,0.9875 -1.0973,2.0602 -1.8408,3.2306 -0.7557,1.158 -1.6336,2.4015 -2.6209,3.7179 -1.9749,2.5603 -3.3644,4.5349 -4.1692,5.9247 -0.4022,0.6948 -0.707,1.4142 -0.9264,2.1456 -0.2072,0.7435 -0.3169,1.5117 -0.3169,2.3161 0.2194,1.2436 0.5607,2.3406 1.0483,3.3035 0.4753,0.9633 1.0729,1.7799 1.8042,2.475 0.7314,0.6947 1.5117,1.2067 2.3528,1.548 0.8288,0.3413 1.7067,0.4997 2.6209,0.4997 2.2674,0 4.2423,-0.8044 5.9247,-2.4137 l 1.2433,7.5339 c -1.1702,0.6217 -2.3772,1.0971 -3.6083,1.414 -1.2435,0.3291 -2.499,0.4878 -3.7791,0.4878 -1.3533,0 -2.6575,-0.1831 -3.901,-0.5366 -1.2555,-0.3657 -2.4625,-0.8898 -3.6326,-1.5846 -1.1339,-0.7316 -2.1578,-1.6092 -3.0722,-2.6212 -0.9142,-1.0116 -1.7187,-2.1699 -2.4137,-3.4497 -0.6948,-1.3167 -1.2067,-2.7184 -1.548,-4.218 -0.3294,-1.4995 -0.5001,-3.0963 -0.5001,-4.7786 0,-1.2801 0.1219,-2.4503 0.3782,-3.5232 0.2438,-1.0848 0.6094,-2.0721 1.0848,-2.9866 0.4754,-0.9142 1.0726,-1.8652 1.8042,-2.8525 0.7192,-0.9876 1.5602,-2.0114 2.5113,-3.0719 0.9507,-1.0973 1.792,-2.1212 2.5112,-3.0722 0.7313,-0.9507 1.3289,-1.8286 1.8042,-2.6331 0.4754,-0.8045 0.8289,-1.6823 1.0483,-2.6331 0.2316,-0.951 0.3413,-1.9749 0.3413,-3.0719 -0.0366,-1.207 -0.256,-2.3284 -0.6339,-3.3525 -0.39,-1.0239 -0.9385,-1.9505 -1.6336,-2.7916 -0.7313,-0.841 -1.548,-1.4629 -2.4624,-1.8896 -0.9142,-0.4144 -1.9262,-0.6338 -3.0232,-0.6704 -1.207,0.0732 -2.3771,0.3657 -3.511,0.8655 -1.1335,0.5119 -2.2308,1.2191 -3.2913,2.1333 z m 27.8674,58.3682 -3.2913,2.8525 -6.2903,-6.1441 -4.7543,6.1441 -3.9498,-2.8525 7.3874,-10.167 z" /><path
       id="path48"
       style="fill:#231929;fill-opacity:1;fill-rule:nonzero;stroke:none"
       d="m 451.0001,238.6454 -0.9511,-6.2903 h 8.7041 l -7.8993,-48.8594 h 7.4605 l 7.6799,48.8594 h 8.3384 l 0.9507,6.2903 z" /><path
       id="path50"
       style="fill:#231929;fill-opacity:1;fill-rule:nonzero;stroke:none"
       d="m 477.2582,183.4957 h 5.8513 l 19.6024,55.1497 h -6.8754 c -0.256,-0.7679 -0.6216,-1.9139 -1.1092,-3.4376 -0.5,-1.5239 -1.1217,-3.4012 -1.8896,-5.6321 -0.7682,-2.2309 -1.4873,-4.3642 -2.1577,-6.4123 -0.6707,-2.048 -1.3167,-4.0104 -1.9383,-5.8756 -0.6217,-1.8652 -1.207,-3.6938 -1.7677,-5.4615 -0.5729,-1.7796 -1.1214,-3.4986 -1.6702,-5.1443 -0.5119,-1.6824 -0.9873,-3.3035 -1.4383,-4.8762 -0.4388,-1.5727 -0.8657,-3.0963 -1.2679,-4.5592 h -0.1463 l 0.2925,41.3988 h -7.3142 z" /><path
       id="path52"
       style="fill:#231929;fill-opacity:1;fill-rule:nonzero;stroke:none"
       d="m 500.4445,199.2214 c -0.0366,-0.2194 -0.0488,-0.4997 -0.0609,-0.8288 -0.0122,-0.3294 -0.0122,-0.7072 -0.0122,-1.146 0,-1.2802 0.0975,-2.5235 0.2803,-3.7183 0.195,-1.2067 0.4876,-2.3527 0.8898,-3.4497 0.3657,-1.0973 0.8411,-2.0846 1.4386,-2.9622 0.5973,-0.8779 1.3042,-1.6458 2.1455,-2.304 0.8411,-0.6951 1.7796,-1.207 2.816,-1.5483 1.036,-0.3291 2.1943,-0.4998 3.4741,-0.4998 1.7555,0 3.3891,0.2682 4.8886,0.8167 1.5115,0.5363 2.9013,1.3411 4.1811,2.4015 1.2436,1.0607 2.3772,2.3162 3.3892,3.7792 1.0238,1.4626 1.9139,3.1328 2.6818,4.998 0.7679,1.8652 1.4508,3.8645 2.0359,5.9857 0.5972,2.133 1.1091,4.4005 1.5482,6.8144 0.4023,2.4137 0.7558,4.9493 1.0483,7.619 0.2925,2.6575 0.5241,5.4369 0.7069,8.3262 0,0.1097 0,0.2194 0,0.3535 0,0.1219 0,0.2681 0,0.451 0.0366,0.1828 0.061,0.3535 0.061,0.4997 0.0122,0.1463 0.0122,0.2682 0.0122,0.3779 0,1.9749 -0.2194,3.8035 -0.646,5.4737 -0.4388,1.6821 -1.0727,3.1938 -1.914,4.547 -0.8776,1.353 -2.0115,2.365 -3.4132,3.0232 -1.3898,0.6704 -3.06,0.9995 -4.998,0.9995 -0.8048,0 -1.5117,-0.0244 -2.1334,-0.061 -0.6097,-0.0487 -1.1217,-0.1218 -1.5239,-0.2315 -2.0115,-0.4389 -3.8157,-1.3165 -5.4247,-2.6453 -1.6092,-1.3164 -3.0234,-3.0963 -4.2301,-5.3272 -1.1704,-2.2309 -2.1577,-4.5349 -2.9747,-6.9242 -0.8044,-2.4015 -1.4505,-4.8883 -1.9258,-7.4851 -0.4757,-2.56 -0.9145,-5.2784 -1.3045,-8.1675 -0.3901,-2.8891 -0.7436,-5.9491 -1.0361,-9.1673 z m 7.9724,0.1463 c 0.1097,1.6458 0.256,3.3035 0.4267,4.9859 0.1584,1.6701 0.3413,3.3525 0.5244,5.0346 0.2194,1.7189 0.4753,3.4378 0.7801,5.1812 0.3047,1.7308 0.646,3.4863 1.0482,5.2783 0.8048,3.5839 1.9018,6.5829 3.2916,8.9966 0.6948,1.2068 1.4505,2.1212 2.2552,2.7307 0.8045,0.6216 1.6578,0.9263 2.5722,0.9263 0.9142,0 1.6824,-0.1462 2.3162,-0.451 0.6338,-0.2925 1.1214,-0.7557 1.4873,-1.3773 0.3291,-0.6219 0.5851,-1.4386 0.7558,-2.4625 0.1828,-1.0241 0.2681,-2.2552 0.2681,-3.6816 0,-0.2194 0,-0.4876 -0.0122,-0.8167 0,-0.3294 -0.0244,-0.7194 -0.0609,-1.1582 -0.0366,-0.4754 -0.0488,-0.8776 -0.061,-1.2189 -0.0122,-0.3294 -0.0122,-0.6097 -0.0122,-0.8291 -0.1462,-1.9018 -0.3413,-3.9133 -0.6094,-6.0342 -0.2682,-2.1211 -0.5976,-4.352 -0.9998,-6.6926 -0.4022,-2.3771 -0.8898,-4.608 -1.4749,-6.7047 -0.5853,-2.0846 -1.2679,-4.0474 -2.0358,-5.876 -0.7682,-1.8286 -1.6092,-3.206 -2.5356,-4.1204 -0.9144,-0.9264 -1.9261,-1.4018 -3.0234,-1.4383 -1.609,0 -2.8281,0.6094 -3.6692,1.8161 -0.8413,1.2192 -1.3045,3.0478 -1.3776,5.4981 0.0365,0.3291 0.0731,0.6948 0.0975,1.097 0.0366,0.4025 0.0487,0.8413 0.0487,1.3167" /><path
       id="path54"
       style="fill:#231929;fill-opacity:1;fill-rule:nonzero;stroke:none"
       d="m 536.2112,191.1756 -8.1921,-20.1141 3.5841,-1.0241 10.1668,19.3098 z" /><path
       id="path56"
       style="fill:#231929;fill-opacity:1;fill-rule:nonzero;stroke:none"
       d="m 159.2697,141.7484 -1.0242,-6.3635 h 6.1441 c -0.0731,-0.4753 -0.1585,-1.0607 -0.2682,-1.7676 -0.1097,-0.7192 -0.2437,-1.5605 -0.39,-2.5478 -0.366,-1.9749 -0.8048,-3.8767 -1.3167,-5.705 -0.2925,-0.9145 -0.6582,-1.7555 -1.0848,-2.5237 -0.4391,-0.7679 -0.9267,-1.4627 -1.4752,-2.0843 -0.5485,-0.6585 -1.1582,-1.1583 -1.8164,-1.4874 -0.6704,-0.3291 -1.402,-0.4875 -2.2065,-0.4875 -0.5119,0.0365 -0.9629,0.0975 -1.3652,0.1706 -0.4025,0.0853 -0.756,0.195 -1.0485,0.3413 -0.2925,0.1463 -0.5607,0.3657 -0.8167,0.6704 -0.2437,0.2925 -0.4631,0.6829 -0.6463,1.1582 -0.1828,0.4754 -0.3412,1.0483 -0.4753,1.7187 -0.1341,0.6707 -0.2194,1.4629 -0.256,2.3774 0,1.0604 0.0366,2.2428 0.1097,3.5473 0.0731,1.3045 0.1828,2.7062 0.3291,4.2057 0.1463,1.5361 0.3291,3.1085 0.5366,4.7056 0.2194,1.6092 0.451,3.2303 0.707,4.8761 0.2559,1.6824 0.5241,3.255 0.8166,4.7055 0.2804,1.463 0.5729,2.7916 0.8657,3.9986 0.2926,1.2433 0.5851,2.3405 0.8655,3.2791 0.2925,0.951 0.5606,1.7311 0.8166,2.3528 0.3291,0.7681 0.7316,1.4507 1.1948,2.0358 0.451,0.5975 0.9629,1.1095 1.5117,1.5483 0.5851,0.4388 1.1702,0.7679 1.7431,0.9873 0.5853,0.2194 1.146,0.3291 1.6945,0.3291 0.7679,0 1.463,-0.1463 2.0724,-0.451 0.6217,-0.2925 1.1458,-0.7557 1.5849,-1.3774 0.8776,-1.2435 1.3164,-3.0721 1.3164,-5.4859 l 7.607,2.7063 c -0.2197,1.9749 -0.6219,3.6816 -1.1948,5.108 -0.585,1.4383 -1.3289,2.6087 -2.243,3.5229 -0.9142,0.9145 -2.0237,1.5971 -3.3279,2.0359 -1.3045,0.4509 -2.7797,0.6704 -4.4252,0.6704 -1.3532,0 -2.5968,-0.1097 -3.7425,-0.3292 -1.1339,-0.2194 -2.1822,-0.5485 -3.1329,-0.9873 -0.9876,-0.4388 -1.9018,-0.9997 -2.7431,-1.7067 -0.841,-0.707 -1.6089,-1.5483 -2.304,-2.5356 -0.7313,-0.9873 -1.4139,-2.1577 -2.0355,-3.4866 -0.6342,-1.3408 -1.2192,-2.8403 -1.7677,-4.4858 -0.5488,-1.6458 -1.0729,-3.511 -1.5849,-5.5956 -0.4997,-2.0846 -0.9751,-4.3886 -1.4142,-6.912 -0.5485,-2.9988 -0.9751,-5.8394 -1.2676,-8.5091 -0.3048,-2.6818 -0.4876,-5.2052 -0.5607,-7.5824 0.0365,-1.6457 0.1462,-3.1328 0.3535,-4.4617 0.195,-1.3289 0.4875,-2.5234 0.8897,-3.5841 0.4023,-1.0605 0.9023,-1.999 1.4996,-2.8038 0.5972,-0.8044 1.3164,-1.4748 2.1577,-2.0236 0.841,-0.5485 1.8286,-0.9508 2.95,-1.2189 1.1095,-0.256 2.3528,-0.3901 3.706,-0.3901 2.56,0 4.7543,0.512 6.5829,1.5359 0.9508,0.4756 1.8284,1.0729 2.6331,1.8042 0.8045,0.7192 1.5358,1.5605 2.1943,2.5112 0.6217,0.9145 1.2067,1.9383 1.7431,3.06 0.5487,1.1336 1.0363,2.3528 1.4751,3.6692 0.4388,1.3167 0.841,2.7428 1.1948,4.2667 0.3657,1.5361 0.6704,3.1572 0.9264,4.8761 l 1.097,8.119 z" /><path
       id="path58"
       style="fill:#231929;fill-opacity:1;fill-rule:nonzero;stroke:none"
       d="m 184.1383,167.7872 -8.7041,-55.1497 h 19.6756 l 1.0239,6.4366 h -12.2879 l 2.8525,18.7245 h 11.1177 l 1.0239,6.2904 h -11.1178 l 2.8528,17.4079 h 12.2879 l 0.9508,6.2903 z" /><path
       id="path60"
       style="fill:#231929;fill-opacity:1;fill-rule:nonzero;stroke:none"
       d="m 202.424,128.3632 c -0.0365,-0.2194 -0.0487,-0.4997 -0.0609,-0.8288 -0.0122,-0.3294 -0.0122,-0.7073 -0.0122,-1.1461 0,-1.2801 0.0975,-2.5234 0.2803,-3.7182 0.1951,-1.2067 0.4876,-2.3527 0.8898,-3.4497 0.3657,-1.0973 0.8411,-2.0846 1.4386,-2.9622 0.5973,-0.8779 1.3042,-1.6458 2.1456,-2.304 0.841,-0.6951 1.7796,-1.207 2.8159,-1.5483 1.0361,-0.3291 2.1943,-0.4998 3.4741,-0.4998 1.7555,0 3.3891,0.2682 4.8887,0.8167 1.5114,0.5363 2.9012,1.3411 4.1811,2.4015 1.2435,1.0607 2.3771,2.3162 3.3891,3.7792 1.0239,1.4626 1.9139,3.1328 2.6818,4.998 0.7679,1.8652 1.4508,3.8645 2.0359,5.9856 0.5972,2.1331 1.1092,4.4006 1.5483,6.8145 0.4022,2.4137 0.7557,4.9493 1.0482,7.619 0.2926,2.6575 0.5241,5.4368 0.707,8.3262 0,0.1097 0,0.2194 0,0.3535 0,0.1219 0,0.2681 0,0.451 0.0365,0.1828 0.0609,0.3535 0.0609,0.4997 0.0122,0.1463 0.0122,0.2682 0.0122,0.3779 0,1.9749 -0.2194,3.8035 -0.646,5.4737 -0.4388,1.6821 -1.0726,3.1938 -1.914,4.547 -0.8776,1.353 -2.0114,2.365 -3.4132,3.0232 -1.3898,0.6704 -3.06,0.9995 -4.998,0.9995 -0.8048,0 -1.5117,-0.0244 -2.1334,-0.061 -0.6097,-0.0487 -1.1216,-0.1219 -1.5239,-0.2316 -2.0114,-0.4388 -3.8157,-1.3164 -5.4246,-2.6452 -1.6093,-1.3165 -3.0235,-3.0963 -4.2302,-5.3272 -1.1704,-2.2309 -2.1577,-4.5349 -2.9746,-6.9242 -0.8045,-2.4015 -1.4505,-4.8883 -1.9259,-7.4851 -0.4757,-2.56 -0.9145,-5.2784 -1.3045,-8.1675 -0.3901,-2.8891 -0.7435,-5.9491 -1.0361,-9.1673 z m 7.9725,0.1463 c 0.1097,1.6458 0.2559,3.3035 0.4266,4.9859 0.1584,1.6701 0.3413,3.3525 0.5244,5.0346 0.2194,1.7189 0.4754,3.4378 0.7801,5.1811 0.3047,1.7309 0.646,3.4864 1.0482,5.2784 0.8048,3.5839 1.9018,6.5829 3.2916,8.9966 0.6948,1.2068 1.4505,2.1212 2.2553,2.7307 0.8044,0.6216 1.6577,0.9263 2.5721,0.9263 0.9142,0 1.6824,-0.1462 2.3162,-0.451 0.6339,-0.2925 1.1214,-0.7557 1.4874,-1.3773 0.3291,-0.6219 0.585,-1.4386 0.7557,-2.4625 0.1828,-1.0241 0.2681,-2.2552 0.2681,-3.6816 0,-0.2194 0,-0.4876 -0.0122,-0.8167 0,-0.3294 -0.0243,-0.7194 -0.0609,-1.1582 -0.0366,-0.4754 -0.0488,-0.8776 -0.0609,-1.2189 -0.0122,-0.3294 -0.0122,-0.6098 -0.0122,-0.8292 -0.1463,-1.9017 -0.3413,-3.9132 -0.6095,-6.0341 -0.2681,-2.1211 -0.5975,-4.352 -0.9998,-6.6926 -0.4022,-2.3771 -0.8898,-4.608 -1.4748,-6.7047 -0.5854,-2.0846 -1.268,-4.0474 -2.0359,-5.876 -0.7682,-1.8286 -1.6092,-3.206 -2.5356,-4.1204 -0.9144,-0.9264 -1.9261,-1.4018 -3.0234,-1.4383 -1.6089,0 -2.8281,0.6094 -3.6692,1.8161 -0.8413,1.2192 -1.3045,3.0478 -1.3776,5.4981 0.0366,0.3291 0.0731,0.6948 0.0975,1.097 0.0366,0.4025 0.0488,0.8413 0.0488,1.3167" /><path
       id="path62"
       style="fill:#231929;fill-opacity:1;fill-rule:nonzero;stroke:none"
       d="m 239.7268,167.7872 -0.951,-6.2903 h 8.7041 l -7.8993,-48.8594 h 7.4605 l 7.6799,48.8594 h 8.3384 l 0.9507,6.2903 z" /><path
       id="path64"
       style="fill:#231929;fill-opacity:1;fill-rule:nonzero;stroke:none"
       d="m 268.033,167.7872 -8.704,-55.1497 h 19.6755 l 1.0239,6.4366 h -12.2879 l 2.8525,18.7245 h 11.1178 l 1.0238,6.2904 h -11.1177 l 2.8528,17.4079 h 12.2879 l 0.9507,6.2903 z" /><path
       id="path66"
       style="fill:#231929;fill-opacity:1;fill-rule:nonzero;stroke:none"
       d="m 293.4867,167.7872 -8.704,-55.1497 h 7.2411 l 4.4617,27.2823 h 10.9715 l -4.2423,-27.2823 h 7.2411 l 8.704,55.1497 h -7.2411 l -3.4378,-21.4308 h -11.0446 l 3.2915,21.4308 z" /><path
       id="path68"
       style="fill:#231929;fill-opacity:1;fill-rule:nonzero;stroke:none"
       d="m 319.3792,112.6375 h 7.2411 c 0.4023,2.4868 0.8045,4.9371 1.1948,7.363 0.4023,2.4137 0.7801,4.8152 1.1458,7.1923 0.3291,2.3772 0.6582,4.7421 0.9754,7.0827 0.3047,2.3527 0.5973,4.6936 0.8532,7.0341 0.256,2.3772 0.4754,4.7055 0.6582,6.9852 0.1829,2.2796 0.3292,4.5348 0.4389,6.7657 l 0.1462,0.1463 6.1441,-42.5693 h 6.8754 l 8.7041,55.1497 h -7.3874 c -0.4022,-2.4503 -0.7803,-4.7543 -1.1338,-6.8876 -0.3535,-2.1456 -0.6582,-4.1205 -0.9142,-5.9122 -0.256,-1.8287 -0.4754,-3.5232 -0.6704,-5.1081 -0.1831,-1.5845 -0.3537,-3.0475 -0.5,-4.4007 -0.1097,-1.353 -0.2316,-2.7185 -0.3657,-4.108 -0.1341,-1.3898 -0.256,-2.804 -0.3657,-4.2302 -0.1097,-1.4264 -0.2194,-3.0721 -0.3412,-4.9127 -0.1341,-1.853 -0.2804,-3.901 -0.4632,-6.1319 l -0.1463,-0.1463 -6.4366,41.8377 h -6.9486 z" /><path
       id="path70"
       style="fill:#231929;fill-opacity:1;fill-rule:nonzero;stroke:none"
       d="m 369.921,167.7872 h -7.2411 l -8.7041,-55.1497 h 7.2411 z" /><path
       id="path72"
       style="fill:#231929;fill-opacity:1;fill-rule:nonzero;stroke:none"
       d="m 382.282,140.9437 5.8516,-28.3062 h 8.4112 l -7.3142,28.4525 15.1407,26.6972 h -7.5337 z m -0.1463,0 4.0961,26.8435 h -7.2411 l -8.7041,-55.1497 h 7.2411 z" /><path
       id="path74"
       style="fill:#231929;fill-opacity:1;fill-rule:nonzero;stroke:none"
       d="m 402.8355,128.3632 c -0.0366,-0.2194 -0.0488,-0.4997 -0.061,-0.8288 -0.0122,-0.3294 -0.0122,-0.7073 -0.0122,-1.1461 0,-1.2801 0.0975,-2.5234 0.2804,-3.7182 0.195,-1.2067 0.4875,-2.3527 0.8898,-3.4497 0.3656,-1.0973 0.841,-2.0846 1.4386,-2.9622 0.5972,-0.8779 1.3042,-1.6458 2.1455,-2.304 0.841,-0.6951 1.7796,-1.207 2.8159,-1.5483 1.0361,-0.3291 2.1943,-0.4998 3.4742,-0.4998 1.7555,0 3.3891,0.2682 4.8886,0.8167 1.5114,0.5363 2.9013,1.3411 4.1811,2.4015 1.2436,1.0607 2.3771,2.3162 3.3891,3.7792 1.0239,1.4626 1.914,3.1328 2.6819,4.998 0.7679,1.8652 1.4507,3.8645 2.0358,5.9856 0.5973,2.1331 1.1092,4.4006 1.5483,6.8145 0.4022,2.4137 0.7557,4.9493 1.0482,7.619 0.2926,2.6575 0.5242,5.4368 0.707,8.3262 0,0.1097 0,0.2194 0,0.3535 0,0.1219 0,0.2681 0,0.451 0.0366,0.1828 0.061,0.3535 0.061,0.4997 0.0121,0.1463 0.0121,0.2682 0.0121,0.3779 0,1.9749 -0.2194,3.8035 -0.646,5.4737 -0.4388,1.6821 -1.0726,3.1938 -1.9139,4.547 -0.8776,1.353 -2.0115,2.365 -3.4132,3.0232 -1.3898,0.6704 -3.06,0.9995 -4.9981,0.9995 -0.8047,0 -1.5117,-0.0244 -2.1333,-0.061 -0.6098,-0.0487 -1.1217,-0.1219 -1.5239,-0.2316 -2.0115,-0.4388 -3.8157,-1.3164 -5.4247,-2.6452 -1.6092,-1.3165 -3.0234,-3.0963 -4.2301,-5.3272 -1.1705,-2.2309 -2.1578,-4.5349 -2.9747,-6.9242 -0.8045,-2.4015 -1.4505,-4.8883 -1.9259,-7.4851 -0.4756,-2.56 -0.9144,-5.2784 -1.3045,-8.1675 -0.39,-2.8891 -0.7435,-5.9491 -1.036,-9.1673 z m 7.9724,0.1463 c 0.1097,1.6458 0.256,3.3035 0.4266,4.9859 0.1585,1.6701 0.3413,3.3525 0.5244,5.0346 0.2194,1.7189 0.4754,3.4378 0.7801,5.1811 0.3047,1.7309 0.646,3.4864 1.0483,5.2784 0.8047,3.5839 1.9017,6.5829 3.2916,8.9966 0.6947,1.2068 1.4505,2.1212 2.2552,2.7307 0.8045,0.6216 1.6577,0.9263 2.5722,0.9263 0.9141,0 1.6823,-0.1462 2.3162,-0.451 0.6338,-0.2925 1.1213,-0.7557 1.4873,-1.3773 0.3291,-0.6219 0.5851,-1.4386 0.7557,-2.4625 0.1828,-1.0241 0.2682,-2.2552 0.2682,-3.6816 0,-0.2194 0,-0.4876 -0.0122,-0.8167 0,-0.3294 -0.0244,-0.7194 -0.061,-1.1582 -0.0365,-0.4754 -0.0487,-0.8776 -0.0609,-1.2189 -0.0122,-0.3294 -0.0122,-0.6098 -0.0122,-0.8292 -0.1463,-1.9017 -0.3413,-3.9132 -0.6094,-6.0341 -0.2682,-2.1211 -0.5976,-4.352 -0.9998,-6.6926 -0.4023,-2.3771 -0.8898,-4.608 -1.4749,-6.7047 -0.5853,-2.0846 -1.2679,-4.0474 -2.0358,-5.876 -0.7682,-1.8286 -1.6093,-3.206 -2.5356,-4.1204 -0.9145,-0.9264 -1.9262,-1.4018 -3.0235,-1.4383 -1.6089,0 -2.8281,0.6094 -3.6691,1.8161 -0.8413,1.2192 -1.3045,3.0478 -1.3777,5.4981 0.0366,0.3291 0.0732,0.6948 0.0975,1.097 0.0366,0.4025 0.0488,0.8413 0.0488,1.3167" /><path
       id="path76"
       style="fill:#231929;fill-opacity:1;fill-rule:nonzero;stroke:none"
       d="m 185.6738,96.929 h -7.2411 l -8.704,-55.1497 h 7.2411 z" /><path
       id="path78"
       style="fill:#231929;fill-opacity:1;fill-rule:nonzero;stroke:none"
       d="m 186.0395,41.7793 h 7.2411 c 0.4022,2.4868 0.8045,4.9371 1.1948,7.363 0.4022,2.4137 0.7801,4.8152 1.1458,7.1923 0.3291,2.3771 0.6582,4.7421 0.9754,7.0827 0.3047,2.3527 0.5972,4.6936 0.8532,7.0341 0.256,2.3772 0.4754,4.7055 0.6582,6.9852 0.1828,2.2796 0.3291,4.5348 0.4388,6.7657 l 0.1463,0.1463 6.1441,-42.5693 h 6.8754 l 8.7041,55.1497 h -7.3874 c -0.4022,-2.4503 -0.7804,-4.7543 -1.1339,-6.8876 -0.3534,-2.1456 -0.6582,-4.1205 -0.9141,-5.9122 -0.256,-1.8287 -0.4754,-3.5232 -0.6704,-5.1081 -0.1832,-1.5845 -0.3538,-3.0475 -0.5001,-4.4008 -0.1097,-1.3529 -0.2316,-2.7184 -0.3656,-4.1079 -0.1341,-1.3898 -0.256,-2.8041 -0.3657,-4.2302 -0.1097,-1.4264 -0.2194,-3.0722 -0.3413,-4.9127 -0.1341,-1.853 -0.2803,-3.901 -0.4632,-6.1319 l -0.1462,-0.1463 -6.4367,41.8377 h -6.9485 z" /><path
       id="path80"
       style="fill:#231929;fill-opacity:1;fill-rule:nonzero;stroke:none"
       d="m 237.1666,57.505 c -0.0366,-0.2194 -0.0488,-0.4997 -0.061,-0.8288 -0.0122,-0.3294 -0.0122,-0.7073 -0.0122,-1.1461 0,-1.2801 0.0976,-2.5234 0.2804,-3.7182 0.195,-1.2067 0.4876,-2.3527 0.8898,-3.4497 0.3657,-1.0973 0.841,-2.0846 1.4386,-2.9622 0.5972,-0.8779 1.3042,-1.6458 2.1455,-2.304 0.8411,-0.6951 1.7796,-1.207 2.816,-1.5483 1.036,-0.3291 2.1943,-0.4998 3.4741,-0.4998 1.7555,0 3.3891,0.2682 4.8886,0.8167 1.5115,0.5363 2.9013,1.3411 4.1811,2.4015 1.2436,1.0607 2.3772,2.3162 3.3891,3.7792 1.0239,1.4626 1.914,3.1328 2.6819,4.998 0.7679,1.8652 1.4508,3.8645 2.0358,5.9856 0.5973,2.1331 1.1092,4.4005 1.5483,6.8145 0.4023,2.4137 0.7557,4.9493 1.0483,7.619 0.2925,2.6575 0.5241,5.4368 0.7069,8.3262 0,0.1097 0,0.2194 0,0.3535 0,0.1219 0,0.2681 0,0.451 0.0366,0.1828 0.061,0.3535 0.061,0.4997 0.0122,0.1463 0.0122,0.2682 0.0122,0.3779 0,1.9749 -0.2194,3.8035 -0.6461,5.4737 -0.4388,1.6821 -1.0726,3.1938 -1.9139,4.547 -0.8776,1.353 -2.0115,2.365 -3.4132,3.0232 -1.3898,0.6704 -3.06,0.9995 -4.9981,0.9995 -0.8047,0 -1.5117,-0.0244 -2.1333,-0.061 -0.6097,-0.0487 -1.1217,-0.1219 -1.5239,-0.2316 -2.0115,-0.4388 -3.8157,-1.3164 -5.4247,-2.6452 -1.6092,-1.3165 -3.0234,-3.0963 -4.2301,-5.3272 -1.1704,-2.2309 -2.1577,-4.5349 -2.9747,-6.9242 -0.8045,-2.4015 -1.4505,-4.8883 -1.9259,-7.4852 -0.4756,-2.5599 -0.9144,-5.2783 -1.3045,-8.1674 -0.39,-2.8891 -0.7435,-5.9491 -1.036,-9.1673 z m 7.9724,0.1463 c 0.1097,1.6458 0.256,3.3035 0.4266,4.9859 0.1585,1.6701 0.3413,3.3525 0.5244,5.0346 0.2194,1.7189 0.4754,3.4378 0.7801,5.1811 0.3048,1.7309 0.6461,3.4864 1.0483,5.2784 0.8047,3.5839 1.9018,6.5829 3.2916,8.9966 0.6948,1.2067 1.4505,2.1212 2.2552,2.7307 0.8045,0.6216 1.6577,0.9263 2.5722,0.9263 0.9142,0 1.6823,-0.1463 2.3162,-0.451 0.6338,-0.2925 1.1214,-0.7557 1.4873,-1.3773 0.3291,-0.622 0.5851,-1.4386 0.7557,-2.4625 0.1829,-1.0241 0.2682,-2.2552 0.2682,-3.6816 0,-0.2194 0,-0.4876 -0.0122,-0.8167 0,-0.3294 -0.0244,-0.7194 -0.0609,-1.1582 -0.0366,-0.4754 -0.0488,-0.8776 -0.061,-1.2189 -0.0122,-0.3294 -0.0122,-0.6098 -0.0122,-0.8292 -0.1462,-1.9017 -0.3413,-3.9132 -0.6094,-6.0341 -0.2682,-2.1211 -0.5976,-4.352 -0.9998,-6.6926 -0.4022,-2.3771 -0.8898,-4.608 -1.4749,-6.7048 -0.5853,-2.0846 -1.2679,-4.0473 -2.0358,-5.8759 -0.7682,-1.8286 -1.6092,-3.206 -2.5356,-4.1204 -0.9145,-0.9264 -1.9261,-1.4018 -3.0234,-1.4383 -1.609,0 -2.8282,0.6094 -3.6692,1.8161 -0.8413,1.2192 -1.3045,3.0478 -1.3776,5.4981 0.0365,0.3291 0.0731,0.6948 0.0975,1.097 0.0365,0.4025 0.0487,0.8413 0.0487,1.3167" /><path
       id="path82"
       style="fill:#231929;fill-opacity:1;fill-rule:nonzero;stroke:none"
       d="m 282.515,70.0855 5.8515,-28.3062 h 8.4113 l -7.3143,28.4524 15.1407,26.6973 h -7.5336 z m -0.1463,0 4.0961,26.8435 h -7.2411 l -8.7041,-55.1497 h 7.2411 z" /><path
       id="path84"
       style="fill:#231929;fill-opacity:1;fill-rule:nonzero;stroke:none"
       d="m 303.0684,57.505 c -0.0366,-0.2194 -0.0487,-0.4997 -0.0609,-0.8288 -0.0122,-0.3294 -0.0122,-0.7073 -0.0122,-1.1461 0,-1.2801 0.0975,-2.5234 0.2803,-3.7182 0.195,-1.2067 0.4876,-2.3527 0.8898,-3.4497 0.3657,-1.0973 0.8411,-2.0846 1.4386,-2.9622 0.5973,-0.8779 1.3042,-1.6458 2.1455,-2.304 0.8411,-0.6951 1.7796,-1.207 2.816,-1.5483 1.036,-0.3291 2.1943,-0.4998 3.4741,-0.4998 1.7555,0 3.3891,0.2682 4.8887,0.8167 1.5114,0.5363 2.9012,1.3411 4.1811,2.4015 1.2435,1.0607 2.3771,2.3162 3.3891,3.7792 1.0238,1.4626 1.9139,3.1328 2.6818,4.998 0.7679,1.8652 1.4508,3.8645 2.0359,5.9856 0.5972,2.1331 1.1092,4.4005 1.5482,6.8145 0.4023,2.4137 0.7558,4.9493 1.0483,7.619 0.2925,2.6575 0.5241,5.4368 0.707,8.3262 0,0.1097 0,0.2194 0,0.3535 0,0.1219 0,0.2681 0,0.451 0.0365,0.1828 0.0609,0.3535 0.0609,0.4997 0.0122,0.1463 0.0122,0.2682 0.0122,0.3779 0,1.9749 -0.2194,3.8035 -0.646,5.4737 -0.4388,1.6821 -1.0727,3.1938 -1.914,4.547 -0.8776,1.353 -2.0114,2.365 -3.4132,3.0232 -1.3898,0.6704 -3.06,0.9995 -4.998,0.9995 -0.8048,0 -1.5117,-0.0244 -2.1334,-0.061 -0.6097,-0.0487 -1.1216,-0.1219 -1.5239,-0.2316 -2.0114,-0.4388 -3.8157,-1.3164 -5.4246,-2.6452 -1.6093,-1.3165 -3.0235,-3.0963 -4.2302,-5.3272 -1.1704,-2.2309 -2.1577,-4.5349 -2.9747,-6.9242 -0.8044,-2.4015 -1.4505,-4.8883 -1.9258,-7.4852 -0.4757,-2.5599 -0.9145,-5.2783 -1.3045,-8.1674 -0.3901,-2.8891 -0.7436,-5.9491 -1.0361,-9.1673 z m 7.9725,0.1463 c 0.1097,1.6458 0.2559,3.3035 0.4266,4.9859 0.1584,1.6701 0.3413,3.3525 0.5244,5.0346 0.2194,1.7189 0.4753,3.4378 0.7801,5.1811 0.3047,1.7309 0.646,3.4864 1.0482,5.2784 0.8048,3.5839 1.9018,6.5829 3.2916,8.9966 0.6948,1.2067 1.4505,2.1212 2.2553,2.7307 0.8044,0.6216 1.6577,0.9263 2.5721,0.9263 0.9142,0 1.6824,-0.1463 2.3162,-0.451 0.6338,-0.2925 1.1214,-0.7557 1.4873,-1.3773 0.3291,-0.622 0.5851,-1.4386 0.7558,-2.4625 0.1828,-1.0241 0.2681,-2.2552 0.2681,-3.6816 0,-0.2194 0,-0.4876 -0.0122,-0.8167 0,-0.3294 -0.0244,-0.7194 -0.0609,-1.1582 -0.0366,-0.4754 -0.0488,-0.8776 -0.061,-1.2189 -0.0122,-0.3294 -0.0122,-0.6098 -0.0122,-0.8292 -0.1462,-1.9017 -0.3412,-3.9132 -0.6094,-6.0341 -0.2682,-2.1211 -0.5975,-4.352 -0.9998,-6.6926 -0.4022,-2.3771 -0.8898,-4.608 -1.4748,-6.7048 -0.5854,-2.0846 -1.268,-4.0473 -2.0359,-5.8759 -0.7682,-1.8286 -1.6092,-3.206 -2.5356,-4.1204 -0.9144,-0.9264 -1.9261,-1.4018 -3.0234,-1.4383 -1.609,0 -2.8281,0.6094 -3.6692,1.8161 -0.8413,1.2192 -1.3045,3.0478 -1.3776,5.4981 0.0365,0.3291 0.0731,0.6948 0.0975,1.097 0.0366,0.4025 0.0488,0.8413 0.0488,1.3167" /><path
       id="path86"
       style="fill:#231929;fill-opacity:1;fill-rule:nonzero;stroke:none"
       d="m 345.1255,96.929 -8.7041,-55.1497 h 19.6756 l 1.0239,6.4366 h -12.288 l 7.5337,48.7131 z" /><path
       id="path88"
       style="fill:#231929;fill-opacity:1;fill-rule:nonzero;stroke:none"
       d="M 375.2603,96.929 368.824,57.3588 c -0.1463,-1.1339 -0.305,-2.1456 -0.4879,-3.0235 -0.1706,-0.8898 -0.3535,-1.6577 -0.5363,-2.3162 -0.1828,-0.6582 -0.4388,-1.231 -0.7679,-1.7064 -0.3291,-0.4876 -0.7316,-0.8901 -1.207,-1.2192 -0.4022,-0.256 -0.8654,-0.4632 -1.3773,-0.6216 -0.5245,-0.1585 -1.1095,-0.2926 -1.7677,-0.4023 -0.8411,0.0732 -1.658,0.256 -2.4625,0.5607 -0.7925,0.2926 -1.5605,0.7192 -2.2918,1.268 l -1.0973,-7.3877 c 0.6951,-0.4754 1.5605,-0.841 2.5844,-1.0848 1.0241,-0.256 2.2064,-0.3779 3.5597,-0.3779 1.7921,0 3.3766,0.2438 4.7665,0.7192 1.3776,0.4632 2.5477,1.1826 3.4988,2.1333 1.2067,1.1336 2.1943,2.6697 2.9744,4.608 0.7679,1.9384 1.341,4.2789 1.7067,7.0217 l 6.5829,41.3989 z" /><path
       id="path90"
       style="fill:#231929;fill-opacity:1;fill-rule:nonzero;stroke:none"
       d="m 391.4252,96.929 -8.7041,-55.1497 h 19.6756 l 1.0238,6.4366 h -12.2879 l 2.8525,18.7245 h 11.1178 l 1.0239,6.2904 H 395.009 l 2.8528,17.4078 h 12.2879 l 0.9507,6.2904 z" /><path
       id="path92"
       style="fill:#ffffff;fill-opacity:1;fill-rule:evenodd;stroke:none"
       d="m 405.326,310.0833 c -0.007,-0.004 -0.0133,-0.008 -0.0199,-0.0119 v -10e-4 l 0.0199,0.0133 z" /><path
       id="path94"
       style="fill:#ffffff;fill-opacity:1;fill-rule:evenodd;stroke:none"
       d="M 396.5661,386.2366 C 355.9612,379.1894 320.3048,363.1368 294.154,341.2871 l -11.4979,-9.5531 -11.4423,9.5503 C 245.0633,363.134 209.4106,379.188 168.806,386.2355 v 15.6265 h 22.5864 c 1.0979,8.5757 3.3846,16.7868 6.6909,24.4608 l -19.7546,11.4057 11.2788,19.5356 19.8816,-11.4792 c 5.1199,6.6948 11.1334,12.6731 17.8648,17.7446 l -11.5656,20.0333 19.5346,11.2787 11.5736,-20.0454 c 7.6187,3.2159 15.7575,5.4292 24.2493,6.4777 v 22.3308 c 3.8168,0.1692 7.6606,0.2659 11.5395,0.2659 3.7007,0 7.3752,-0.0891 11.018,-0.2435 v -22.3546 c 8.6462,-1.0678 16.9279,-3.3432 24.6671,-6.6555 l 11.6787,20.2246 19.5344,-11.2787 -11.7269,-20.3111 c 6.6555,-5.065 12.6023,-11.0169 17.6641,-17.6752 l 20.2422,11.6876 11.2802,-19.5356 -20.1714,-11.6458 c 3.2511,-7.6057 5.501,-15.7354 6.5849,-24.2207 h 23.1095 z" /><path
       id="path96"
       style="fill:#ffffff;fill-opacity:1;fill-rule:evenodd;stroke:none"
       d="m 114.3527,367.2292 c -0.001,0.004 -0.001,0.005 -0.002,0.008 -0.001,0.008 -0.004,0.0147 -0.005,0.0226 2.6328,0.0811 5.2812,0.1242 7.9449,0.1242 59.0397,0 111.2718,-19.9692 142.1963,-50.2583 -4.589,-1.9919 -8.7862,-4.7148 -12.45,-8.0161 -33.7459,21.2777 -78.0528,34.4208 -126.5825,34.9688 l -0.009,-0.0525 c -4.8852,7.3656 -8.6357,15.13 -11.0914,23.2036 z m 122.8414,-87.4298 c -0.0972,0.0181 -0.1942,0.034 -0.2911,0.0524 -0.8176,0.1508 -1.6328,0.3053 -2.4452,0.4652 -0.0471,0.009 -0.0958,0.0184 -0.1429,0.0275 -13.6049,2.6654 -26.515,6.4224 -38.5027,11.1189 -0.2412,0.0944 -0.4807,0.1888 -0.7205,0.2832 -4.356,1.7257 -8.5887,3.5776 -12.6862,5.5442 -0.3816,0.182 -0.76,0.3657 -1.139,0.5505 -0.0405,0.0196 -0.0799,0.0406 -0.1205,0.0604 -0.7154,0.3495 -1.4255,0.7024 -2.1333,1.0602 -0.3733,0.1885 -0.7441,0.3798 -1.1166,0.5697 -0.7404,0.3801 -1.478,0.7654 -2.2107,1.1543 -0.3654,0.1942 -0.7314,0.3895 -1.0942,0.5862 -0.7101,0.3835 -1.4165,0.7705 -2.1175,1.1622 -0.017,0.009 -0.0343,0.017 -0.0513,0.0272 -0.3577,0.2007 -0.714,0.4011 -1.0703,0.6044 -0.637,0.3605 -1.2685,0.7248 -1.8964,1.0919 -0.4482,0.2619 -0.8935,0.5238 -1.338,0.7883 -0.6304,0.3764 -1.2551,0.7565 -1.8762,1.1378 -0.1823,0.1114 -0.3631,0.2239 -0.544,0.3365 -0.8898,0.5505 -1.7691,1.11 -2.6419,1.6721 -0.009,0.005 -0.017,0.009 -0.0261,0.0159 -0.8691,0.5593 -1.7271,1.1256 -2.5778,1.6982 -0.2027,0.1375 -0.4048,0.2767 -0.6066,0.4142 -0.0731,0.0499 -0.1465,0.1009 -0.22,0.1491 -0.0734,0.0499 -0.1428,0.0998 -0.2162,0.1497 -0.072,0.0498 -0.1466,0.0983 -0.2189,0.1479 -0.003,10e-4 -0.004,0.003 -0.005,0.005 -0.5595,0.3838 -1.1123,0.773 -1.6639,1.1625 -0.017,0.013 -0.0383,0.0258 -0.0553,0.0391 -0.072,0.0496 -0.1414,0.1009 -0.2137,0.152 -0.0706,0.051 -0.1426,0.1037 -0.2146,0.1533 -0.0709,0.051 -0.1414,0.1009 -0.2123,0.1519 -0.0712,0.0511 -0.1429,0.0998 -0.2137,0.1509 -0.0156,0.0119 -0.0301,0.0223 -0.046,0.034 -0.8059,0.5816 -1.6038,1.1661 -2.3927,1.7586 -0.0261,0.0195 -0.0538,0.0408 -0.0802,0.0589 -0.0692,0.0525 -0.1375,0.1049 -0.2067,0.1574 -0.7483,0.5635 -1.4873,1.1321 -2.2175,1.7047 -0.0235,0.017 -0.0471,0.0352 -0.0706,0.055 -1.5687,1.2305 -3.0977,2.4846 -4.589,3.7582 -0.0354,0.0317 -0.0694,0.0618 -0.1063,0.0921 35.5215,-3.4126 67.5836,-14.091 92.6416,-29.6852 -1.1928,-3.377 -1.9933,-6.9336 -2.3496,-10.6169 z m 68.4969,-3.0532 c -0.0238,-0.003 -0.0484,-0.005 -0.072,-0.008 -0.8076,-0.072 -1.6135,-0.1389 -2.4247,-0.2029 -0.2279,-0.0184 -0.457,-0.0355 -0.6849,-0.0539 -0.1193,-0.009 -0.2387,-0.0184 -0.3566,-0.0275 -0.1193,-0.008 -0.2361,-0.0173 -0.3552,-0.0249 -0.1182,-0.009 -0.2372,-0.0196 -0.3566,-0.0275 -0.8671,-0.0644 -1.7376,-0.1219 -2.6104,-0.1769 -0.739,-0.0459 -1.478,-0.0904 -2.2195,-0.131 -0.4799,-0.0263 -0.9607,-0.0499 -1.4403,-0.0734 -1.0721,-0.0524 -2.1453,-0.0969 -3.2207,-0.1363 -0.3359,-0.0119 -0.6698,-0.021 -1.0055,-0.0329 -1.1542,-0.038 -2.3128,-0.0666 -3.4738,-0.089 -0.2702,-0.005 -0.5426,-0.0105 -0.8136,-0.0145 -1.2004,-0.0181 -2.4035,-0.03 -3.6076,-0.0314 -0.1205,0 -0.2427,-0.003 -0.3643,-0.003 0,0 0,0 -0.002,0 -0.1216,0 -0.2409,0.003 -0.3628,0.003 -1.2042,0.001 -2.4061,0.0133 -3.6037,0.0314 -0.2696,0.004 -0.5397,0.009 -0.8084,0.0145 -1.1648,0.021 -2.3259,0.0524 -3.4844,0.089 -0.3299,0.0105 -0.6605,0.021 -0.9907,0.0329 -1.1217,0.0394 -2.2382,0.0878 -3.3534,0.1414 -0.3642,0.0184 -0.7259,0.0366 -1.0888,0.0553 -0.8583,0.0456 -1.7141,0.0981 -2.5687,0.1505 -0.1191,0.008 -0.2373,0.0156 -0.3563,0.0221 -0.7141,0.0459 -1.427,0.0958 -2.1385,0.1483 -0.1179,0.008 -0.2347,0.0184 -0.3526,0.0275 -0.0394,0.003 -0.0785,0.007 -0.1194,0.008 -0.4359,0.0329 -0.8739,0.0669 -1.3104,0.1009 -0.7795,0.0618 -1.5565,0.1273 -2.3309,0.1968 -0.046,0.004 -0.0919,0.008 -0.1378,0.013 0.6684,12.0336 10.7456,21.6417 23.0085,21.6417 12.2599,0 22.3373,-9.6092 23.0057,-21.6428 z m 111.0028,41.8558 c 0,0.003 0,0.003 0,0.005 -3.5774,-2.9639 -7.371,-5.8116 -11.3678,-8.5241 -10.4346,-7.0855 -22.2418,-13.2718 -35.1323,-18.3722 -0.1599,-0.0632 -0.3198,-0.1258 -0.4797,-0.1885 -12.8724,-5.0547 -26.8177,-9.0289 -41.5428,-11.7258 -0.3552,3.6848 -1.1546,7.2425 -2.3457,10.6209 25.058,15.5939 57.1198,26.274 92.6413,29.6838 -0.0927,-0.0788 -0.1859,-0.1573 -0.2789,-0.2372 l 0.0405,0.0235 c -0.5057,-0.4312 -1.0184,-0.8598 -1.5346,-1.2858 z m 22.6505,24.5341 -0.144,0.6877 -0.0604,0.2438 c -48.2287,-0.68 -92.2467,-13.7974 -125.8146,-34.9605 -3.6624,3.302 -7.8625,6.021 -12.4512,8.0143 30.9243,30.2916 83.1614,50.2623 142.204,50.2623 2.6637,0 5.3135,-0.0431 7.9475,-0.1242 -0.0145,-0.0484 -0.025,-0.0983 -0.0394,-0.1468 0,-0.006 -10e-4,-0.007 -0.003,-0.0133 -0.009,-0.0236 -0.0184,-0.0511 -0.0249,-0.076 -0.0184,-0.059 -0.0355,-0.1165 -0.0539,-0.1755 l 0.008,0.008 c -2.5566,-8.2644 -6.4667,-16.2045 -11.5685,-23.7195" /><path
       id="path98"
       style="fill:#201f1f;fill-opacity:1;fill-rule:evenodd;stroke:none"
       d="m 282.4245,450.1823 c 33.1291,0 59.9854,-26.8566 59.9854,-59.9854 0,-33.1291 -26.8563,-59.9856 -59.9854,-59.9856 -33.129,0 -59.9856,26.8565 -59.9856,59.9856 0,33.1288 26.8566,59.9854 59.9856,59.9854" /><path
       id="path100"
       style="fill:#ffffff;fill-opacity:1;fill-rule:evenodd;stroke:none"
       d="m 282.4245,410.0885 c 10.9854,0 19.8913,-8.9059 19.8913,-19.8916 0,-10.9857 -8.9059,-19.8913 -19.8913,-19.8913 -10.9856,0 -19.8915,8.9056 -19.8915,19.8913 0,10.9857 8.9059,19.8916 19.8915,19.8916" /></g></svg>