<?xml version="1.0" encoding="utf-8"?>
<!-- Generator: Adobe Illustrator 19.2.1, SVG Export Plug-In . SVG Version: 6.00 Build 0)  -->
<svg version="1.1" id="Layer_1" xmlns="http://www.w3.org/2000/svg" xmlns:xlink="http://www.w3.org/1999/xlink" x="0px" y="0px"
	 viewBox="0 0 300 300" style="enable-background:new 0 0 300 300;" xml:space="preserve">
<style type="text/css">
	.st0{fill-rule:evenodd;clip-rule:evenodd;fill:#8DD7F7;}
	.st1{fill-rule:evenodd;clip-rule:evenodd;fill:#FFFFFF;}
	.st2{fill-rule:evenodd;clip-rule:evenodd;fill:#000002;}
</style>
<rect class="st0" width="300" height="300"/>
<path class="st1" d="M150,40.9c55.9,0,101.5,32.1,101.5,71.5c0,39.4-45.6,71.5-101.5,71.5c-55.9,0-101.5-32.1-101.5-71.5
	C48.5,73,94.1,40.9,150,40.9"/>
<path class="st2" d="M277.4,213.2l4.4-14.3h0.1l-0.1,14.3H277.4 M281.3,193.5l-10.5,28.1h3.7l1.9-5.4h5.6l0.2,5.4h3.8l-1.6-28.1
	H281.3z M265,193.5l-4.4,28.1h10l0.5-3.3h-6.3l3.8-24.8H265z M247.6,213.5c0.1-1.7,0.3-3.4,0.5-5.1c0.2-1.8,0.5-3.5,0.9-5.3
	c0.4-1.8,1-3.4,1.7-4.6c0.7-1.2,1.5-1.9,2.5-1.9c0.9,0,1.6,0.3,1.9,0.9c0.3,0.6,0.5,1.7,0.5,3.1c0,0.2,0,0.6,0,1c0,0.5,0,0.8,0,1
	c-0.2,1.9-0.4,4.1-0.8,6.5c-0.4,2.4-1,4.5-1.8,6.4c-0.8,1.9-1.7,2.8-2.8,2.8c-1.6,0-2.5-1.2-2.6-3.7
	C247.6,214.4,247.6,214,247.6,213.5z M243.6,213.5c0,0.2,0,0.6,0,1c0,1.3,0.2,2.5,0.6,3.7c0.4,1.1,1,2,1.8,2.7c0.9,0.7,1.9,1,3.2,1
	c1.8,0,3.3-0.6,4.6-1.6c1.3-1.1,2.3-2.6,3.1-4.5c0.8-1.9,1.4-4.1,1.8-6.5c0.4-2.5,0.7-5.2,0.9-8.1c0-0.1,0-0.2,0-0.4
	c0-0.2,0-0.3,0-0.4c0-2-0.5-3.7-1.3-5.1c-0.9-1.4-2.3-2-4.3-2c-0.8,0-1.5,0-1.9,0.1c-2,0.4-3.7,1.8-4.9,4.1c-1.2,2.3-2,4.7-2.5,7.3
	C244.3,207.3,243.9,210.3,243.6,213.5z M243.9,187.1l-1.7-1.5l-3.2,3.1l-2.4-3.1l-2,1.5l3.8,5.2L243.9,187.1z M229.7,216.8l-0.6,3.8
	c0.9,0.9,2.2,1.3,3.8,1.3c1.6,0,2.9-0.4,4.2-1.3c1.2-0.9,2.2-2,2.8-3.4c0.6-1.4,1-2.9,1-4.4c0-1.2-0.3-2.4-0.8-3.4
	c-0.5-1-1.3-2.2-2.3-3.5c-1-1.3-1.7-2.3-2.1-3c-0.4-0.7-0.6-1.5-0.6-2.3c0.2-1.3,0.7-2.2,1.5-2.9c0.7-0.7,1.6-1,2.5-1
	c1.2,0,2.2,0.4,3,1.2l0.6-3.8c-1.2-0.6-2.5-1-3.8-1c-1.4,0-2.6,0.4-3.8,1.1c-1.2,0.7-2.1,1.8-2.8,3.1c-0.7,1.3-1,2.9-1,4.6
	c0,1.3,0.3,2.4,0.7,3.3c0.5,0.9,1.2,1.9,2.2,3c1,1.1,1.7,2.1,2.2,2.9c0.5,0.8,0.7,1.8,0.7,2.9c0,1.2-0.4,2.3-1.2,3.1
	c-0.7,0.9-1.7,1.3-2.8,1.3C231.9,218.3,230.8,217.8,229.7,216.8z M211.1,213.2l4.4-14.3h0.1l-0.1,14.3H211.1z M215,193.5l-10.5,28.1
	h3.7l1.9-5.4h5.6l0.2,5.4h3.8l-1.6-28.1H215z M188.9,221.6h3.7c0.4-2.5,0.8-5,1.2-7.4c0.3-2.4,0.7-4.8,0.9-7.2
	c0.3-2.4,0.4-4.7,0.6-7l0.1-0.1l3.1,21.7h3.5l4.4-28.1h-3.8c-0.4,2.5-0.8,4.7-1,6.5c-0.3,1.9-0.4,3.5-0.6,4.8
	c-0.1,1.4-0.3,2.8-0.4,4.2c-0.1,1.5-0.2,3.4-0.4,5.6l-0.1,0.1l-3.3-21.3h-3.5L188.9,221.6z M177.9,221.6h3l10-28.1h-3.5
	c-0.3,0.8-0.7,2.3-1.5,4.6c-0.8,2.3-1.5,4.4-2.1,6.3c-0.6,1.9-1.2,3.7-1.8,5.4c-0.5,1.7-1,3.3-1.4,4.8h-0.1l0.1-21.1H177
	L177.9,221.6z M161.6,213.5c0.1-1.7,0.3-3.4,0.5-5.1c0.2-1.8,0.5-3.5,0.9-5.3c0.4-1.8,1-3.4,1.7-4.6c0.7-1.2,1.5-1.9,2.5-1.9
	c0.9,0,1.6,0.3,1.9,0.9c0.3,0.6,0.5,1.7,0.5,3.1c0,0.2,0,0.6,0,1c0,0.5,0,0.8,0,1c-0.1,1.9-0.4,4.1-0.8,6.5c-0.4,2.4-1,4.5-1.8,6.4
	c-0.8,1.9-1.7,2.8-2.8,2.8c-1.6,0-2.5-1.2-2.6-3.7C161.6,214.4,161.6,214,161.6,213.5z M157.5,213.5c0,0.2,0,0.6,0,1
	c0,1.3,0.2,2.5,0.6,3.7c0.4,1.1,1,2,1.8,2.7c0.9,0.7,1.9,1,3.2,1c1.8,0,3.3-0.6,4.6-1.6c1.3-1.1,2.3-2.6,3.1-4.5
	c0.8-1.9,1.4-4.1,1.8-6.5c0.4-2.5,0.7-5.2,0.9-8.1c0-0.1,0-0.2,0-0.4c0-0.2,0-0.3,0-0.4c0-2-0.4-3.7-1.3-5.1c-0.9-1.4-2.3-2-4.3-2
	c-0.8,0-1.5,0-1.9,0.1c-2,0.4-3.7,1.8-4.9,4.1c-1.2,2.3-2,4.7-2.5,7.3C158.2,207.3,157.8,210.3,157.5,213.5z M147,207.1l2.1-13.7
	h-3.7l-4.4,28.1h3.7L147,207.1z M147.1,207.1l3,14.4h4.3l-3.7-14.5l7.7-13.6h-3.8L147.1,207.1z M128,213.5c0.1-1.7,0.3-3.4,0.5-5.1
	c0.2-1.8,0.5-3.5,0.9-5.3c0.4-1.8,1-3.4,1.7-4.6c0.7-1.2,1.5-1.9,2.5-1.9c0.9,0,1.6,0.3,1.9,0.9c0.3,0.6,0.5,1.7,0.5,3.1
	c0,0.2,0,0.6,0,1c0,0.5,0,0.8,0,1c-0.1,1.9-0.4,4.1-0.8,6.5c-0.4,2.4-1,4.5-1.8,6.4c-0.8,1.9-1.7,2.8-2.8,2.8
	c-1.6,0-2.5-1.2-2.6-3.7C128,214.4,128,214,128,213.5z M124,213.5c0,0.2,0,0.6,0,1c0,1.3,0.2,2.5,0.6,3.7c0.4,1.1,1,2,1.8,2.7
	c0.9,0.7,1.9,1,3.2,1c1.8,0,3.3-0.6,4.6-1.6c1.3-1.1,2.3-2.6,3.1-4.5c0.8-1.9,1.4-4.1,1.8-6.5c0.4-2.5,0.7-5.2,0.9-8.1
	c0-0.1,0-0.2,0-0.4c0-0.2,0-0.3,0-0.4c0-2-0.4-3.7-1.3-5.1c-0.9-1.4-2.3-2-4.3-2c-0.8,0-1.5,0-1.9,0.1c-2,0.4-3.7,1.8-4.9,4.1
	c-1.2,2.3-2,4.7-2.5,7.3C124.7,207.3,124.3,210.3,124,213.5z M114,205.9l1.5-9.3c1.1,0,1.9,0.1,2.3,0.4c0.5,0.3,0.8,1,0.8,2.2
	c0,1.8-0.3,3.4-1,4.7C116.8,205.2,115.6,205.9,114,205.9z M107.7,221.6h3.7l2.2-13.7h0.1l2.9,13.7h3.9l-3.1-13.7
	c1.2-0.1,2.2-0.7,3-1.8c0.8-1,1.3-2.2,1.6-3.6c0.3-1.4,0.4-2.7,0.4-4c0-1.8-0.4-3-1.2-3.8c-0.9-0.8-2.2-1.2-4-1.2h-5.1L107.7,221.6z
	 M97.7,193.5l-0.5,3.2h4.4l-4,24.9h3.8l3.9-24.9h4.2l0.5-3.2H97.7z M82.6,216.8l-0.6,3.8c0.9,0.9,2.2,1.3,3.8,1.3
	c1.6,0,2.9-0.4,4.2-1.3c1.2-0.9,2.2-2,2.8-3.4c0.6-1.4,1-2.9,1-4.4c0-1.2-0.3-2.4-0.8-3.4c-0.5-1-1.3-2.2-2.3-3.5
	c-1-1.3-1.7-2.3-2.1-3c-0.4-0.7-0.6-1.5-0.6-2.3c0.2-1.3,0.7-2.2,1.5-2.9c0.7-0.7,1.6-1,2.5-1c1.2,0,2.2,0.4,3,1.2l0.6-3.8
	c-1.2-0.6-2.5-1-3.8-1c-1.4,0-2.6,0.4-3.8,1.1c-1.2,0.7-2.1,1.8-2.8,3.1c-0.7,1.3-1,2.9-1,4.6c0,1.3,0.3,2.4,0.7,3.3
	c0.5,0.9,1.2,1.9,2.2,3c1,1.1,1.7,2.1,2.2,2.9c0.5,0.8,0.7,1.8,0.7,2.9c0,1.2-0.4,2.3-1.2,3.1c-0.7,0.9-1.7,1.3-2.8,1.3
	C84.8,218.3,83.7,217.8,82.6,216.8z M64,213.2l4.4-14.3h0.1l-0.1,14.3H64z M67.9,193.5l-10.5,28.1H61l1.9-5.4h5.6l0.2,5.4h3.8
	l-1.6-28.1H67.9z M55.7,193.5l-3.3,20.1c-0.1,1.2-0.3,2-0.5,2.7c-0.2,0.7-0.5,1.2-1,1.5c-0.4,0.3-0.9,0.4-1.6,0.5
	c-0.9-0.1-1.7-0.4-2.4-0.9l-0.6,3.8c0.7,0.5,1.8,0.8,3.1,0.8c1.8,0,3.2-0.5,4.2-1.5c1.2-1.2,2-3.1,2.4-5.9l3.4-21.1H55.7z
	 M49.3,187.1l-1.7-1.5l-3.2,3.1l-2.4-3.1l-2,1.5l3.8,5.2L49.3,187.1z M35.1,216.8l-0.6,3.8c0.9,0.9,2.2,1.3,3.8,1.3
	c1.6,0,2.9-0.4,4.2-1.3c1.2-0.9,2.2-2,2.8-3.4c0.6-1.4,1-2.9,1-4.4c0-1.2-0.3-2.4-0.8-3.4c-0.5-1-1.3-2.2-2.3-3.5
	c-1-1.3-1.7-2.3-2.1-3c-0.4-0.7-0.6-1.5-0.6-2.3c0.2-1.3,0.7-2.2,1.5-2.9c0.7-0.7,1.6-1,2.5-1c1.2,0,2.2,0.4,3,1.2l0.6-3.8
	c-1.2-0.6-2.5-1-3.8-1c-1.4,0-2.6,0.4-3.8,1.1c-1.2,0.7-2.1,1.8-2.8,3.1c-0.7,1.3-1,2.9-1,4.6c0,1.3,0.3,2.4,0.7,3.3
	c0.5,0.9,1.2,1.9,2.2,3c1,1.1,1.7,2.1,2.2,2.9c0.5,0.8,0.7,1.8,0.7,2.9c0,1.2-0.4,2.3-1.2,3.1c-0.7,0.9-1.7,1.3-2.8,1.3
	C37.3,218.3,36.2,217.8,35.1,216.8z M34.8,193.5h-3.7l-4.4,28.1h3.7L34.8,193.5z M15.7,221.6h3l10-28.1h-3.5
	c-0.3,0.8-0.7,2.3-1.5,4.6c-0.8,2.3-1.5,4.4-2.1,6.3c-0.6,1.9-1.2,3.7-1.8,5.4c-0.5,1.7-1,3.3-1.4,4.8h-0.1l0.1-21.1h-3.7
	L15.7,221.6z"/>
<path class="st2" d="M99.9,163.1l-2.8-1.3l-2.8-1.3l-2.7-1.4l-2.6-1.5l-2.5-1.5l-2.4-1.6l-2.3-1.7l-2.2-1.7l-2.2-1.8l-2.1-1.8
	l-1.9-1.9l-1.8-1.9l-1.7-2l-1.6-2l-1.5-2.1l-1.4-2.1l-1.3-2.2l-1.2-2.2l-1-2.2l-0.9-2.3l-0.8-2.3l-0.6-2.3l-0.5-2.4l-0.4-2.4
	l-0.2-2.4l-0.1-2.4l0-0.8l0-0.8l0-0.8l0.1-0.8l0.1-0.8l0.1-0.8l0.1-0.8l0.1-0.8l0.1-0.8l0.2-0.8l0.2-0.8l0.2-0.8l0.2-0.8l0.2-0.8
	l0.2-0.8l0.2-0.8l0.3-0.8l0.3-0.8l0.3-0.8l0.3-0.8l0.3-0.8l0.3-0.7l0.3-0.7l0.4-0.7l0.4-0.7l0.4-0.7l0.4-0.7l0.4-0.7l0.4-0.7
	l0.4-0.7l0.5-0.7l0.5-0.8h15.5l-1.1,1.1L80,89.4l-0.6,0.7l-0.6,0.7l-0.6,0.7l-0.5,0.7l-0.5,0.7l-0.5,0.7l-0.5,0.7l-0.5,0.7l-0.5,0.7
	l-0.4,0.7l-0.4,0.7L74,98l-0.4,0.8l-0.4,0.8l-0.3,0.8l-0.3,0.8l-0.3,0.8l-0.3,0.8l-0.3,0.8l-0.2,0.8l-0.2,0.8l-0.2,0.8l-0.2,0.8
	l-0.1,0.8l-0.1,0.8l-0.1,0.8l-0.1,0.8l-0.1,0.8l0,0.8l0,0.8l0,1.6l0.1,1.6l0.2,1.5l0.3,1.5l0.4,1.5l0.4,1.5l0.5,1.5l0.6,1.5l0.7,1.4
	l0.7,1.4l0.8,1.4l0.9,1.4l0.9,1.4l1,1.4l1.1,1.3l1.1,1.3l1.2,1.3l1.3,1.3l1.3,1.2l1.4,1.2l1.5,1.2l1.5,1.2l1.6,1.1l1.6,1.1l1.7,1.1
	l1.7,1l1.8,1l1.8,1l1.9,0.9l1.9,0.9l2,0.9l1.6,0.7V59.2c0.8-0.3,1.5-0.5,2.3-0.8l1.4-0.5c1-0.3,1.9-0.6,2.9-0.9l1.5-0.4
	c1-0.3,2-0.5,3-0.8l1.1-0.3v90.9c0.2,0,0.4,0,0.6,0l2.3-0.2l2.2-0.5l2.1-0.7l2-0.9l1.9-1l1.8-1.2l1.7-1.4l1.5-1.5l1.4-1.7l1.2-1.8
	l1-1.9l0.8-2l0.7-2.1l0.4-2.2l0.2-2.3l0-2.1l-0.1-0.7c-0.1-0.5-0.1-0.9-0.2-1.4l-0.1-0.7c-0.1-0.5-0.2-0.9-0.3-1.3
	c-0.1-0.3-0.2-0.7-0.3-1c-0.2-0.6-0.4-1.1-0.6-1.7c-0.2-0.4-0.4-0.9-0.5-1.3l-0.4-0.9c-0.6-1.4-1.3-2.8-2-4.1c-0.5-1-1-2-1.4-3
	c-0.4-0.8-0.7-1.6-1.1-2.4c-0.2-0.5-0.4-1.1-0.6-1.6c-0.2-0.6-0.4-1.1-0.6-1.7l-0.4-1.1c-0.1-0.5-0.2-0.9-0.4-1.4
	c-0.2-0.8-0.4-1.5-0.5-2.3l-0.4-2.6l-0.1-2.8l0-1.8l0.1-1.8l0.2-1.7l0.3-1.7l0.4-1.7l0.5-1.6l0.5-1.6l0.6-1.6l0.7-1.5l0.8-1.5
	l0.8-1.5l0.9-1.4l1-1.4l1-1.3l1.1-1.3l1.1-1.2l1.2-1.2l1.3-1.1l1.3-1l1.4-1l1.4-0.9l1.5-0.8l1.5-0.8l1.5-0.7l1.6-0.6l1.6-0.5
	l1.6-0.5l1.7-0.4l1.7-0.3l1.7-0.2l1.8-0.1l1.8,0c0.6,0,1.2,0,1.8,0c0.5,0,0.9,0,1.3,0.1c0.4,0,0.9,0.1,1.3,0.1
	c0.6,0.1,1.2,0.1,1.8,0.2l0.9,0.1l1.6,0.3l1.2,0.3l1.2,0.3l1.2,0.4l1.2,0.4l0.7,0.3l0.7,0.3l0.6,0.3l0.6,0.3l0.6,0.3l0.6,0.3
	l0.6,0.3l0.6,0.3c0.4,0.3,0.8,0.5,1.3,0.8l0.8,0.5c0.4,0.3,0.8,0.6,1.2,0.9l0.6,0.4l0.5,0.4l0.5,0.4l0.5,0.4l0.5,0.5l0.5,0.5l1,1
	c0.4,0.4,0.8,0.8,1.2,1.3c0.6,0.7,1.2,1.3,1.7,2l1.3-0.2l1.7-0.2l1.8-0.1c0.8,0,1.6,0,2.4,0l0.8,0c0.6,0,1.2,0.1,1.8,0.1l0.9,0.1
	c0.6,0.1,1.2,0.1,1.8,0.2c0.5,0.1,0.9,0.1,1.4,0.2c0.5,0.1,0.9,0.2,1.4,0.3c0.5,0.1,1.1,0.3,1.6,0.4c0.5,0.1,1.1,0.3,1.6,0.5
	l1.2,0.4l1.1,0.4l1.1,0.5l1.1,0.5l1.1,0.6l1,0.6l1,0.6l1,0.7l1.3,0.9l0.6,0.4l0.5,0.4l0.5,0.4l1,0.9l0.5,0.5l1,1
	c0.4,0.4,0.8,0.8,1.2,1.3c0.7,0.8,1.4,1.6,2.1,2.4c-0.7,0.5-1.4,0.9-2.2,1.4c-2.8,1.8-5.6,3.5-8.4,5.3l-1.9-2
	c-0.3-0.3-0.7-0.6-1.1-1c-0.4-0.3-0.7-0.6-1.1-0.9c-0.4-0.3-0.8-0.6-1.2-0.8c-0.4-0.3-0.8-0.5-1.2-0.8c-0.3-0.2-0.6-0.3-1-0.5
	c-0.5-0.3-1.1-0.5-1.6-0.8l-0.9-0.3l-0.9-0.3l-0.9-0.3l-1-0.2c-0.6-0.1-1.2-0.2-1.8-0.3l-0.6-0.1c-0.6-0.1-1.2-0.1-1.9-0.1
	c-0.4,0-0.7,0-1.1,0l-1,0l-1,0.1l-1,0.1l-1,0.1l-2.2,0.5l-2.1,0.7l-2,0.8l-1.9,1l-1.8,1.2l-1.7,1.4c-0.4,0.4-0.8,0.7-1.1,1.1
	c-0.3,0.3-0.5,0.6-0.8,0.9l-0.3,0.3l-1.3,1.7l-1.1,1.8l-0.9,2l-0.7,2l-0.5,2.1l-0.3,2.2l-0.1,0.8c0,0.5,0,1.1,0,1.7l0,0.8l0.2,2
	c0.1,0.5,0.2,0.9,0.3,1.4c0.1,0.3,0.2,0.7,0.3,1c0.2,0.7,0.4,1.3,0.7,2c0.1,0.3,0.2,0.7,0.4,1l0.5,1.1c0.3,0.6,0.5,1.1,0.8,1.7
	c0.9,1.9,1.9,3.7,2.9,5.6l0.3,0.6c0.4,0.9,0.8,1.8,1.2,2.7l0.2,0.4c0.2,0.4,0.3,0.8,0.5,1.2c0.3,0.7,0.5,1.4,0.7,2.1
	c0.1,0.5,0.2,0.9,0.4,1.4c0.2,0.6,0.3,1.2,0.4,1.8l0.1,0.5l0.4,2.7l0.1,2.9l0,1.8l-0.1,1.8l-0.2,1.8l-0.3,1.7l-0.4,1.7l-0.5,1.7
	l-0.6,1.6l-0.6,1.6l-0.7,1.6l-0.8,1.5l-0.8,1.5l-0.9,1.4l-1,1.4l-1,1.3l-1.1,1.3l-1.2,1.2l-1.2,1.2l-1.3,1.1l-1.3,1l-1.4,1l-1.4,0.9
	l-1.5,0.8l-1.5,0.8l-1.5,0.7l-1.6,0.6l-1.6,0.6l-1.7,0.5l-1.7,0.4l-1.7,0.3l-1.8,0.2l-1.8,0.1l-1.8,0l-1.3,0l-2.1-0.1
	c-0.5-0.1-1.1-0.1-1.6-0.2c-0.5-0.1-1.1-0.2-1.6-0.3l-1.1-0.2c-0.7-0.2-1.3-0.3-2-0.5c-0.4-0.1-0.8-0.2-1.2-0.3l-1.3-0.4l-1.2-0.5
	l-1.2-0.5l-1.2-0.6c-0.3-0.2-0.7-0.4-1-0.6c-0.6-0.3-1.1-0.6-1.7-1l-1.1-0.7l-1.1-0.7l-1-0.8l-1-0.8c-0.5-0.4-1-0.9-1.4-1.3
	c-0.3-0.3-0.6-0.5-0.8-0.8l-0.8-0.9l-0.8-0.9l-0.8-0.9l-0.7-0.8c-0.6,0.1-1.3,0.3-1.9,0.4c-0.6,0.1-1.1,0.2-1.7,0.2
	c-0.9,0.1-1.8,0.2-2.7,0.2v10.3l-3.6-0.9l-3.2-0.9l-3.1-1l-3.1-1.1l-3-1.1L99.9,163.1 M180.5,74l-0.7-0.5l-0.7-0.5l-0.7-0.5
	l-0.7-0.5l-0.7-0.4l-0.7-0.4l-1.8-0.8l-0.9-0.3l-0.9-0.3l-0.9-0.3l-1-0.2c-0.6-0.1-1.2-0.2-1.8-0.3l-0.6-0.1
	c-0.7-0.1-1.5-0.1-2.2-0.2l-0.7,0l-1,0l-1,0.1l-1,0.1l-1,0.1l-2.2,0.5l-2.1,0.7l-2,0.8l-1.9,1l-1.8,1.2l-1.7,1.4
	c-0.4,0.4-0.8,0.7-1.1,1.1c-0.4,0.4-0.7,0.8-1.1,1.2l-1.3,1.7l-1.1,1.8l-0.9,1.9l-0.7,2l-0.5,2.1l-0.3,2.2c0,0.4-0.1,0.8-0.1,1.2
	c0,0.6,0,1.1,0,1.7l0,0.4l0.2,2c0.1,0.6,0.2,1.2,0.4,1.7c0.1,0.3,0.2,0.7,0.3,1l0.9,2.6l4.5,9l1.4,3l1.2,3.3l0.9,3.7l0.4,2.7
	c0,0.5,0.1,1,0.1,1.5c0,0.7,0,1.4,0,2l0,0.5l-0.2,2.4c-0.1,0.4-0.1,0.9-0.2,1.3c-0.1,0.7-0.2,1.5-0.4,2.2c-0.1,0.4-0.2,0.9-0.3,1.3
	c-0.2,0.7-0.4,1.4-0.6,2.1c-0.2,0.7-0.5,1.4-0.7,2c-0.2,0.4-0.3,0.8-0.5,1.2c-0.3,0.7-0.6,1.3-0.9,1.9c-0.2,0.4-0.4,0.8-0.6,1.2
	c-0.4,0.6-0.7,1.2-1.1,1.8c-0.2,0.4-0.5,0.7-0.7,1.1c-0.4,0.6-0.8,1.1-1.3,1.7c-0.3,0.3-0.5,0.7-0.8,1c-0.5,0.5-0.9,1.1-1.4,1.6
	c-0.3,0.3-0.6,0.6-0.9,0.9c-0.4,0.4-0.8,0.8-1.3,1.2c-0.4,0.4-0.9,0.7-1.3,1.1c-0.8,0.6-1.6,1.2-2.4,1.8c0.4,0.4,0.9,0.8,1.3,1.2
	l0.4,0.3l0.4,0.3l0.8,0.6l0.4,0.3l0.9,0.6l0.4,0.3l0.9,0.5l0.9,0.5l1.2,0.5c0.4,0.1,0.8,0.3,1.1,0.4c0.4,0.1,0.8,0.2,1.1,0.3
	l0.8,0.2l0.6,0.1l0.6,0.1l0.6,0.1l0.6,0.1l0.6,0.1l0.6,0.1l0.6,0l0.6,0c0.4,0,0.7,0,1.1,0c0.6,0,1.2-0.1,1.8-0.1l2.2-0.3l2.1-0.6
	l2.1-0.8l2-0.9l1.9-1.1c0.5-0.4,1.1-0.8,1.6-1.2c0.3-0.3,0.6-0.5,0.9-0.8c0.3-0.3,0.6-0.6,0.9-0.9c0.4-0.4,0.7-0.8,1.1-1.2l0.3-0.3
	l1.3-1.7c0.2-0.3,0.4-0.7,0.6-1c0.3-0.6,0.7-1.2,1-1.8l0.9-2l0.7-2.1l0.4-2.2l0.2-2.3l0-2.1c0-0.4-0.1-0.7-0.1-1
	c-0.1-0.6-0.2-1.2-0.3-1.7c-0.1-0.5-0.2-0.9-0.3-1.4c-0.1-0.4-0.3-0.9-0.4-1.3l-0.3-0.9c-0.2-0.6-0.5-1.2-0.7-1.8
	c-0.3-0.6-0.5-1.2-0.8-1.8c-1-2.1-2.1-4.3-3.1-6.4c-0.3-0.7-0.7-1.5-1-2.2l-0.4-1.1c-0.3-0.7-0.5-1.5-0.8-2.2l-0.4-1.1
	c-0.2-0.6-0.3-1.2-0.5-1.8c-0.1-0.6-0.3-1.2-0.4-1.8l-0.4-2.6l-0.1-2.8l0-1.8l0.1-1.8l0.2-1.8l0.3-1.7l0.4-1.7l0.5-1.7l0.5-1.6
	l0.6-1.6L169,89l0.8-1.5l0.8-1.5l0.9-1.4l1-1.4l1-1.3l1.1-1.3l1.2-1.2l1.2-1.1l1.3-1.1l1.3-1l1.9-1.3l-0.4-0.4L180.5,74z
	 M235.7,151.8c0,0-0.1,0.1-0.1,0.1c-6.8,7.2-15.4,13.6-25.3,18.7c-0.1,0-0.1,0.1-0.2,0.1c-2,1-4.1,2-6.3,3c-0.1,0-0.1,0.1-0.2,0.1
	c-0.5,0.2-1,0.4-1.5,0.6c-0.1,0-0.2,0.1-0.2,0.1c-2.2,0.9-4.4,1.7-6.6,2.5c-0.1,0-0.2,0.1-0.3,0.1c-0.5,0.2-1.1,0.4-1.6,0.5
	c-0.1,0-0.2,0.1-0.2,0.1c-2.3,0.7-4.6,1.4-6.9,2.1c-0.1,0-0.2,0.1-0.4,0.1c-2.3,0.6-4.6,1.2-7,1.7c-0.2,0-0.3,0.1-0.5,0.1
	c-0.5,0.1-1,0.2-1.5,0.3c-0.2,0-0.4,0.1-0.5,0.1c-0.5,0.1-1.1,0.2-1.6,0.3c-0.1,0-0.1,0-0.2,0c-7.9,1.4-16.3,2.1-24.8,2.1
	c-7.2,0-14.2-0.5-21-1.5h0c-0.1,0-0.1,0-0.2,0c-2-0.3-4-0.6-6-1c-0.1,0-0.2,0-0.4-0.1c-0.5-0.1-1-0.2-1.6-0.3
	c-0.2-0.1-0.5-0.1-0.7-0.2c-0.5-0.1-1-0.2-1.6-0.3c-0.2,0-0.4-0.1-0.6-0.1c-0.5-0.1-1.1-0.3-1.6-0.4c-0.2,0-0.3-0.1-0.5-0.1
	c-0.6-0.1-1.2-0.3-1.7-0.4c0,0-0.1,0-0.1,0c-2.6-0.7-5.2-1.5-7.8-2.3c-0.1,0-0.2-0.1-0.3-0.1c-0.5-0.2-1-0.3-1.5-0.5
	c-0.2-0.1-0.4-0.1-0.6-0.2c-0.5-0.2-1-0.4-1.5-0.5c-0.2-0.1-0.3-0.1-0.5-0.2c-0.5-0.2-1-0.4-1.5-0.6c-0.2-0.1-0.3-0.1-0.5-0.2
	c-0.5-0.2-1-0.4-1.5-0.6c-0.2-0.1-0.3-0.1-0.5-0.2c-0.5-0.2-0.9-0.4-1.4-0.6c-0.3-0.1-0.5-0.2-0.8-0.4c-1.5-0.6-2.9-1.3-4.3-2
	c-0.1-0.1-0.3-0.1-0.4-0.2c-0.4-0.2-0.8-0.4-1.2-0.6c-0.2-0.1-0.5-0.2-0.7-0.4c-0.4-0.2-0.8-0.4-1.2-0.6c-0.2-0.1-0.4-0.2-0.6-0.3
	c-0.4-0.2-0.8-0.4-1.2-0.6c-0.2-0.1-0.4-0.2-0.6-0.3c-0.4-0.2-0.8-0.5-1.3-0.7c-0.1,0-0.2-0.1-0.2-0.1c-1.5-0.9-2.9-1.8-4.3-2.7
	c-0.1-0.1-0.3-0.2-0.4-0.3c-0.4-0.3-0.8-0.6-1.2-0.8c-0.1-0.1-0.2-0.2-0.4-0.2c-0.4-0.3-0.7-0.5-1.1-0.8c-0.2-0.1-0.4-0.3-0.6-0.4
	c-0.3-0.2-0.6-0.5-0.9-0.7c-0.2-0.2-0.4-0.3-0.6-0.5c-0.3-0.2-0.6-0.5-0.9-0.7c-0.2-0.2-0.4-0.3-0.7-0.5c-0.3-0.2-0.6-0.5-0.8-0.7
	c-0.3-0.2-0.5-0.4-0.8-0.7c-0.2-0.2-0.4-0.4-0.7-0.6c-0.5-0.4-0.9-0.8-1.4-1.2c-0.2-0.2-0.4-0.3-0.6-0.5c-0.3-0.3-0.6-0.5-0.9-0.8
	c-0.2-0.2-0.4-0.4-0.6-0.6c-0.3-0.2-0.5-0.5-0.8-0.7c-0.2-0.2-0.4-0.4-0.6-0.6c-0.3-0.3-0.5-0.5-0.8-0.8c-0.2-0.2-0.4-0.4-0.6-0.6
	c-0.2-0.2-0.5-0.5-0.7-0.7c-0.2-0.2-0.4-0.4-0.6-0.6c-0.2-0.3-0.5-0.5-0.7-0.8c-0.2-0.2-0.3-0.4-0.5-0.6c-0.3-0.4-0.7-0.8-1-1.2
	c0-0.1-0.1-0.1-0.1-0.2c-0.4-0.5-0.8-0.9-1.1-1.4c-0.2-0.2-0.3-0.4-0.5-0.6c-0.2-0.3-0.4-0.6-0.7-0.9c-0.2-0.2-0.3-0.4-0.5-0.6
	c-0.2-0.3-0.4-0.5-0.6-0.8c-0.2-0.2-0.3-0.5-0.5-0.7c-0.2-0.3-0.4-0.6-0.6-0.8c-0.2-0.2-0.3-0.5-0.4-0.7c-0.2-0.3-0.3-0.5-0.5-0.8
	c-0.2-0.2-0.3-0.5-0.5-0.7c-0.2-0.3-0.4-0.6-0.5-0.9c-0.1-0.2-0.2-0.4-0.3-0.6c-0.3-0.5-0.5-0.9-0.8-1.4c0,0,0-0.1-0.1-0.1
	c-0.3-0.5-0.5-1-0.8-1.6c-0.1-0.2-0.2-0.3-0.2-0.5c-0.2-0.4-0.3-0.7-0.5-1.1c-0.1-0.2-0.2-0.4-0.3-0.6c-0.1-0.3-0.3-0.7-0.4-1
	c-0.1-0.2-0.2-0.4-0.2-0.6c-0.1-0.3-0.3-0.7-0.4-1c-0.1-0.2-0.2-0.4-0.2-0.7c-0.1-0.3-0.2-0.7-0.3-1c-0.1-0.2-0.1-0.4-0.2-0.6
	c-0.1-0.3-0.2-0.7-0.3-1c-0.1-0.2-0.1-0.4-0.2-0.6c-0.1-0.5-0.3-1-0.4-1.5c0,0,0-0.1,0-0.1c-0.1-0.6-0.3-1.1-0.4-1.7
	c0-0.2-0.1-0.4-0.1-0.6c-0.1-0.4-0.1-0.7-0.2-1.1c0-0.2-0.1-0.5-0.1-0.7c-0.1-0.3-0.1-0.7-0.2-1c0-0.2-0.1-0.5-0.1-0.7
	c0-0.3-0.1-0.7-0.1-1c0-0.2-0.1-0.5-0.1-0.7c0-0.4-0.1-0.7-0.1-1.1c0-0.2,0-0.5-0.1-0.7c0-0.4,0-0.8-0.1-1.2c0-0.2,0-0.4,0-0.6
	c0-0.6,0-1.2,0-1.7v0c0-0.6,0-1.2,0-1.9v0c0-0.6,0.1-1.2,0.1-1.8c0-0.6,0.1-1.2,0.2-1.8v0c0.1-0.6,0.1-1.2,0.2-1.8
	c0.1-0.6,0.2-1.2,0.3-1.8c0.1-0.6,0.2-1.2,0.4-1.8c0.1-0.6,0.3-1.2,0.4-1.8c0.2-0.6,0.3-1.2,0.5-1.8c0.2-0.6,0.4-1.2,0.5-1.8
	c0.2-0.6,0.4-1.2,0.6-1.7s0.4-1.1,0.7-1.7v0c0.2-0.6,0.5-1.1,0.7-1.7c0.3-0.6,0.5-1.1,0.8-1.7c0.3-0.6,0.5-1.1,0.8-1.7v0
	c0.3-0.6,0.6-1.1,0.9-1.6c0.3-0.5,0.6-1.1,0.9-1.6c0.3-0.5,0.7-1.1,1-1.6c0.3-0.5,0.7-1.1,1.1-1.6c0,0,0,0,0,0
	c0.4-0.5,0.7-1,1.1-1.6c0,0,0,0,0,0c0.4-0.5,0.8-1,1.2-1.5c0,0,0,0,0,0c0.4-0.5,0.8-1,1.2-1.5c0,0,0,0,0,0c0.4-0.5,0.8-1,1.3-1.5
	l0,0c0.4-0.5,0.9-1,1.3-1.5c0.4-0.5,0.9-1,1.4-1.5l0,0c0.5-0.5,0.9-1,1.4-1.4c0.5-0.5,1-0.9,1.5-1.4c0.5-0.5,1-0.9,1.5-1.4
	c0.5-0.5,1-0.9,1.6-1.4c0.5-0.4,1.1-0.9,1.6-1.3c0.5-0.4,1.1-0.9,1.6-1.3c0.6-0.4,1.1-0.9,1.7-1.3c0.6-0.4,1.1-0.8,1.7-1.2
	c0.6-0.4,1.2-0.8,1.8-1.2c0.6-0.4,1.2-0.8,1.8-1.2c0.6-0.4,1.2-0.8,1.8-1.2c0.6-0.4,1.3-0.8,1.9-1.1c0.6-0.4,1.3-0.7,1.9-1.1
	c0.6-0.4,1.3-0.7,2-1.1c0.7-0.3,1.3-0.7,2-1c0.7-0.3,1.4-0.7,2-1c0.7-0.3,1.4-0.6,2.1-1c0.7-0.3,1.4-0.6,2.1-0.9
	c0.7-0.3,1.4-0.6,2.1-0.9c0.7-0.3,1.4-0.6,2.2-0.9c0.7-0.3,1.5-0.6,2.2-0.8c0.7-0.3,1.5-0.5,2.2-0.8c0.7-0.3,1.5-0.5,2.3-0.7
	c0.8-0.2,1.5-0.5,2.3-0.7c0.8-0.2,1.5-0.5,2.3-0.7c0.8-0.2,1.6-0.4,2.3-0.6c0.8-0.2,1.6-0.4,2.4-0.6c0.8-0.2,1.6-0.4,2.4-0.6
	c0.8-0.2,1.6-0.3,2.4-0.5c0.8-0.2,1.6-0.3,2.4-0.5c0.8-0.1,1.6-0.3,2.5-0.4c0.8-0.1,1.7-0.3,2.5-0.4c0.8-0.1,1.7-0.2,2.5-0.3
	c0.8-0.1,1.7-0.2,2.5-0.3c0.8-0.1,1.7-0.2,2.6-0.3c0.9-0.1,1.7-0.1,2.6-0.2c0.9-0.1,1.7-0.1,2.6-0.2c0.9,0,1.7-0.1,2.6-0.1
	c0.9,0,1.8-0.1,2.6-0.1c0.9,0,1.8,0,2.6,0c0.8,0,1.5,0,2.3,0c0.1,0,0.2,0,0.3,0c0.7,0,1.5,0,2.2,0.1c0.1,0,0.1,0,0.2,0
	c0.7,0,1.4,0.1,2.1,0.1c0.1,0,0.2,0,0.4,0c0.7,0,1.3,0.1,2,0.1c0.1,0,0.3,0,0.4,0c0.7,0,1.4,0.1,2,0.2c0.1,0,0.1,0,0.2,0
	c0.7,0.1,1.4,0.1,2.1,0.2c0.2,0,0.3,0,0.5,0c0.6,0.1,1.2,0.1,1.8,0.2c0.2,0,0.4,0,0.6,0.1c0.6,0.1,1.2,0.1,1.8,0.2
	c0.2,0,0.3,0,0.5,0.1c0.6,0.1,1.3,0.2,1.9,0.3c0.1,0,0.2,0,0.3,0.1c0.6,0.1,1.2,0.2,1.8,0.3c0.1,0,0.3,0,0.4,0.1
	c0.6,0.1,1.2,0.2,1.8,0.3c0.2,0,0.4,0.1,0.6,0.1c0.5,0.1,1,0.2,1.6,0.3c0.2,0,0.4,0.1,0.6,0.1c0.6,0.1,1.1,0.2,1.7,0.4
	c0.2,0,0.4,0.1,0.6,0.1c0.5,0.1,1,0.2,1.5,0.3c0.3,0.1,0.6,0.1,0.9,0.2c0.4,0.1,0.8,0.2,1.2,0.3c0.3,0.1,0.5,0.1,0.8,0.2
	c0.4,0.1,0.8,0.2,1.3,0.3c0.4,0.1,0.7,0.2,1.1,0.3c0.3,0.1,0.7,0.2,1,0.3c0.3,0.1,0.7,0.2,1,0.3c0.4,0.1,0.9,0.3,1.3,0.4
	c0.2,0.1,0.5,0.1,0.7,0.2c0.5,0.1,0.9,0.3,1.4,0.4c0.3,0.1,0.6,0.2,0.9,0.3c0.4,0.1,0.8,0.3,1.1,0.4c0.3,0.1,0.6,0.2,0.8,0.3
	c0.1,0,0.3,0.1,0.4,0.1c0,0,0,0,0,0c0,0,0,0,0,0c-0.8,1.3-1.3,2.8-1.3,4.4c0,4.6,3.8,8.4,8.4,8.4c3.9,0,7.1-2.6,8.1-6.2
	c1,0.5,2,1.1,3,1.6c0,0,0.1,0,0.1,0.1c1.1,0.7,2.3,1.3,3.4,2c0,0,0,0,0.1,0c1.7,1,3.3,2.1,4.9,3.2c0,0,0.1,0,0.1,0.1
	c1,0.7,2.1,1.5,3,2.2c0,0,0,0,0.1,0.1c1,0.8,2,1.5,2.9,2.3c0,0,0,0,0.1,0.1c14.9,12.5,23.8,28.6,23.8,46.2
	C252.5,126.9,246.3,140.4,235.7,151.8z"/>
</svg>
