    <svg
      xmlns="http://www.w3.org/2000/svg"
      width="229"
      height="41"
      version="1.1"
      viewBox="0 0 229 41"
    >
      <path fill="#fff" strokeWidth="1.032" d="M0 0H228.897V41H0z"></path>
      <path
        fill="#72727c"
        stroke="#767676"
        strokeDasharray="none"
        strokeMiterlimit="4"
        strokeOpacity="1"
        strokeWidth="0.5"
        d="M207.752 25.082h-1.174v-4.21q0-1.218-.38-1.763-.372-.544-1.26-.544-.752 0-1.282.688-.523.687-.523 1.647v4.182h-1.174v-4.354q0-2.163-1.669-2.163-.773 0-1.275.652-.5.644-.5 1.683v4.182h-1.175v-7.333h1.174v1.16h.029q.78-1.332 2.277-1.332.752 0 1.31.422.56.416.767 1.096.816-1.518 2.435-1.518 2.42 0 2.42 2.986zm-15.941.172q-1.626 0-2.6-1.024-.966-1.031-.966-2.729 0-1.847 1.01-2.886 1.01-1.038 2.728-1.038 1.64 0 2.557 1.01.923 1.01.923 2.8 0 1.754-.995 2.814-.988 1.053-2.657 1.053zm.086-6.689q-1.132 0-1.79.773-.66.767-.66 2.12 0 1.304.667 2.056.666.752 1.783.752 1.139 0 1.747-.738.616-.738.616-2.098 0-1.375-.616-2.12-.608-.745-1.747-.745zm-5.371 6.517h-1.175V20.9q0-2.335-1.704-2.335-.88 0-1.461.666-.573.659-.573 1.669v4.182h-1.174v-7.333h1.174v1.217h.029q.83-1.39 2.406-1.39 1.203 0 1.84.781.638.774.638 2.242zm-8.465 0h-1.174v-1.16h-.03q-.73 1.332-2.262 1.332-2.621 0-2.621-3.123V17.75h1.167v4.196q0 2.32 1.776 2.32.86 0 1.411-.63.559-.637.559-1.661v-4.225h1.174zm-7.72-.337q-.845.509-2.005.509-1.569 0-2.535-1.017-.96-1.024-.96-2.65 0-1.812 1.038-2.907 1.039-1.103 2.772-1.103.967 0 1.704.358v1.203q-.816-.573-1.747-.573-1.124 0-1.848.81-.716.801-.716 2.112 0 1.289.673 2.034.68.745 1.82.745.959 0 1.804-.638zm-.043-10.749l-1.533 2.363h-.945l-1.547-2.363h.824l1.174 1.64 1.175-1.64zm-7.183 11.086h-1.174v-1.146h-.03q-.765 1.318-2.255 1.318-1.096 0-1.719-.58-.616-.58-.616-1.54 0-2.055 2.421-2.392l2.199-.308q0-1.869-1.511-1.869-1.325 0-2.392.902v-1.203q1.081-.687 2.492-.687 2.585 0 2.585 2.735zm-1.174-3.71l-1.77.244q-.816.114-1.231.408-.415.287-.415 1.024 0 .537.38.881.386.337 1.023.337.874 0 1.44-.61.573-.615.573-1.553zm-5.35-2.435q-.308-.236-.888-.236-.752 0-1.26.71-.502.708-.502 1.933v3.738h-1.174v-7.333h1.174v1.51h.029q.25-.773.766-1.202.516-.437 1.153-.437.458 0 .702.1zm-9.417 6.073q-.416.23-1.096.23-1.927 0-1.927-2.149v-4.34h-1.26V17.75h1.26v-1.79l1.175-.38v2.17h1.848v1.002h-1.848v4.132q0 .738.25 1.053.251.315.831.315.444 0 .767-.243zm-4.362-9.754q-.344-.193-.78-.193-1.232 0-1.232 1.554v1.132h1.719v1.002h-1.72v6.331h-1.166v-6.33h-1.254v-1.003h1.254v-1.19q0-1.152.666-1.818.666-.673 1.661-.673.537 0 .852.129zm-9.152 9.998q-1.626 0-2.6-1.024-.967-1.031-.967-2.729 0-1.847 1.01-2.886 1.01-1.038 2.729-1.038 1.64 0 2.556 1.01.924 1.01.924 2.8 0 1.754-.995 2.814-.989 1.053-2.657 1.053zm.086-6.689q-1.132 0-1.79.773-.66.767-.66 2.12 0 1.304.667 2.056.666.752 1.783.752 1.138 0 1.747-.738.616-.738.616-2.098 0-1.375-.616-2.12-.609-.745-1.747-.745zm-9.811 6.252v-1.26q.96.709 2.112.709 1.547 0 1.547-1.032 0-.293-.136-.494-.129-.207-.358-.365-.222-.158-.53-.28-.3-.128-.652-.264-.487-.194-.86-.387-.364-.2-.615-.444-.243-.25-.372-.566-.122-.315-.122-.737 0-.516.236-.91.237-.401.63-.666.394-.272.896-.408.508-.136 1.045-.136.953 0 1.705.33v1.188q-.81-.53-1.862-.53-.33 0-.595.079-.265.071-.458.208-.186.136-.294.329-.1.186-.1.415 0 .287.1.48.108.193.308.344.2.15.487.272.287.122.652.265.487.186.874.387.386.193.658.444.273.243.416.565.15.323.15.767 0 .544-.243.945-.237.401-.638.666-.4.265-.923.394t-1.096.129q-1.132 0-1.962-.437zm-5.085.437q-1.626 0-2.6-1.024-.966-1.031-.966-2.729 0-1.847 1.01-2.886 1.01-1.038 2.728-1.038 1.64 0 2.556 1.01.924 1.01.924 2.8 0 1.754-.995 2.814-.988 1.053-2.657 1.053zm.086-6.689q-1.132 0-1.79.773-.66.767-.66 2.12 0 1.304.667 2.056.666.752 1.783.752 1.139 0 1.747-.738.616-.738.616-2.098 0-1.375-.616-2.12-.608-.745-1.747-.745zm-4.426.372q-.308-.236-.888-.236-.752 0-1.26.71-.502.708-.502 1.933v3.738h-1.174v-7.333h1.174v1.51h.029q.25-.773.766-1.202.516-.437 1.153-.437.459 0 .702.1zm-5.615 5.808q-.845.509-2.005.509-1.568 0-2.535-1.017-.96-1.024-.96-2.65 0-1.812 1.039-2.907 1.038-1.103 2.771-1.103.967 0 1.705.358v1.203q-.817-.573-1.748-.573-1.124 0-1.847.81-.716.801-.716 2.112 0 1.289.673 2.034.68.745 1.819.745.96 0 1.804-.638zm-7.949-8.858q-.315 0-.537-.215-.222-.215-.222-.544 0-.33.222-.545.222-.222.537-.222.323 0 .545.222.229.215.229.545 0 .315-.23.537-.221.222-.544.222zm.573 9.195h-1.174v-7.333h1.174zm-3.724 0H96.6v-6.89q0-.816.1-1.997h-.028q-.172.694-.308.995l-3.51 7.892h-.586l-3.502-7.835q-.15-.343-.308-1.052h-.029q.057.615.057 2.012v6.875h-1.16v-10.27h1.59l3.151 7.162q.365.823.473 1.232h.043q.308-.845.494-1.26l3.215-7.134h1.504zm-16.17-6.997l-4.34 5.994h4.297v1.003h-6.023v-.365l4.34-5.966h-3.932V17.75h5.658zM65.84 24.817v-1.26q.96.709 2.112.709 1.547 0 1.547-1.032 0-.293-.136-.494-.129-.207-.358-.365-.222-.158-.53-.28-.3-.128-.652-.264-.487-.194-.859-.387-.365-.2-.616-.444-.243-.25-.372-.566-.122-.315-.122-.737 0-.516.236-.91.237-.401.63-.666.394-.272.896-.408.508-.136 1.045-.136.953 0 1.705.33v1.188q-.81-.53-1.862-.53-.33 0-.595.079-.265.071-.458.208-.186.136-.294.329-.1.186-.1.415 0 .287.1.48.108.193.308.344.2.15.487.272.287.122.652.265.487.186.874.387.386.193.659.444.272.243.415.565.15.323.15.767 0 .544-.243.945-.236.401-.638.666-.4.265-.923.394t-1.096.129q-1.132 0-1.962-.437zm-2.507-8.93q-.315 0-.537-.215-.222-.215-.222-.544 0-.33.222-.545.222-.222.537-.222.322 0 .544.222.23.215.23.545 0 .315-.23.537-.222.222-.544.222zm.573 9.195h-1.174v-7.333h1.174zm-8.594-1.06h-.028v4.433H54.11V17.75h1.175v1.289h.028q.867-1.461 2.535-1.461 1.418 0 2.213.988.795.981.795 2.635 0 1.841-.895 2.951-.895 1.103-2.45 1.103-1.424 0-2.198-1.232zm-.028-2.958v1.025q0 .909.587 1.546.594.63 1.504.63 1.067 0 1.668-.816.61-.816.61-2.27 0-1.225-.567-1.92-.565-.694-1.532-.694-1.024 0-1.647.716-.623.71-.623 1.783zm-2.493-6.252l-3.802 10.27h-1.325l-3.724-10.27h1.34l2.842 8.143q.136.394.208.91h.029q.057-.43.236-.924l2.9-8.129z"
        fontFamily="Segoe UI"
        fontSize="14.667"
      ></path>
      <path
        fill="#8c8c8c"
        strokeWidth="1.032"
        d="M227.832 1v39H1.065V1h226.767m1.065-1H0v41h228.897z"
      ></path>
      <path fill="#f25022" d="M13 11H22V20H13z"></path>
      <path fill="#00a4ef" d="M13 21H22V30H13z"></path>
      <path fill="#7fba00" d="M23 11H32V20H23z"></path>
      <path fill="#ffb900" d="M23 21H32V30H23z"></path>
    </svg>