<svg
    x={0}
    y={0}
    viewBox="0 0 72.188 90"
    xmlSpace="preserve"
    width={165}
    id="svg66"
    height={90}
    xmlns="http://www.w3.org/2000/svg"
  >
    <style type="text/css" id="style2">
      {
        ".st2,.st4{display:inline}.st4{fill:#bcbec0}.st12,.st16{fill-rule:evenodd;clip-rule:evenodd;fill:#ec1164}.st16{fill:#bbbdbf}"
      }
    </style>
    <g id="Layer_2" transform="translate(-46.165 .195)">
      <g id="g63">
        <path className="st12" id="rect35" d="M0 0h55.3v55.3H0z" />
        <path
          d="M82.9 8.1c-10.8 0-19.7 8.8-19.7 19.7 0 10.9 8.8 19.7 19.7 19.7 10.9 0 19.7-8.8 19.7-19.7 0-10.9-8.8-19.7-19.7-19.7m8.5 11.2 2.7-2.7c-2.8-2.8-6.8-4.6-11-4.6-8.7 0-15.8 7.2-15.8 15.8 0 8.7 7.2 15.8 15.8 15.8 4.4 0 8.4-1.8 11.2-4.8L91.6 36c-2.2 2.3-5.2 3.7-8.5 3.7-6.5 0-11.9-5.4-11.9-11.9s5.4-11.9 11.9-11.9c3.1 0 6.1 1.3 8.3 3.4zm27.2 24.1c13.1 0 23.7-10.6 23.7-23.7v-7.9h-3.9v7.9c0 10.9-8.8 19.7-19.7 19.8V11.9h-3.9v31.7h3.9v-.2ZM50.5 4.1V8c-6.9 0-12.7 5.2-13.6 11.8H33C34 10.9 41.4 4 50.5 4.1Zm1 11.9v-4c-.3 0-.7-.1-1-.1-5.5 0-9.9 4.4-9.9 9.9 0 2.1.6 4 1.7 5.6.8 1.3 1.3 2.7 1.3 4.3 0 4.3-3.5 7.8-7.8 7.8S28 36 28 31.7h-4c0 6.5 5.3 11.9 11.9 11.9 6.5 0 11.9-5.3 11.9-11.9 0-2.3-.7-4.4-1.9-6.2h-.1c-.1-.2-.2-.4-.4-.5-.5-.9-.8-1.9-.8-3 0-3.3 2.6-5.9 5.9-5.9.3-.2.7-.2 1-.1zm3.8-16h55.3v55.3H55.3Zm81 60.1-1.8 11.5h4.1l.2-1.3h-2.6l.6-3.9h2.3l.2-1.3H137l.6-3.6h2.6l.2-1.3h-4.1zm-3.4 0-1.3 8.2c-.1.5-.1.8-.2 1.1-.1.3-.2.5-.4.6-.2.1-.4.2-.7.2-.4 0-.7-.2-1-.4l-.2 1.5c.3.2.7.3 1.3.3.7 0 1.3-.2 1.7-.6.5-.5.8-1.3 1-2.4l1.4-8.6h-1.6zm-10.2 11.5h1.5c.2-1 .3-2 .5-3 .1-1 .3-2 .4-2.9.1-1 .2-1.9.2-2.9l1.3 8.9h1.4l1.8-11.5h-1.5c-.2 1-.3 1.9-.4 2.7-.1.8-.2 1.4-.2 2 0 .6-.1 1.1-.2 1.7 0 .6-.1 1.4-.2 2.3l-1.3-8.7h-1.4zm-3.5-11.5-1.8 11.5h4.1l.2-1.3h-2.6l.6-3.9h2.3l.2-1.3h-2.3l.6-3.6h2.6l.2-1.3h-4.1zm-5.1 0-1.8 11.5h4.1l.2-1.3H114l1.6-10.2zm-5.3 0L107 71.6h4.1l.2-1.3h-2.6l.6-3.9h2.3l.2-1.3h-2.3l.6-3.6h2.6l.2-1.3h-4.1zm-6.3 11.5h1.2l4.1-11.5h-1.4c-.1.3-.3 1-.6 1.9-.3.9-.6 1.8-.9 2.6-.3.8-.5 1.5-.7 2.2-.2.7-.4 1.4-.6 2l.1-8.6h-1.5zm-8.3-6.4.6-3.8c.4 0 .8.1 1 .2.2.1.3.4.3.9 0 .7-.1 1.4-.4 1.9-.3.5-.8.8-1.5.8zm-2.5 6.4h1.5l.9-5.6 1.2 5.6h1.6L95.6 66c.5-.1.9-.3 1.2-.7.3-.4.5-.9.7-1.5.1-.6.2-1.1.2-1.6 0-.7-.2-1.2-.5-1.6-.4-.3-.9-.5-1.6-.5h-2.1Zm-3.5-11.5-1.8 11.5h4.1l.2-1.3h-2.6l.6-3.9H91l.2-1.3h-2.3l.6-3.6h2.6l.2-1.3h-4.1zm-5.9 0-.2 1.3h1.8l-1.6 10.2h1.6l1.6-10.2h1.7l.2-1.3zm-8.1 11.5h1.5c.2-1 .3-2 .5-3 .1-1 .3-2 .4-2.9.1-1 .2-1.9.2-2.9l1.3 8.9h1.4l1.8-11.5h-1.5c-.2 1-.3 1.9-.4 2.7-.1.8-.2 1.4-.2 2 0 .6-.1 1.1-.2 1.7 0 .6-.1 1.4-.2 2.3l-1.3-8.7h-1.4Zm-3.5-11.5-1.8 11.5H73l.2-1.3h-2.6l.6-3.9h2.3l.2-1.3h-2.3l.6-3.6h2.6l.2-1.3h-4.1zm-1.1.2c-.4-.2-.9-.3-1.4-.3-.4 0-.9.1-1.3.3-.4.2-.8.4-1.1.7-.4.4-.7 1-1.1 1.8-.3.8-.6 1.7-.8 2.6-.2 1-.3 1.9-.3 2.7 0 1.1.2 2 .4 2.5.2.4.5.6.9.9.4.2.9.3 1.4.3.5 0 1-.1 1.3-.3L68 70c-.3.2-.6.2-.9.3-.7 0-1.1-.3-1.3-.7-.2-.5-.3-1.1-.4-1.9 0-.7.1-1.3.2-2s.3-1.3.5-1.9c.2-.6.3-.9.5-1.2.2-.4.5-.7.9-.9.4-.2.7-.3 1-.3.4 0 .7.1 1 .3zm-9.5-.2h-1.5l-1.8 11.5h1.5zm-7.3 5.6.9-5.6h-1.5l-1.8 11.5h1.5zm0 0 1.2 5.9h1.8l-1.5-5.9 3.2-5.6h-1.6zM45 69.6l-.2 1.6c.4.4.9.5 1.6.5.6 0 1.2-.2 1.7-.5.5-.4.9-.8 1.1-1.4.3-.6.4-1.2.4-1.8 0-.5-.1-1-.3-1.4-.2-.4-.5-.9-.9-1.4-.4-.5-.7-.9-.9-1.2-.2-.3-.3-.6-.3-.9.1-.5.3-.9.6-1.2.3-.3.7-.4 1-.4.5 0 .9.2 1.2.5l.3-1.6c-.5-.3-1-.4-1.5-.4-.6 0-1.1.2-1.6.4-.5.3-.9.7-1.1 1.3-.3.5-.4 1.2-.4 1.9 0 .5.1 1 .3 1.4.2.4.5.8.9 1.2.4.5.7.9.9 1.2.2.3.3.7.3 1.2s-.2.9-.5 1.3-.7.5-1.1.5c-.6-.2-1.1-.4-1.5-.8Zm-3.3-9.5-1.8 11.5H44l.2-1.3h-2.6l1.6-10.2zm-7.1 8.2c0-.7.1-1.4.2-2.1.1-.7.2-1.4.4-2.2.2-.7.4-1.4.7-1.9.3-.5.6-.8 1-.8s.6.1.8.4c.1.3.2.7.2 1.3v.8c-.1.8-.2 1.7-.3 2.7-.2 1-.4 1.9-.7 2.6-.3.8-.7 1.1-1.2 1.2-.7 0-1-.5-1.1-1.5v-.5zm-1.7 0v.4c0 .5.1 1 .2 1.5.2.5.4.8.7 1.1.4.3.8.4 1.3.4.7 0 1.4-.2 1.9-.7.5-.4.9-1.1 1.3-1.8.3-.8.6-1.7.7-2.7.2-1 .3-2.1.4-3.3v-.4c0-.8-.2-1.5-.5-2.1-.3-.5-.9-.7-1.7-.7-.3 0-.6 0-.8.1-.8.2-1.5.7-2 1.7-.5.9-.8 1.9-1 3-.2.9-.3 2.2-.5 3.5zm.2-10.8-.7-.6-1.3 1.3-1-1.3-.8.6 1.5 2.1zm-5.8 12.1-.3 1.6c.4.4.9.5 1.6.5.6 0 1.2-.2 1.7-.5.5-.4.9-.8 1.1-1.4.3-.6.4-1.2.4-1.8 0-.5-.1-1-.3-1.4-.2-.4-.5-.9-.9-1.4-.4-.5-.7-.9-.9-1.2-.2-.3-.3-.6-.3-.9.1-.5.3-.9.6-1.2.3-.3.7-.4 1-.4.5 0 .9.2 1.2.5l.3-1.6c-.5-.3-1-.4-1.5-.4-.6 0-1.1.2-1.6.4-.5.3-.9.7-1.1 1.3-.3.5-.4 1.2-.4 1.9 0 .5.1 1 .3 1.4.2.4.5.8.9 1.2.4.5.7.9.9 1.2.2.3.3.7.3 1.2s-.2.9-.5 1.3-.7.5-1.1.5c-.5-.2-1-.4-1.4-.8z"
          id="path37"
        />
        <path
          d="M82.9 8.1c-10.8 0-19.7 8.8-19.7 19.7 0 10.9 8.8 19.7 19.7 19.7 10.9 0 19.7-8.8 19.7-19.7 0-10.9-8.8-19.7-19.7-19.7zm8.5 11.2 2.7-2.7c-2.8-2.8-6.8-4.6-11-4.6-8.7 0-15.8 7.2-15.8 15.8 0 8.7 7.2 15.8 15.8 15.8 4.4 0 8.4-1.8 11.2-4.8L91.6 36c-2.2 2.3-5.2 3.7-8.5 3.7-6.5 0-11.9-5.4-11.9-11.9s5.4-11.9 11.9-11.9c3.1 0 6.1 1.3 8.3 3.4z"
          id="path39"
        />
        <path
          d="M82.9 8.1c-10.8 0-19.7 8.8-19.7 19.7 0 10.9 8.8 19.7 19.7 19.7 10.9 0 19.7-8.8 19.7-19.7 0-10.9-8.8-19.7-19.7-19.7zm8.5 11.2 2.7-2.7c-2.8-2.8-6.8-4.6-11-4.6-8.7 0-15.8 7.2-15.8 15.8 0 8.7 7.2 15.8 15.8 15.8 4.4 0 8.4-1.8 11.2-4.8L91.6 36c-2.2 2.3-5.2 3.7-8.5 3.7-6.5 0-11.9-5.4-11.9-11.9s5.4-11.9 11.9-11.9c3.1 0 6.1 1.3 8.3 3.4z"
          id="path41"
        />
        <path
          className="st16"
          d="m151.3 70.4-.4 2.2c-.1.7.3 1.2.9 1.2.7 0 1.2-.4 1.3-1.1l.4-2.1c.1-.6-.3-1.1-.9-1.1-.7-.2-1.2.2-1.3.9m.4 2.2.4-2.3c0-.2.2-.3.4-.3s.3.1.3.3l-.4 2.3c0 .2-.2.4-.4.4s-.3-.1-.3-.4zm3.4.7-.1.3h.8l.9-5.6h-.7l-.3 1.8c-.2-.3-.4-.4-.6-.4-.5 0-.8.4-.9 1l-.4 2.3c-.1.6.1.9.5.9.3.1.5-.1.8-.3zm.1-.5c-.1.1-.3.2-.4.2-.2 0-.3-.1-.2-.4l.4-2.2c0-.3.2-.4.4-.4.1 0 .2.1.3.2z"
          id="path43"
        />
        <path
          className="st16"
          d="M160.1 78c-.5 0-.6-.4-.4-1.3.1-.9.3-1.3.8-1.3s.5.4.4 1.3c-.2.9-.4 1.3-.8 1.3m-.7 4.3c-.6 0-.6-.5-.5-1.6.1-.9.4-1.3.9-1.3s.6.5.4 1.5c-.1.9-.3 1.4-.8 1.4zm-.5-3.6c-.7.4-1.1 1.1-1.2 2.2-.3 1.8.2 2.7 1.5 2.7 1.2 0 2.1-.9 2.4-2.6.2-1.2 0-2-.5-2.3.6-.4.9-1 1.1-2 .3-1.5-.3-2.3-1.4-2.3-1.2 0-2 .8-2.2 2.3-.3 1-.2 1.6.3 2zm-5.9 2.2v.3c-.3 1.6.2 2.4 1.4 2.4s2.1-.8 2.3-2.1l.4-2.2c.2-1.2-.2-1.9-1-1.9-.4 0-.9.2-1.3.6l.5-2.1h2.3l.2-1.3h-3.3l-.9 4.6h1.1c.2-.5.5-.7.9-.7s.5.2.5.7l-.4 2.2c-.1.6-.4.9-.8.9-.5 0-.6-.3-.5-1l.1-.4zm-1.9-2.7c-.2.3-.5.5-.8.5-.5 0-.6-.3-.5-1l.2-1.2c.1-.6.4-.9.8-.9s.7.3.6.8zm-3.3 3.1c-.2 1.4.4 2.3 1.6 2.3 1.3 0 2.2-.8 2.4-2.2l.8-4.5c.3-1.6-.3-2.4-1.6-2.4-1.4 0-2.2.9-2.6 2.8-.3 1.8.1 2.7 1.3 2.7.4 0 .8-.2 1.1-.5l-.4 2.2c-.1.4-.4.7-.8.7s-.6-.3-.6-.7l.1-.6h-1.3zm-2.9-4.8h1.1l-1.1 6.8h1.3l1.5-8.8h-.9c-.4.5-.9.8-1.7 1.1zm8.2-8.7c5.7 0 10.4 4.6 10.4 10.4 0 5.7-4.6 10.4-10.4 10.4-5.7 0-10.4-4.6-10.4-10.4.1-5.7 4.7-10.4 10.4-10.4zm0-.8c6.2 0 11.3 5 11.3 11.3 0 6.2-5 11.3-11.3 11.3-6.2 0-11.3-5-11.3-11.3.1-6.3 5.1-11.3 11.3-11.3Z"
          id="path45"
        />
        <path
          d="M86.9 83.7h1.7l1-6.5h-1.7Zm1.2-7.7h1.7l.3-1.8h-1.7z"
          id="path47"
        />
        <path
          d="M99.2 82.6c0 .4-.1.8 0 1.1h1.6c0-.4.1-1.3.3-2.7l.6-4c.3-2-.2-3-1.7-3-1.4 0-2.6 1.1-2.9 2.7v.3h1.7l.1-.5c.1-.5.4-.8.9-.8.4 0 .5.3.4.9l-.2 1c-2.4 1.3-3.6 2.3-3.9 4.2-.2 1.4.2 2.1 1.1 2.1.6-.1 1.3-.5 2-1.3m.1-1.3c-.3.6-.8.9-1.2.9-.3 0-.5-.3-.4-.9.2-1 .7-1.6 1.9-2.4z"
          id="path49"
        />
        <path
          d="M90.4 81c-.3 1.9.5 2.9 1.9 2.9 1.6 0 2.6-1 2.9-2.9l.1-.8h-1.7l-.1.8c-.1.9-.3 1.3-.9 1.3-.6 0-.6-.4-.5-1.3l.7-4.2c.1-.7.4-1.1.9-1.1s.7.4.5 1.1l-.1.8h1.7l.1-.7c.3-1.8-.5-2.8-1.9-2.8s-2.6 1-2.9 2.8z"
          id="path51"
        />
        <path
          d="M82.5 83.7h1.7l1-6.2c.1-.9.7-1.5 1.6-1.5.2 0 .4 0 .5.1l.3-2h-.2c-.7 0-1.4.5-2 1.4l.2-1.3h-1.7z"
          id="path53"
        />
        <path
          id="polygon55"
          d="m80 83.7 3.1-9.5h-1.6l-1.7 5.9h-.1l-.1-5.9h-1.5l.4 9.5z"
        />
        <path
          d="M74.4 82.6c0 .4-.1.8 0 1.1H76c0-.4.1-1.3.3-2.7l.6-4c.3-2-.2-3-1.7-3-1.4 0-2.6 1.1-2.9 2.7v.3H74l.1-.5c.1-.5.4-.8.9-.8.4 0 .5.3.4.9l-.2 1c-2.4 1.3-3.6 2.3-3.9 4.2-.2 1.4.2 2.1 1.1 2.1.6-.1 1.4-.5 2-1.3m.2-1.3c-.3.6-.8.9-1.2.9-.3 0-.5-.3-.4-.9.2-1 .7-1.6 1.9-2.4z"
          id="path57"
        />
        <path
          className="st12"
          d="M62.2 83.7h1.7l1.1-7.2c.5-.5.9-.7 1.1-.7.4 0 .4.2.4.7l-1.1 7.1h1.5l1.1-7.2c.4-.5.9-.7 1.1-.7.4 0 .4.2.3.7l-1.1 7.1H70l1.2-7.9c.2-1.1-.2-1.6-1-1.6-.6 0-1.3.4-2 1.1 0-.7-.4-1.1-1-1.1-.7 0-1.3.4-2 1.1l.2-1h-1.7z"
          id="path59"
        />
        <path
          className="st16"
          d="M105.2 83.7h4.4l.3-1.7h-2.6l3.5-6.2.2-1.6h-4.2l-.3 1.6h2.5l-3.6 6.2zm5.6 0h1.7l1.1-7.2c.4-.5.9-.7 1.1-.7.4 0 .4.2.3.7l-1.1 7.1h1.6l1.2-7.9c.2-1.1-.1-1.7-.9-1.7-.6 0-1.3.4-2.1 1.2l.2-1h-1.7zm9.3-1.1c0 .4-.1.8 0 1.1h1.6c0-.4.1-1.3.3-2.7l.6-4c.3-2-.2-3-1.7-3-1.4 0-2.6 1.1-2.9 2.7v.3h1.7l.1-.5c.1-.5.4-.8.9-.8.4 0 .5.3.4.9l-.2 1c-2.4 1.3-3.6 2.3-3.9 4.2-.2 1.4.2 2.1 1.1 2.1.6-.1 1.3-.5 2-1.3zm.1-1.3c-.3.6-.8.9-1.2.9-.3 0-.5-.3-.4-.9.2-1 .7-1.6 1.9-2.4zm2.9 2.4h1.7l1.1-7.2c.4-.5.9-.7 1.1-.7.4 0 .4.2.3.7l-1.1 7.1h1.6l1.2-7.9c.2-1.1-.1-1.7-.9-1.7-.6 0-1.3.4-2.1 1.2l.2-1h-1.7zm8.9-6.6h-1.6l-1.1 7.2c0 .3-.4.7-.8.7-.1 0-.3 0-.5-.1l-.2 1.5c.3.1.6.1.9.1 1.3 0 2-.7 2.3-2.2zm-1.5-1.1h1.6l.3-1.8h-1.6zm5.1 6.6c0 .4-.1.8 0 1.1h1.6c0-.4.1-1.3.3-2.7l.6-4c.3-2-.2-3-1.7-3-1.4 0-2.6 1.1-2.9 2.7v.3h1.7l.1-.5c.1-.5.4-.8.9-.8.4 0 .5.3.4.9l-.2 1c-2.4 1.3-3.6 2.3-3.9 4.2-.2 1.4.2 2.1 1.1 2.1.6-.1 1.4-.5 2-1.3zm.2-1.3c-.3.6-.8.9-1.2.9-.3 0-.5-.3-.4-.9.2-1 .7-1.6 1.9-2.4z"
          id="path61"
        />
      </g>
    </g>
  </svg>