<svg width="82" height="79" viewBox="0 0 82 79" fill="none" xmlns="http://www.w3.org/2000/svg">
<path d="M25.1802 39.16C18.3802 35.76 13.7902 28.96 13.7902 20.8C13.7902 9.57999 22.9702 0.399994 34.1902 0.399994C45.4102 0.399994 54.5902 9.57999 54.5902 20.8C54.5902 31.85 45.9202 40.86 34.8702 41.2H34.7002C17.8702 41.2 4.1002 54.97 4.1002 71.8C4.1002 72.82 3.4202 73.5 2.4002 73.5C1.3802 73.5 0.700195 72.82 0.700195 71.8C0.700195 56.33 11.0702 43.24 25.1802 39.16ZM34.1902 37.8C43.5402 37.8 51.1902 30.15 51.1902 20.8C51.1902 11.45 43.5402 3.79999 34.1902 3.79999C24.8402 3.79999 17.1902 11.45 17.1902 20.8C17.1902 30.15 24.8402 37.8 34.1902 37.8ZM80.7702 49.02L81.1102 49.87L77.0302 54.8C76.3502 55.65 76.3502 57.01 77.0302 57.86L81.1102 62.62L80.7702 63.47C79.9202 65.85 78.7302 68.23 77.0302 70.1L76.3502 70.78L70.0602 69.76C69.0402 69.59 67.8502 70.27 67.5102 71.29L65.3002 77.41L64.4502 77.58C61.2202 78.26 57.9902 78.26 54.7602 77.58L53.7402 77.41L51.7002 71.46C51.3602 70.44 50.1702 69.76 49.1502 69.93L42.6902 70.95L42.0102 70.27C41.1602 69.42 40.4802 68.4 39.9702 67.38C39.2902 66.19 38.6102 64.83 38.2702 63.47L37.9302 62.62L42.1802 57.86C42.8602 57.01 42.8602 55.65 42.1802 54.97L38.1002 50.04L38.4402 49.19C39.2902 46.64 40.6502 44.43 42.3502 42.39L43.0302 41.71L49.1502 42.73C50.1702 42.9 51.3602 42.22 51.8702 41.2L54.0802 35.25L54.9302 35.08C57.9902 34.4 61.2202 34.4 64.4502 35.08L65.4702 35.25L67.5102 41.03C67.8502 42.05 69.0402 42.9 70.2302 42.73L76.5202 41.88L77.2002 42.56C78.0502 43.58 78.7302 44.43 79.2402 45.62C79.7502 46.47 80.2602 47.83 80.7702 49.02ZM76.0102 46.98C75.6702 46.3 75.3302 45.79 74.8202 45.11L70.4002 45.62C67.6802 45.96 64.9602 44.26 64.1102 41.71L62.7502 37.8C60.7102 37.46 58.6702 37.46 56.6302 37.8L55.1002 41.88C54.2502 44.43 51.3602 46.13 48.6402 45.62L44.3902 44.94C43.3702 46.13 42.6902 47.66 42.0102 49.02L44.9002 52.42C46.6002 54.46 46.6002 57.69 44.9002 59.73L42.0102 63.13C42.3502 63.98 42.6902 64.66 43.2002 65.51C43.5402 66.19 43.8802 66.7 44.3902 67.21L48.9802 66.53C51.7002 66.19 54.4202 67.89 55.2702 70.44L56.6302 74.52C58.6702 74.86 60.8802 74.86 62.9202 74.52L64.4502 70.27C65.3002 67.72 68.1902 66.02 70.7402 66.53L74.9902 67.21C75.8402 66.02 76.6902 64.66 77.2002 63.13L74.4802 59.9C72.7802 57.86 72.6102 54.63 74.3102 52.59L77.2002 49.19C76.8602 48.51 76.5202 47.83 76.0102 46.98ZM59.6902 63.98C55.4402 63.98 52.0402 60.58 52.0402 56.33C52.0402 52.08 55.4402 48.68 59.6902 48.68C63.9402 48.68 67.3402 52.08 67.3402 56.33C67.3402 60.58 63.7702 63.98 59.6902 63.98ZM59.6902 60.58C62.0702 60.58 63.9402 58.71 63.9402 56.33C63.9402 53.95 62.0702 52.08 59.6902 52.08C57.3102 52.08 55.4402 53.95 55.4402 56.33C55.4402 58.71 57.3102 60.58 59.6902 60.58Z" fill="currentColor"/>
</svg>
