<svg version="1.0" xmlns="http://www.w3.org/2000/svg"
 width="400px" height="400px" viewBox="0 0 400.000000 400.000000"
 preserveAspectRatio="xMidYMid meet">

    <g transform="translate(0.000000,400.000000) scale(0.100000,-0.100000)"
    fill="" stroke="none">
    <path d="M1916 3591 c-3 -5 23 -64 57 -132 111 -218 164 -418 174 -656 3 -79
    3 -143 0 -143 -3 0 -27 9 -54 21 -278 120 -618 171 -928 139 -123 -12 -159
    -23 -152 -43 2 -8 41 -12 123 -13 310 -4 540 -50 774 -155 86 -39 220 -120
    220 -133 0 -30 -63 -244 -99 -336 -71 -184 -193 -377 -318 -507 -71 -74 -59
    -73 -192 -11 -303 140 -549 360 -718 643 -110 185 -171 346 -219 583 -5 24
    -31 30 -40 9 -7 -19 32 -233 62 -339 120 -430 395 -783 792 -1018 50 -30 92
    -58 92 -62 0 -10 -154 -110 -235 -153 -227 -119 -477 -187 -737 -202 -102 -5
    -118 -8 -118 -23 0 -23 44 -30 193 -30 362 0 712 99 1007 285 l87 55 114 -24
    c180 -38 291 -50 474 -51 180 0 275 11 439 52 54 13 101 21 105 18 3 -4 6 -91
    5 -193 -1 -161 -5 -205 -27 -313 -29 -136 -69 -260 -124 -378 -33 -72 -33
    -101 -1 -89 19 8 120 197 162 306 73 186 115 411 116 617 l1 110 78 47 c132
    80 242 166 356 282 161 162 250 286 204 286 -6 0 -52 -42 -103 -93 -102 -102
    -219 -197 -341 -274 -91 -57 -178 -103 -197 -103 -8 0 -20 31 -32 83 -67 298
    -191 530 -394 735 -59 60 -127 124 -152 143 -73 55 -72 53 -82 162 -25 280
    -106 530 -245 760 -85 141 -109 167 -127 138z m468 -1306 c196 -202 341 -460
    400 -715 l13 -59 -46 -15 c-161 -52 -475 -72 -666 -42 -123 19 -245 46 -245
    55 0 3 34 47 76 96 90 108 125 160 191 285 59 112 112 249 143 375 12 50 24
    96 26 104 5 16 27 -1 108 -84z"/>
    </g>
</svg>