<?xml version="1.0" encoding="UTF-8" standalone="no"?>
<svg
   width="400px"
   height="240px"
   viewBox="0 0 400 240"
   version="1.1"
   id="svg7"
   sodipodi:docname="logo7.svg"
   inkscape:version="1.1.2 (b8e25be8, 2022-02-05)"
   xmlns:inkscape="http://www.inkscape.org/namespaces/inkscape"
   xmlns:sodipodi="http://sodipodi.sourceforge.net/DTD/sodipodi-0.dtd"
   xmlns="http://www.w3.org/2000/svg"
   xmlns:svg="http://www.w3.org/2000/svg">
  <defs
     id="defs11" />
  <sodipodi:namedview
     id="namedview9"
     pagecolor="#ffffff"
     bordercolor="#111111"
     borderopacity="1"
     inkscape:pageshadow="0"
     inkscape:pageopacity="0"
     inkscape:pagecheckerboard="1"
     showgrid="false"
     inkscape:zoom="2.7075"
     inkscape:cx="89.56602"
     inkscape:cy="128.34718"
     inkscape:window-width="2560"
     inkscape:window-height="1387"
     inkscape:window-x="0"
     inkscape:window-y="25"
     inkscape:window-maximized="1"
     inkscape:current-layer="svg7" />
  <g
     id="surface1"
     transform="translate(3.6934441,-14.773777)">
    <path
       style="fill:#000000;fill-opacity:1;fill-rule:nonzero;stroke:none"
       d="m 93.738281,218.87109 c 8.253909,-0.0391 16.484379,-0.83593 24.593749,-2.38672 8.78906,-1.66406 17.45313,-3.94531 25.92578,-6.82812 v 32.26953 c -7.76953,2.98828 -15.82812,5.16016 -24.04687,6.48828 -11.08985,2.07422 -22.347659,3.10156 -33.628909,3.07031 -11.289062,0.0586 -22.53125,-1.46093 -33.394531,-4.51953 C 43.046875,244.15625 33.640625,239.17578 25.617188,232.36719 17.445312,225.22266 11.042969,216.28125 6.90625,206.24609 1.992188,193.87109 -0.359375,180.625 0,167.3125 -0.273438,153.87891 1.929688,140.51172 6.5,127.875 c 3.792969,-10.44531 9.726562,-19.98047 17.421875,-28 7.058594,-7.253906 15.574219,-12.925781 24.984375,-16.648438 9.273438,-3.664062 19.15625,-5.542968 29.125,-5.539062 9.847656,-0.105469 19.640625,1.507812 28.92969,4.773438 8.71484,3.117187 16.55859,8.269531 22.88281,15.027343 6.87109,7.589849 12,16.597659 15.01953,26.382809 3.82031,12.34766 5.63672,25.22657 5.375,38.15235 -0.11328,5.69922 -0.28125,10.52734 -0.49219,14.51172 H 41.339844 c 0.332031,6.79687 2.066406,13.45312 5.09375,19.54687 2.667968,5.1875 6.496094,9.68359 11.1875,13.14453 4.855468,3.47656 10.335937,5.97266 16.144531,7.35156 6.539063,1.57813 13.246094,2.34766 19.972656,2.29297 z M 77.511719,109.26563 c -4.707031,-0.0859 -9.371094,0.8789 -13.65625,2.82031 -3.925781,1.84375 -7.4375,4.45703 -10.332031,7.68359 -2.960938,3.33985 -5.292969,7.1836 -6.890626,11.35156 -1.746093,4.4336 -2.894531,9.08594 -3.414062,13.82422 h 65.04688 c 0.0273,-4.68359 -0.64844,-9.34375 -2.00782,-13.82422 -1.1875,-4.11718 -3.15234,-7.96875 -5.78125,-11.35156 -2.57031,-3.25 -5.843748,-5.8789 -9.574216,-7.68359 -4.1875,-1.96094 -8.769532,-2.92578 -13.390625,-2.82031 z m 0,0"
       id="path2" />
    <path
       style="fill:#000000;fill-opacity:1;fill-rule:nonzero;stroke:none"
       d="M 323.70312,188.99219 H 237.6875 l -22.40234,58.23437 H 170.73047 L 261.38281,18.773438 h 38.25 L 390.29687,247.22656 H 346.07812 Z M 280.33203,73.75 c -7.97266,23.90625 -15.08984,43.87891 -21.35156,59.92578 L 251.16406,154 h 59.03906 l -7.80468,-20.32422 C 296.20703,117.48438 289.08594,97.507812 281.03516,73.75 Z m 0,0"
       id="path4" />
  </g>
</svg>
