<svg
      xmlns="http://www.w3.org/2000/svg"
      width="400"
      height="240"
      version="1.1"
      viewBox="0 0 400 240"
    >
      <g
        fill="#000"
        fillOpacity="1"
        fillRule="nonzero"
        stroke="none"
        transform="translate(3.693 -14.774)"
      >
        <path d="M93.738 218.871c8.254-.039 16.485-.836 24.594-2.387a190.516 190.516 0 0025.926-6.828v32.27a120.555 120.555 0 01-24.047 6.488 180.19 180.19 0 01-33.629 3.07 120.909 120.909 0 01-33.394-4.52 72.528 72.528 0 01-27.57-14.597 70.262 70.262 0 01-18.712-26.12A98.309 98.309 0 010 167.311a109.402 109.402 0 016.5-39.437 79.756 79.756 0 0117.422-28 71.616 71.616 0 0124.984-16.648 79.178 79.178 0 0129.125-5.54 84.505 84.505 0 0128.93 4.774 58.175 58.175 0 0122.883 15.027 70.128 70.128 0 0115.02 26.383 120.797 120.797 0 015.374 38.152c-.113 5.7-.281 10.528-.492 14.512H41.34a49.35 49.35 0 005.094 19.547 37.835 37.835 0 0011.187 13.145 45.96 45.96 0 0016.145 7.351 82.278 82.278 0 0019.972 2.293zM77.512 109.266a31.69 31.69 0 00-13.657 2.82 32.36 32.36 0 00-10.332 7.684 37.15 37.15 0 00-6.89 11.351 53.716 53.716 0 00-3.414 13.824h65.047a46.676 46.676 0 00-2.008-13.824 33.742 33.742 0 00-5.781-11.351 27.452 27.452 0 00-9.575-7.684 29.96 29.96 0 00-13.39-2.82zm0 0"></path>
        <path d="M323.703 188.992h-86.015l-22.403 58.235H170.73l90.653-228.454h38.25l90.664 228.454h-44.219zM280.332 73.75c-7.973 23.906-15.09 43.879-21.352 59.926L251.164 154h59.04l-7.806-20.324c-6.191-16.192-13.312-36.168-21.363-59.926zm0 0"></path>
      </g>
    </svg>