<?xml version="1.0" encoding="UTF-8"?>
<svg xmlns="http://www.w3.org/2000/svg" xmlns:xlink="http://www.w3.org/1999/xlink" width="512pt" height="512pt" viewBox="0 0 512 512" version="1.1">
<g id="surface4802">
<path style="fill:none;stroke-width:2;stroke-linecap:butt;stroke-linejoin:miter;stroke:rgb(9.019608%,9.019608%,9.411765%);stroke-opacity:1;stroke-miterlimit:10;" d="M 16 12 C 13.790771 12 12 13.790771 12 16 C 12 18.209229 13.790771 20 16 20 C 18.209229 20 20 18.209229 20 16 C 20 13.790771 18.209229 12 16 12 Z M 16 12 " transform="matrix(16,0,0,16,0,0)"/>
<path style="fill:none;stroke-width:2;stroke-linecap:butt;stroke-linejoin:miter;stroke:rgb(9.019608%,9.019608%,9.411765%);stroke-opacity:1;stroke-miterlimit:10;" d="M 25 16 C 25 15.322998 24.918945 14.665039 24.7771 14.030029 L 27.39209 11.731934 L 25.39209 8.268066 L 22.087891 9.385986 C 21.12207 8.496094 19.966064 7.808105 18.680908 7.406982 L 18 4 L 14 4 L 13.319092 7.406006 C 12.032959 7.806885 10.87793 8.495117 9.912109 9.38501 L 6.60791 8.268066 L 4.60791 11.731934 L 7.2229 14.030029 C 7.081055 14.665039 7 15.322998 7 16 C 7 16.677002 7.081055 17.334961 7.2229 17.969971 L 4.60791 20.268066 L 6.60791 23.731934 L 9.912109 22.614014 C 10.87793 23.503906 12.033936 24.191895 13.319092 24.593018 L 14 28 L 18 28 L 18.680908 24.593994 C 19.967041 24.193115 21.12207 23.504883 22.087891 22.61499 L 25.39209 23.73291 L 27.39209 20.269043 L 24.7771 17.970947 C 24.918945 17.334961 25 16.677002 25 16 Z M 25 16 " transform="matrix(16,0,0,16,0,0)"/>
</g>
</svg>
