<?xml version="1.0" encoding="utf-8"?>
<!-- Generator: Adobe Illustrator 19.2.1, SVG Export Plug-In . SVG Version: 6.00 Build 0)  -->
<svg version="1.1" id="Layer_1" xmlns="http://www.w3.org/2000/svg" xmlns:xlink="http://www.w3.org/1999/xlink" x="0px" y="0px"
	 viewBox="0 0 300 300" style="enable-background:new 0 0 300 300;" xml:space="preserve">
<style type="text/css">
	.st0{fill-rule:evenodd;clip-rule:evenodd;fill:#9A94C8;}
	.st1{fill-rule:evenodd;clip-rule:evenodd;fill:#FFFFFF;}
	.st2{fill-rule:evenodd;clip-rule:evenodd;fill:#231F20;}
</style>
<rect class="st0" width="300" height="300"/>
<path class="st1" d="M149.5,40.1c56.9,0,103,32.4,103,72.4c0,40-46.1,72.4-103,72.4s-103-32.4-103-72.4
	C46.6,72.5,92.7,40.1,149.5,40.1"/>
<path class="st2" d="M44.8,254.7l-0.6,3.9c1,0.9,2.3,1.4,4,1.4c1.6,0,3.1-0.4,4.3-1.3c1.3-0.9,2.2-2.1,2.9-3.5c0.7-1.5,1-3,1-4.6
	c0-1.3-0.3-2.5-0.8-3.6c-0.5-1-1.3-2.3-2.4-3.7c-1-1.4-1.8-2.4-2.2-3.1c-0.4-0.7-0.7-1.5-0.7-2.4c0.2-1.3,0.7-2.3,1.5-3.1
	c0.8-0.7,1.7-1.1,2.6-1.1c1.2,0,2.2,0.4,3.1,1.3l0.7-4c-1.2-0.7-2.6-1-3.9-1c-1.4,0-2.8,0.4-4,1.1c-1.2,0.8-2.2,1.9-2.9,3.2
	c-0.7,1.4-1.1,3-1.1,4.8c0,1.4,0.3,2.5,0.8,3.4c0.5,1,1.3,2,2.3,3.1c1,1.2,1.8,2.2,2.3,3c0.5,0.9,0.7,1.9,0.7,3
	c0,1.3-0.5,2.4-1.2,3.3c-0.8,0.9-1.7,1.3-2.9,1.4C47.1,256.2,45.9,255.6,44.8,254.7 M59.5,223.8l-1.7-1.5l-3.3,3.3l-2.5-3.3
	l-2.1,1.5l3.9,5.4L59.5,223.8z M60.5,230.4l-0.5,3.3h4.6l-4.2,25.9h4l4.1-25.9h4.4l0.5-3.3H60.5z M75.5,230.4l-3.3,20.9
	c-0.1,0.6-0.2,1.7-0.3,3.3c0,1.3,0.2,2.3,0.6,3.1c0.4,0.8,1,1.4,1.8,1.7c0.8,0.4,1.9,0.5,3.1,0.5c1.4,0,2.5-0.2,3.4-0.6
	c0.9-0.3,1.7-0.9,2.3-1.5c0.6-0.7,1.1-1.6,1.5-2.7c0.3-1.1,0.7-2.4,0.9-4l3.3-20.9H85l-3.3,21.1c-0.2,1.3-0.4,2.3-0.7,2.9
	c-0.3,0.7-0.6,1.2-1.1,1.5c-0.5,0.3-1.2,0.4-2.1,0.4c-0.7,0-1.3-0.2-1.6-0.6c-0.3-0.4-0.5-1-0.5-1.8c0-0.6,0.2-1.6,0.3-3.1l3.3-20.4
	H75.5z M93.6,230.4L89,259.6h3.3c1.9,0,3.7-0.2,5.3-0.6c1.6-0.4,2.9-1.2,3.9-2.5c1-1.3,1.9-3,2.5-5.1c0.7-2.1,1.2-4.3,1.5-6.5
	c0.3-2.2,0.5-4.3,0.5-6.2v-0.9c-0.3-4.9-2.4-7.4-6.2-7.4H93.6z M97,233.6c1.6,0,2.9,0.5,3.7,1.5c0.8,1,1.2,2.3,1.2,3.8
	c0,1.2-0.1,2.6-0.3,4.2c-0.2,1.7-0.5,3.3-0.8,4.8c-0.3,1.5-0.6,2.7-0.8,3.4c-1,3.3-3.3,4.9-6.7,4.9L97,233.6z M111.7,230.4
	l-4.6,29.2h10.4l0.5-3.4h-6.5l1.5-9.9h5.9l0.5-3.3h-5.9l1.5-9.2h6.5l0.5-3.3H111.7z M120.5,259.6h3.8c0.4-2.6,0.8-5.2,1.2-7.7
	c0.3-2.5,0.7-5,1-7.5c0.3-2.5,0.5-4.9,0.6-7.3l0.1-0.1l3.3,22.5h3.6l4.6-29.2h-3.9c-0.4,2.6-0.8,4.9-1.1,6.8c-0.3,1.9-0.5,3.6-0.6,5
	c-0.1,1.4-0.3,2.9-0.4,4.4c-0.1,1.5-0.2,3.5-0.4,5.8l-0.1,0.1l-3.4-22.1h-3.7L120.5,259.6z M140.9,230.4l-0.5,3.3h4.6l-4.2,25.9h4
	l4.1-25.9h4.4l0.5-3.3H140.9z M151.4,254.7l-0.6,3.9c1,0.9,2.3,1.4,4,1.4c1.6,0,3.1-0.4,4.3-1.3c1.3-0.9,2.2-2.1,2.9-3.5
	c0.7-1.5,1-3,1-4.6c0-1.3-0.3-2.5-0.8-3.6c-0.5-1-1.3-2.3-2.4-3.7c-1-1.4-1.8-2.4-2.2-3.1c-0.4-0.7-0.7-1.5-0.7-2.4
	c0.2-1.3,0.7-2.3,1.5-3.1c0.8-0.7,1.7-1.1,2.6-1.1c1.2,0,2.2,0.4,3.1,1.3l0.7-4c-1.2-0.7-2.6-1-3.9-1c-1.4,0-2.8,0.4-4,1.1
	c-1.2,0.8-2.2,1.9-2.9,3.2c-0.7,1.4-1.1,3-1.1,4.8c0,1.4,0.3,2.5,0.8,3.4c0.5,1,1.3,2,2.3,3.1c1,1.2,1.8,2.2,2.3,3
	c0.5,0.9,0.7,1.9,0.7,3c0,1.3-0.5,2.4-1.2,3.3c-0.8,0.9-1.7,1.3-2.9,1.4C153.7,256.2,152.5,255.6,151.4,254.7z M171.4,244.6l3.1,15
	h4.5l-3.9-15.1l8-14.1h-4L171.4,244.6z M171.3,244.6l2.2-14.2h-3.8l-4.6,29.2h3.8L171.3,244.6z M189.9,230.4H186l-4.6,29.2h3.8
	L189.9,230.4z M202.6,230.4l-4.6,29.2h3.3c1.9,0,3.7-0.2,5.3-0.6c1.6-0.4,2.9-1.2,3.9-2.5c1-1.3,1.9-3,2.5-5.1
	c0.7-2.1,1.2-4.3,1.5-6.5c0.3-2.2,0.5-4.3,0.5-6.2v-0.9c-0.3-4.9-2.4-7.4-6.2-7.4H202.6z M206,233.6c1.6,0,2.9,0.5,3.7,1.5
	c0.8,1,1.2,2.3,1.2,3.8c0,1.2-0.1,2.6-0.3,4.2c-0.2,1.7-0.5,3.3-0.8,4.8c-0.3,1.5-0.6,2.7-0.8,3.4c-1,3.3-3.3,4.9-6.7,4.9L206,233.6
	z M216.9,251.2c0,0.2,0,0.6,0,1c0,1.4,0.2,2.6,0.6,3.8c0.4,1.2,1,2.1,1.9,2.8c0.9,0.7,2,1.1,3.3,1.1c1.9,0,3.4-0.6,4.8-1.7
	c1.3-1.1,2.4-2.7,3.2-4.6c0.8-2,1.4-4.2,1.9-6.8c0.4-2.6,0.7-5.4,0.9-8.4c0-0.1,0-0.2,0-0.4c0-0.2,0-0.3,0-0.5
	c0-2.1-0.5-3.9-1.4-5.3c-0.9-1.4-2.4-2.1-4.5-2.1c-0.9,0-1.5,0-1.9,0.2c-2.1,0.5-3.8,1.9-5.1,4.2c-1.2,2.4-2.1,4.9-2.6,7.6
	C217.6,244.8,217.2,247.8,216.9,251.2z M221.1,251.2c0.1-1.7,0.3-3.5,0.5-5.3c0.2-1.8,0.5-3.6,1-5.5c0.4-1.9,1-3.5,1.7-4.8
	c0.7-1.3,1.6-1.9,2.6-1.9c1,0,1.6,0.3,2,1c0.3,0.7,0.5,1.7,0.5,3.3c0,0.2,0,0.6,0,1c0,0.5,0,0.9,0,1.1c-0.2,2-0.4,4.3-0.9,6.7
	c-0.4,2.5-1,4.7-1.9,6.7c-0.8,1.9-1.8,2.9-2.9,2.9c-1.7,0-2.6-1.3-2.7-3.9C221.1,252.1,221.1,251.7,221.1,251.2z M240.1,230.4
	l-7,29.2h3.7l4.3-20.1h0.1c0,0.3,0,1.5,0.1,3.6c0.1,2.1,0.2,4.3,0.2,6.5c0,2.2,0.1,3.8,0.2,5c0,1.2,0.1,2.9,0.2,5.1h2.6
	c0.6-1.7,1.1-3.3,1.7-4.8c0.5-1.5,1.2-3.3,1.9-5.5c0.8-2.2,1.4-4,1.9-5.5c0.5-1.5,1-3,1.4-4.3h0.1c-0.2,1.4-0.4,2.9-0.6,4.5
	c-0.2,1.6-0.3,3.1-0.5,4.3c-0.2,1.3-0.4,3.4-0.7,6.4c-0.3,3-0.5,4.6-0.5,5h3.8l1.9-29.2h-3.4c-3.3,9.2-5.7,16.2-7.1,21h0l-0.8-21
	H240.1z"/>
<path class="st2" d="M90.1,192.7l-4.6,29.2h3.3c1.9,0,3.7-0.2,5.3-0.6c1.6-0.4,2.9-1.2,3.9-2.5c1-1.3,1.9-3,2.5-5.1
	c0.7-2.1,1.2-4.3,1.5-6.5c0.3-2.2,0.5-4.3,0.5-6.2v-0.9c-0.3-4.9-2.4-7.4-6.2-7.4H90.1z M93.5,195.9c1.6,0,2.9,0.5,3.7,1.5
	c0.8,1,1.2,2.3,1.2,3.8c0,1.2-0.1,2.6-0.3,4.2c-0.2,1.7-0.5,3.3-0.8,4.8c-0.3,1.5-0.6,2.7-0.8,3.4c-1,3.3-3.3,4.9-6.7,4.9
	L93.5,195.9z M112,192.7h-3.8l-4.6,29.2h3.8L112,192.7z M120,192.7l-3.4,20.9c-0.2,1.2-0.3,2.1-0.5,2.8c-0.2,0.7-0.5,1.2-1,1.5
	c-0.4,0.3-1,0.4-1.7,0.5c-0.9-0.1-1.7-0.4-2.5-1l-0.6,3.9c0.7,0.5,1.8,0.8,3.3,0.8c1.9,0,3.4-0.5,4.4-1.5c1.3-1.2,2.1-3.3,2.5-6.2
	l3.5-21.9H120z M132.7,192.7l-11,29.2h3.8l1.9-5.7h5.8l0.2,5.7h3.9l-1.7-29.2H132.7z M128.7,213.1l4.6-14.9h0.1l-0.1,14.9H128.7z
	 M140.1,216.9l-0.6,3.9c1,0.9,2.3,1.4,4,1.4c1.6,0,3.1-0.4,4.3-1.3c1.3-0.9,2.2-2.1,2.9-3.5c0.7-1.5,1-3,1-4.6
	c0-1.3-0.3-2.5-0.8-3.6c-0.5-1-1.3-2.3-2.4-3.7c-1-1.4-1.8-2.4-2.2-3.1c-0.4-0.7-0.7-1.5-0.7-2.4c0.2-1.3,0.7-2.3,1.5-3.1
	c0.8-0.7,1.7-1.1,2.6-1.1c1.2,0,2.2,0.4,3.1,1.3l0.7-4c-1.2-0.7-2.6-1-3.9-1c-1.4,0-2.8,0.4-4,1.1c-1.2,0.8-2.2,1.9-2.9,3.2
	c-0.7,1.4-1.1,3-1.1,4.8c0,1.4,0.3,2.5,0.8,3.4c0.5,1,1.3,2,2.3,3.1c1,1.2,1.8,2.2,2.3,3c0.5,0.9,0.7,1.9,0.7,3
	c0,1.3-0.5,2.4-1.2,3.3c-0.8,0.9-1.7,1.3-2.9,1.4C142.4,218.4,141.2,217.9,140.1,216.9z M154.8,186l-1.7-1.5l-3.3,3.3l-2.5-3.3
	l-2.1,1.5l3.9,5.4L154.8,186z M160.1,206.9l3.1,15h4.5l-3.9-15.1l8-14.1h-4L160.1,206.9z M160,206.9l2.2-14.2h-3.8l-4.6,29.2h3.8
	L160,206.9z M178.6,192.7h-3.8l-4.6,29.2h3.8L178.6,192.7z M195.1,192.7h-3.8l-4.6,29.2h3.8L195.1,192.7z M195.3,221.9h3.8
	c0.4-2.6,0.9-5.2,1.2-7.7c0.3-2.5,0.7-5,1-7.5c0.3-2.5,0.5-4.9,0.6-7.3l0.1-0.1l3.3,22.5h3.6l4.6-29.2h-3.9
	c-0.4,2.6-0.8,4.9-1.1,6.8c-0.3,1.9-0.5,3.6-0.6,5c-0.1,1.4-0.3,2.9-0.4,4.4c-0.1,1.5-0.2,3.5-0.4,5.8l-0.1,0.1l-3.4-22.1h-3.7
	L195.3,221.9z"/>
<path class="st2" d="M149.5,51.6c4.6,0,8.4,3.8,8.4,8.4c0,4.6-3.8,8.4-8.4,8.4c-4.6,0-8.4-3.8-8.4-8.4
	C141.1,55.4,144.9,51.6,149.5,51.6 M192.4,153.3V71.6c22.1,8.6,36.8,23.7,36.8,40.8C229.1,129.6,214.4,144.7,192.4,153.3z
	 M106.7,140L106.7,140v3.1v10.2c-22.1-8.6-36.8-23.7-36.8-40.8c0-17.1,14.7-32.2,36.8-40.8V140z M118.4,55.9v87.5
	c0.1,1.7,0.4,3.3,0.9,5c0.8,2.3,2.2,4.5,3.9,6.3l0,0l2.4,1.9c0.8,0.6,1.6,1.1,2.5,1.6c1.1,0.6,2.2,1,3.4,1.4
	c1.7,0.4,3.3,0.7,5.1,0.7l1.5-0.1c1.2-0.2,2.4-0.4,3.6-0.8c1.4-0.5,2.7-1.1,4-1.9l1.9-1.4l0.3,0l1-1c0.8-0.8,1.5-1.7,2.2-2.6
	c0.7-1.1,1.3-2.2,1.8-3.3l0.6-1.8c0.2-0.9,0.4-1.8,0.5-2.8c0.1-1,0.1-1.9,0.1-2.8c-0.1-1-0.2-1.9-0.4-2.8c-0.3-1.4-0.8-2.6-1.4-3.9
	c-0.4-0.7-0.8-1.3-1.2-1.9c-1.4-1.8-3-3.4-4.8-4.9c-1.6-1.3-3.2-2.7-4.7-4.1c-1.1-1.1-2.1-2.3-3.1-3.5c-0.8-1.1-1.5-2.1-2.1-3.3
	c-0.9-1.8-1.6-3.4-2.2-5.3c-0.5-1.6-0.7-3.2-1-4.8l-0.2-2.6c0-1.3,0-2.6,0.1-3.9c0.2-1.3,0.4-2.5,0.7-3.8c0.3-1.3,0.7-2.5,1.2-3.7
	c0.5-1.2,1-2.3,1.6-3.5c0.7-1.1,1.3-2.2,2.1-3.3c0.8-1,1.6-2,2.5-3c1-0.9,1.9-1.8,3-2.6c1.1-0.8,2.2-1.5,3.3-2.2
	c1.4-0.8,2.9-1.5,4.4-2.1c1.6-0.6,3.2-1,4.9-1.4c1.9-0.3,3.9-0.6,5.8-0.5c2.8,0,5.5,0.4,8.2,1.2l1.4,0.4c1.6,0.6,3.2,1.3,4.7,2.1
	c1,0.5,1.9,1.1,2.8,1.7c0.3,0.2,0.5,0.4,0.8,0.6V55.9c0,0,0,0,0,0c0,0,0,0,0,0c0,0,0,0,0.1,0c0,0,0,0,0,0v-0.3
	c35,8.4,60,30.7,60,56.8c0,26.1-25.1,48.3-60,56.8v-0.2c0,0-0.1,0-0.1,0v-62.7l-0.2,0l0-2.9c-0.1-1.8-0.4-3.5-1-5.2
	c-0.9-2.4-2.3-4.6-4.1-6.5l-0.7-0.7l-0.2,0l-1.3-1c-1-0.7-2-1.3-3.1-1.9c-0.9-0.4-1.8-0.7-2.7-1c-1.2-0.3-2.4-0.5-3.6-0.6
	c-1.8-0.1-3.4,0.1-5.1,0.4l-1.4,0.4c-1.4,0.5-2.7,1.1-4,1.9l-1.9,1.4l-0.3,0l-1,1c-0.8,0.8-1.5,1.7-2.2,2.6
	c-0.7,1.1-1.3,2.2-1.8,3.3l-0.6,1.8L145,101c-0.1,0.9-0.2,1.9-0.2,2.8c0,1,0.1,1.9,0.2,2.8c0.3,1.5,0.7,2.9,1.3,4.3l0.5,1
	c1.5,2.5,3.5,4.5,5.7,6.3c1.9,1.6,3.8,3.2,5.5,4.9l2.3,2.7l3.4,6c0,0.1,0.1,0.2,0.1,0.2c0.4,1,0.7,1.9,1,2.9l0.4,1.4l0.5,2.8
	l0.2,2.8l-0.1,2.8c-0.1,1.4-0.3,2.7-0.6,4.1c-0.3,1.4-0.7,2.6-1.2,4c-0.5,1.3-1.1,2.5-1.7,3.8c-0.7,1.2-1.4,2.3-2.3,3.5
	c-0.9,1.1-1.8,2.1-2.8,3.2l-2.1,1.9l-2.3,1.7l-2.5,1.5c-1.3,0.7-2.7,1.3-4.1,1.8c-1.9,0.6-3.7,1.1-5.6,1.4c-1.4,0.2-2.9,0.3-4.3,0.3
	l-4,0c-4.7-0.6-9.4-1.5-14.1-2.6l0.2-0.2c0,0-0.1,0-0.1,0v0.2c-35-8.4-60-30.7-60-56.8c0-26.1,25.1-48.3,60-56.8l-0.1,0.3
	C118.3,56,118.4,56,118.4,55.9z M149.5,40.1c-56.7,0-103,32.5-103,72.4c0,39.9,46.2,72.4,103,72.4c56.7,0,103-32.5,103-72.4
	C252.5,72.6,206.2,40.1,149.5,40.1z"/>
</svg>
