<?xml version="1.0" encoding="utf-8"?>
<!-- Generator: Adobe Illustrator 19.2.1, SVG Export Plug-In . SVG Version: 6.00 Build 0)  -->
<svg version="1.1" id="Layer_1" xmlns="http://www.w3.org/2000/svg" xmlns:xlink="http://www.w3.org/1999/xlink" x="0px" y="0px"
	 viewBox="0 0 300 300" style="enable-background:new 0 0 300 300;" xml:space="preserve">
<style type="text/css">
	.st0{fill-rule:evenodd;clip-rule:evenodd;fill:#EE5BA0;}
	.st1{fill-rule:evenodd;clip-rule:evenodd;fill:#FFFFFF;}
	.st2{fill-rule:evenodd;clip-rule:evenodd;fill:#000002;}
</style>
<rect class="st0" width="300" height="300"/>
<path class="st1" d="M148.7,184.2c57,0,103.6-32.6,103.6-72.5c0-39.9-46.5-72.5-103.6-72.5c-57,0-103.6,32.6-103.6,72.5
	C45.1,151.7,91.7,184.2,148.7,184.2"/>
<path class="st2" d="M238,149c-0.6,0-1.1,0-1.7,0c-5.5,0-10.9,0.3-16.2,1c0,0,0,0,0,0c-21.7,2.6-40.8,10.7-54.1,21.8c0,0,0,0-0.1,0
	c0,0,0,0,0,0c-5.6,0.7-11.4,1.1-17.3,1.1s-11.7-0.4-17.3-1.1c0,0,0,0,0,0c-0.1,0-0.2,0-0.2,0c-13.3-10.6-32-18.4-53.1-21.1
	c0,0,0,0,0,0c-5.5-0.7-11.2-1.1-17-1.1c-0.4,0-0.8,0-1.2,0c4.8,5.6,10.7,10.8,17.4,15.3h0c18.6,12.5,43.8,20.2,71.5,20.2
	c27.7,0,52.9-7.7,71.5-20.2h0C227.1,160.1,233.1,154.8,238,149 M57.3,112.3C57.3,112.3,57.3,112.3,57.3,112.3
	c-1.5,0.1-3.1,0.2-4.6,0.3c0,0,0,0,0,0c0,0-0.1,0-0.1,0c0,0,0,0,0,0c-0.1,0-0.1,0-0.2,0c0,0,0,0,0,0c-0.1,0-0.3,0-0.4,0v0
	c-2.3,0.2-4.5,0.4-6.8,0.7c0-0.4,0-0.8,0-1.2c0-23.4,15.8-44.2,40.3-57.6c3.2,9.2,7.6,17.7,16.3,22.9c-3,1.1-5.6,2.9-8.1,5
	c-1.6,1.5-2.9,3-4.3,4.8l-2.1,3.5c-0.9,1.9-1.6,3.7-2.3,5.6c-0.9,3.2-1.5,6.3-1.9,9.7c-0.2,2.5-0.3,4.9-0.2,7.3
	c-6-0.8-12.3-1.2-18.6-1.2C61.8,112.1,59.6,112.2,57.3,112.3z M250.6,125.4c-1.1,4-2.6,8-4.6,11.8c-3.2-0.2-6.4-0.3-9.7-0.3
	c-0.5,0-0.9,0-1.4,0v0c-29,0.3-55.1,9-73.7,22.8c-1.4-2.6-2.9-5-4.7-7.5c5.1-5.2,11.3-9.9,18.4-13.8l11.1-5.3
	c13.8-5.6,30-8.8,47.3-8.8c2.1,0,4.1,0,6.2,0.1c0,0,0.1,0,0.1,0c0,0,0,0,0,0c0,0,0.1,0,0.1,0c0,0,0.1,0,0.1,0c0,0,0.1,0,0.1,0
	c0,0,0,0,0.1,0c0,0,0,0,0,0c0,0,0.1,0,0.1,0c0,0,0,0,0,0c0,0,0,0,0.1,0c0,0,0,0,0,0C243.8,124.6,247.2,124.9,250.6,125.4z
	 M51.7,137.7c-2.1-4-3.8-8.1-4.9-12.3c2.5-0.3,5.1-0.6,7.7-0.8c0,0,0,0,0,0c0.1,0,0.1,0,0.2,0c0,0,0,0,0,0c0,0,0.1,0,0.1,0
	c3.1-0.2,6.2-0.3,9.3-0.3c32.1,0,60.5,11.1,76.8,27.9c-1.8,2.5-3.5,5.2-4.9,7.9c-18-13.2-42.9-21.8-70.6-22.6c0,0,0,0,0,0
	c0,0,0,0-0.1,0c0,0,0,0-0.1,0c0,0,0,0,0,0c0,0,0,0,0,0c0,0,0,0-0.1,0c0,0,0,0-0.1,0c0,0,0,0-0.1,0c0,0,0,0-0.1,0c-1.3,0-2.5,0-3.8,0
	c0,0,0,0,0,0c0,0,0,0,0,0c0,0,0,0,0,0c0,0,0,0,0,0c0,0,0,0,0,0c0,0,0,0,0,0c0,0,0,0,0,0c0,0,0,0,0,0c0,0,0,0,0,0c0,0,0,0,0,0
	c0,0,0,0,0,0c0,0,0,0,0,0c0,0,0,0,0,0c0,0,0,0,0,0c0,0,0,0,0,0c0,0,0,0,0,0c0,0,0,0,0,0c0,0,0,0,0,0c0,0,0,0,0,0c0,0,0,0,0,0
	c0,0,0,0,0,0c0,0,0,0,0,0s0,0,0,0c0,0,0,0,0,0c0,0,0,0,0,0c0,0,0,0,0,0c-0.1,0-0.1,0-0.2,0c0,0,0,0,0,0c0,0,0,0,0,0c0,0,0,0,0,0
	c0,0,0,0,0,0c0,0,0,0,0,0c0,0,0,0,0,0c0,0,0,0,0,0c0,0,0,0,0,0s0,0,0,0c0,0,0,0,0,0c0,0,0,0,0,0c0,0,0,0,0,0c0,0,0,0,0,0
	c-0.1,0-0.1,0-0.2,0c0,0,0,0,0,0c0,0,0,0,0,0c0,0,0,0,0,0s0,0,0,0c0,0-0.1,0-0.1,0c0,0,0,0,0,0c0,0,0,0,0,0c0,0,0,0,0,0c0,0,0,0,0,0
	c0,0,0,0,0,0c0,0,0,0,0,0c0,0,0,0,0,0c0,0,0,0,0,0c0,0,0,0,0,0c0,0,0,0,0,0v0C56.9,137.4,54.3,137.5,51.7,137.7z M169.3,127.8
	c-7.9,4.4-14.8,9.5-20.6,15.3c-13-12.9-31.8-22.7-53.7-27.6c-0.2-3.2-0.1-6.5,0.3-9.8c0.6-4.2,1.7-7.9,4-11.5l1.5-1.8
	c2.6-2.5,5.3-3.9,8.8-4.6l-1.2,4.9l-0.3,2.8l-0.1,2.7l0.2,2.6l0.4,2.5l0.7,2.4l0.9,2.3l2.3,4.2c1.4,1.9,2.8,3.5,4.5,5.2l3.5,2.7
	c1.9,1.2,3.7,2.2,5.6,3.2c6.2,2.6,13.1,4.3,19.8,3.1l-1.9-12.1c-5.3,1-10.9-0.9-15.5-3.5l-2.3-1.6c-2.2-1.8-3.6-3.5-4.9-6.1
	l-0.8-2.5c-0.3-1.5-0.3-2.8-0.3-4.4c0.4-3.1,1.2-5.8,2.5-8.7c3.6,1.9,7,3.9,10.5,6c2.8,1.8,5.6,3.8,8.5,5.6l2.7,1.4l2.7,1.1l2.7,0.7
	l2.7,0.4l2.6,0.1l2.5-0.2c2.2-0.4,4.2-0.9,6.3-1.7C162.6,110.2,165.6,119.6,169.3,127.8z M165.9,171.8
	C166,171.8,166,171.8,165.9,171.8L165.9,171.8z M168.9,55c5.3-1.4,10.8,1.7,12.2,7c1.4,5.3-1.7,10.8-7,12.2
	c-5.3,1.4-10.8-1.7-12.2-7C160.5,62,163.7,56.5,168.9,55z M137.8,54.6c4.5,3.2,5.5,9.4,2.3,13.9c-3.2,4.5-9.4,5.5-13.9,2.3
	c-4.5-3.2-5.5-9.4-2.3-13.9C127.1,52.4,133.4,51.4,137.8,54.6z M242.1,112.4C242.1,112.4,242.1,112.4,242.1,112.4
	c-0.1,0-0.1,0-0.1,0c0,0-0.1,0-0.1,0c0,0,0,0,0,0c-0.6,0-1.2-0.1-1.7-0.1c0,0,0,0,0,0c-2.2-0.1-4.5-0.2-6.8-0.2
	c-19.3,0-37.5,3.8-53,10.3c-0.4-0.8-0.7-1.6-1.1-2.4c-2.5-6.2-4.5-13.3-2.7-19.9c1.8,2.4,3.8,4.2,6.2,6.1l3.9,2.4l4.1,1.6
	c2.1,0.5,4,0.8,6.2,1l4-0.1c2-0.3,3.8-0.7,5.8-1.2c6.1-2,11.1-4.9,16.2-8.7l2.6-2.1l-7-10.1c-4.6,4-9.5,7.3-15.3,9.2
	c-3.6,1-6.5,1.2-10.1-0.1l-2.1-1c-3.3-2.2-5.8-5.3-7.7-8.8c3.1-2.1,6.1-3.5,9.8-4.2l3.1-0.2c1.8,0.2,3.4,0.5,5.1,1l3.1-11.8
	l-4.8-1.1l-2.9-0.3l-2.8,0l-2.7,0.3c-2.6,0.5-4.9,1.2-7.4,2.1l-4.3,2.2c-3.6,2.2-6.9,4.6-10.2,7.1l-0.1-0.1l0,0.2
	c-3.4,2.5-6.7,5-10.7,6.5l-2.4,0.6c-1.3,0.1-2.4,0.1-3.7-0.1c-3.7-1-6.4-3-9.5-5.2l-6-3.8c-5.5-3.3-11.1-6.2-16.9-8.8
	c-4.1-1.9-8.3-3.6-12.2-5.9c-1.7-1.1-3.1-2.3-4.5-3.8c-1.8-2.2-3.1-4.5-4.2-7c0,0,0,0,0,0c-1.1-2.2-2.1-4.6-3-6.7
	c15.4-6.4,33.4-10.1,52.6-10.1c57.1,0,103.6,32.7,103.6,72.9c0,0.4,0,0.8,0,1.2C249,112.9,245.6,112.6,242.1,112.4z"/>
<path class="st2" d="M217.8,230.9H214l-4.6,29h3.8L217.8,230.9 M199.2,230.9l-0.5,3.3h4.6l-4.2,25.7h3.9l4-25.7h4.4l0.5-3.3H199.2z
	 M183.5,255.1l-0.6,3.9c1,0.9,2.3,1.4,4,1.4c1.6,0,3-0.4,4.3-1.3c1.3-0.9,2.2-2.1,2.9-3.5c0.7-1.5,1-3,1-4.6c0-1.3-0.3-2.5-0.8-3.5
	c-0.5-1-1.3-2.3-2.3-3.7c-1-1.3-1.8-2.4-2.2-3.1c-0.4-0.7-0.7-1.5-0.7-2.3c0.2-1.3,0.7-2.3,1.5-3c0.8-0.7,1.7-1.1,2.6-1.1
	c1.2,0,2.2,0.4,3.1,1.3l0.7-4c-1.2-0.7-2.5-1-3.9-1c-1.4,0-2.7,0.4-4,1.1c-1.2,0.8-2.2,1.9-2.9,3.2c-0.7,1.4-1.1,3-1.1,4.7
	c0,1.3,0.3,2.5,0.8,3.4c0.5,1,1.3,2,2.3,3.1c1,1.1,1.8,2.2,2.3,3c0.5,0.8,0.7,1.8,0.7,3c0,1.3-0.5,2.3-1.2,3.2
	c-0.8,0.9-1.7,1.3-2.9,1.3C185.8,256.6,184.7,256,183.5,255.1z M170.1,251.6c0.1-1.7,0.3-3.5,0.5-5.3c0.2-1.8,0.5-3.6,1-5.5
	c0.4-1.9,1-3.5,1.7-4.7c0.7-1.3,1.6-1.9,2.5-1.9c1,0,1.6,0.3,2,1c0.3,0.7,0.5,1.7,0.5,3.2c0,0.2,0,0.6,0,1c0,0.5,0,0.8,0,1.1
	c-0.2,2-0.4,4.2-0.8,6.7c-0.4,2.5-1,4.7-1.8,6.6c-0.8,1.9-1.8,2.9-2.9,2.9c-1.7,0-2.6-1.3-2.7-3.8
	C170.1,252.5,170.1,252.1,170.1,251.6z M165.9,251.7c0,0.2,0,0.6,0,1c0,1.3,0.2,2.6,0.6,3.8c0.4,1.2,1,2.1,1.9,2.8
	c0.9,0.7,2,1.1,3.3,1.1c1.8,0,3.4-0.6,4.8-1.7c1.3-1.1,2.4-2.7,3.2-4.6c0.8-2,1.4-4.2,1.9-6.7c0.4-2.5,0.7-5.3,0.9-8.4
	c0-0.1,0-0.2,0-0.4c0-0.2,0-0.3,0-0.5c0-2.1-0.5-3.8-1.3-5.3c-0.9-1.4-2.4-2.1-4.4-2.1c-0.8,0-1.5,0-1.9,0.2
	c-2.1,0.5-3.8,1.8-5.1,4.2c-1.2,2.3-2.1,4.9-2.6,7.6C166.7,245.2,166.2,248.3,165.9,251.7z M146.9,259.9h3.8
	c0.4-2.6,0.9-5.2,1.2-7.7c0.4-2.5,0.7-5,1-7.4c0.3-2.5,0.5-4.9,0.6-7.2l0.1-0.1l3.2,22.4h3.6l4.6-29h-3.9c-0.4,2.6-0.8,4.9-1.1,6.7
	c-0.3,1.9-0.5,3.6-0.6,5c-0.1,1.4-0.3,2.9-0.4,4.4c-0.1,1.5-0.2,3.5-0.4,5.8l-0.1,0.1l-3.4-22h-3.7L146.9,259.9z M135.5,259.9h3.1
	l10.3-29h-3.6c-0.3,0.8-0.8,2.4-1.6,4.8c-0.8,2.3-1.5,4.5-2.2,6.5c-0.6,2-1.2,3.8-1.8,5.6c-0.5,1.8-1,3.4-1.4,5h-0.1l0.2-21.8h-3.8
	L135.5,259.9z M122.2,251.3l4.6-14.8h0.1l-0.1,14.8H122.2z M126.2,230.9l-10.9,29h3.8l1.9-5.6h5.8l0.2,5.6h3.9l-1.7-29H126.2z
	 M113.6,230.9l-3.4,20.8c-0.2,1.2-0.4,2.1-0.5,2.8c-0.2,0.7-0.5,1.2-1,1.5c-0.4,0.3-1,0.4-1.7,0.5c-0.9-0.1-1.7-0.4-2.5-1l-0.6,3.9
	c0.7,0.5,1.8,0.8,3.2,0.8c1.9,0,3.3-0.5,4.3-1.5c1.3-1.2,2.1-3.2,2.5-6.1l3.5-21.8H113.6z M97.1,230.9l-4.6,29h10.3l0.5-3.4h-6.5
	l1.5-9.8h5.8l0.5-3.3h-5.8l1.5-9.2h6.5l0.5-3.3H97.1z M82.5,234.2c1.6,0,2.8,0.5,3.7,1.5c0.8,1,1.2,2.3,1.2,3.8
	c0,1.2-0.1,2.5-0.3,4.2c-0.2,1.7-0.5,3.3-0.8,4.8c-0.3,1.5-0.6,2.7-0.8,3.3c-1,3.3-3.2,4.9-6.6,4.9L82.5,234.2z M79.1,230.9l-4.6,29
	h3.2c1.9,0,3.7-0.2,5.3-0.6c1.6-0.4,2.9-1.2,3.9-2.5c1-1.3,1.9-3,2.5-5.1c0.6-2.1,1.2-4.2,1.5-6.5c0.3-2.2,0.5-4.3,0.5-6.2v-0.9
	c-0.3-4.9-2.4-7.3-6.2-7.3H79.1z M259,193l-4.6,29h10.3l0.5-3.4h-6.5l1.5-9.8h5.8l0.5-3.3h-5.8l1.5-9.2h6.5l0.5-3.3H259z M236.2,222
	h3.8c0.4-2.6,0.9-5.2,1.2-7.7c0.4-2.5,0.7-5,1-7.4c0.3-2.5,0.5-4.9,0.6-7.2l0.1-0.1l3.2,22.4h3.6l4.6-29h-3.9
	c-0.4,2.6-0.8,4.8-1.1,6.7c-0.3,1.9-0.5,3.6-0.6,5c-0.1,1.4-0.3,2.9-0.4,4.4c-0.1,1.5-0.2,3.5-0.4,5.8l-0.1,0.1l-3.4-22h-3.7
	L236.2,222z M227.4,193l-4.6,29h10.3l0.5-3.4h-6.5l1.5-9.8h5.8l0.5-3.3h-5.8l1.5-9.2h6.5l0.5-3.3H227.4z M211.4,222h3.1l10.3-29
	h-3.6c-0.3,0.8-0.8,2.4-1.6,4.8c-0.8,2.3-1.5,4.5-2.2,6.5c-0.7,2-1.2,3.8-1.8,5.6c-0.5,1.8-1,3.4-1.4,5h-0.1l0.2-21.8h-3.8
	L211.4,222z M197.6,193l-0.5,3.3h4.6l-4.2,25.7h3.9l4-25.7h4.4l0.5-3.3H197.6z M195.4,193h-3.8l-4.6,29h3.8L195.4,193z M177.4,205.8
	l1.5-9.6c1.1,0,1.9,0.2,2.4,0.5c0.5,0.3,0.8,1.1,0.8,2.3c0,1.9-0.3,3.5-1,4.8C180.4,205.1,179.2,205.8,177.4,205.8z M171,222h3.8
	l2.3-14.2h0.1l3,14.2h4l-3.2-14.1c1.3-0.2,2.3-0.8,3.1-1.9c0.8-1.1,1.3-2.3,1.7-3.7c0.3-1.4,0.5-2.8,0.5-4.2c0-1.8-0.4-3.1-1.3-3.9
	c-0.9-0.8-2.3-1.2-4.2-1.2h-5.3L171,222z M157.6,213.6c0.1-1.7,0.3-3.5,0.5-5.3c0.2-1.8,0.5-3.6,1-5.5c0.4-1.9,1-3.5,1.7-4.7
	c0.7-1.3,1.6-1.9,2.5-1.9c1,0,1.6,0.3,2,1c0.3,0.7,0.5,1.7,0.5,3.2c0,0.2,0,0.6,0,1c0,0.5,0,0.8,0,1.1c-0.2,2-0.4,4.2-0.8,6.7
	c-0.4,2.5-1,4.7-1.8,6.6c-0.8,1.9-1.8,2.9-2.9,2.9c-1.7,0-2.6-1.3-2.7-3.8C157.6,214.5,157.6,214.1,157.6,213.6z M153.4,213.7
	c0,0.2,0,0.6,0,1c0,1.3,0.2,2.6,0.6,3.8c0.4,1.2,1,2.1,1.9,2.8c0.9,0.7,2,1.1,3.3,1.1c1.8,0,3.4-0.6,4.8-1.7
	c1.3-1.1,2.4-2.7,3.2-4.6c0.8-2,1.4-4.2,1.9-6.7c0.4-2.5,0.7-5.3,0.9-8.4c0-0.1,0-0.2,0-0.4c0-0.2,0-0.3,0-0.5
	c0-2.1-0.5-3.8-1.3-5.3c-0.9-1.4-2.4-2.1-4.4-2.1c-0.8,0-1.5,0-1.9,0.2c-2.1,0.5-3.8,1.8-5.1,4.2c-1.2,2.3-2.1,4.8-2.6,7.6
	C154.2,207.3,153.7,210.3,153.4,213.7z M142.3,193l-0.5,3.3h4.6l-4.2,25.7h3.9l4-25.7h4.4l0.5-3.3H142.3z M126.7,217.1l-0.6,3.9
	c1,0.9,2.3,1.4,4,1.4c1.6,0,3-0.4,4.3-1.3c1.3-0.9,2.2-2.1,2.9-3.5c0.7-1.5,1-3,1-4.6c0-1.3-0.3-2.5-0.8-3.5c-0.5-1-1.3-2.3-2.3-3.7
	c-1-1.4-1.8-2.4-2.2-3.1c-0.4-0.7-0.7-1.5-0.7-2.3c0.2-1.3,0.7-2.3,1.5-3c0.8-0.7,1.7-1.1,2.6-1.1c1.2,0,2.2,0.4,3.1,1.3l0.7-4
	c-1.2-0.7-2.5-1-3.9-1c-1.4,0-2.7,0.4-4,1.1c-1.2,0.8-2.2,1.8-2.9,3.2c-0.7,1.4-1.1,3-1.1,4.7c0,1.3,0.3,2.5,0.8,3.4
	c0.5,1,1.3,2,2.3,3.1c1,1.1,1.8,2.2,2.3,3c0.5,0.8,0.7,1.8,0.7,3c0,1.3-0.5,2.3-1.2,3.2c-0.8,0.9-1.7,1.3-2.9,1.3
	C129,218.6,127.8,218,126.7,217.1z M107.5,213.3l4.6-14.8h0.1l-0.1,14.8H107.5z M111.5,193l-10.9,29h3.8l1.9-5.6h5.8l0.2,5.6h3.9
	l-1.7-29H111.5z M91.5,193l-0.5,3.3h7.8L86,222h13.3l0.5-3.4h-8.3l12.8-25.6H91.5z M68.5,213.3l4.6-14.8h0.1l-0.1,14.8H68.5z
	 M72.6,193l-10.9,29h3.8l1.9-5.6h5.8l0.2,5.6h3.9l-1.7-29H72.6z M55.8,193l-4.6,29h10.3l0.5-3.4h-6.5l4-25.6H55.8z M37.8,213.6
	c0.1-1.7,0.3-3.5,0.5-5.3c0.2-1.8,0.5-3.6,1-5.5c0.4-1.9,1-3.5,1.7-4.7c0.7-1.3,1.6-1.9,2.5-1.9c1,0,1.6,0.3,2,1
	c0.3,0.7,0.5,1.7,0.5,3.2c0,0.2,0,0.6,0,1c0,0.5,0,0.8,0,1.1c-0.2,2-0.4,4.2-0.8,6.7c-0.4,2.5-1,4.7-1.8,6.6
	c-0.8,1.9-1.8,2.9-2.9,2.9c-1.7,0-2.6-1.3-2.7-3.8C37.8,214.5,37.8,214.1,37.8,213.6z M33.6,213.7c0,0.2,0,0.6,0,1
	c0,1.3,0.2,2.6,0.6,3.8c0.4,1.2,1,2.1,1.9,2.8c0.9,0.7,2,1.1,3.3,1.1c1.8,0,3.4-0.6,4.8-1.7c1.3-1.1,2.4-2.7,3.2-4.6
	c0.8-2,1.4-4.2,1.9-6.7c0.4-2.5,0.7-5.3,0.9-8.4c0-0.1,0-0.2,0-0.4c0-0.2,0-0.3,0-0.5c0-2.1-0.5-3.8-1.3-5.3
	c-0.9-1.4-2.4-2.1-4.4-2.1c-0.8,0-1.5,0-1.9,0.2c-2.1,0.5-3.8,1.8-5.1,4.2c-1.2,2.3-2.1,4.8-2.6,7.6
	C34.4,207.3,33.9,210.3,33.6,213.7z M33.9,186.4l-1.7-1.5l-3.3,3.2l-2.5-3.2l-2.1,1.5l3.9,5.3L33.9,186.4z M19.3,217.1l-0.6,3.9
	c1,0.9,2.3,1.4,4,1.4c1.6,0,3-0.4,4.3-1.3c1.3-0.9,2.2-2.1,2.9-3.5c0.7-1.5,1-3,1-4.6c0-1.3-0.3-2.5-0.8-3.5c-0.5-1-1.3-2.3-2.3-3.7
	c-1-1.4-1.8-2.4-2.2-3.1c-0.4-0.7-0.7-1.5-0.7-2.3c0.2-1.3,0.7-2.3,1.5-3c0.8-0.7,1.7-1.1,2.6-1.1c1.2,0,2.2,0.4,3.1,1.3l0.7-4
	c-1.2-0.7-2.5-1-3.9-1c-1.4,0-2.7,0.4-4,1.1c-1.2,0.8-2.2,1.8-2.9,3.2c-0.7,1.4-1.1,3-1.1,4.7c0,1.3,0.3,2.5,0.8,3.4
	c0.5,1,1.3,2,2.3,3.1c1,1.1,1.8,2.2,2.3,3c0.5,0.8,0.7,1.8,0.7,3c0,1.3-0.5,2.3-1.2,3.2c-0.8,0.9-1.7,1.3-2.9,1.3
	C21.6,218.6,20.4,218,19.3,217.1z"/>
</svg>
